#N canvas 412 226 980 550 12;
#N canvas 0 0 209 276 o1 0;
#X obj 29 28 inlet;
#X obj 29 56 tgl 15 0 empty empty empty 0 -6 0 8 -262144 -1 -1 0 1
;
#X obj 29 78 metro 80;
#X obj 29 105 random 100;
#X obj 29 132 + 20;
#X obj 29 159 mtof;
#X obj 29 188 osc~;
#X obj 30 218 outlet~;
#X connect 0 0 1 0;
#X connect 1 0 2 0;
#X connect 2 0 3 0;
#X connect 3 0 4 0;
#X connect 4 0 5 0;
#X connect 5 0 6 0;
#X connect 6 0 7 0;
#X restore -21 141 pd o1;
#X obj -21 121 tgl 15 0 empty empty empty 0 -6 0 8 -262144 -1 -1 0
1;
#N canvas 0 0 209 276 o1 0;
#X obj 29 28 inlet;
#X obj 29 56 tgl 15 0 empty empty empty 0 -6 0 8 -262144 -1 -1 0 1
;
#X obj 29 78 metro 80;
#X obj 29 105 random 100;
#X obj 29 132 + 20;
#X obj 29 159 mtof;
#X obj 29 188 osc~;
#X obj 30 218 outlet~;
#X connect 0 0 1 0;
#X connect 1 0 2 0;
#X connect 2 0 3 0;
#X connect 3 0 4 0;
#X connect 4 0 5 0;
#X connect 5 0 6 0;
#X connect 6 0 7 0;
#X restore 23 141 pd o1;
#X obj 23 121 tgl 15 0 empty empty empty 0 -6 0 8 -262144 -1 -1 0 1
;
#N canvas 0 0 209 276 o1 0;
#X obj 29 28 inlet;
#X obj 29 56 tgl 15 0 empty empty empty 0 -6 0 8 -262144 -1 -1 0 1
;
#X obj 29 78 metro 80;
#X obj 29 105 random 100;
#X obj 29 132 + 20;
#X obj 29 159 mtof;
#X obj 29 188 osc~;
#X obj 30 218 outlet~;
#X connect 0 0 1 0;
#X connect 1 0 2 0;
#X connect 2 0 3 0;
#X connect 3 0 4 0;
#X connect 4 0 5 0;
#X connect 5 0 6 0;
#X connect 6 0 7 0;
#X restore 67 141 pd o1;
#X obj 67 121 tgl 15 0 empty empty empty 0 -6 0 8 -262144 -1 -1 0 1
;
#N canvas 0 0 209 276 o1 0;
#X obj 29 28 inlet;
#X obj 29 56 tgl 15 0 empty empty empty 0 -6 0 8 -262144 -1 -1 0 1
;
#X obj 29 78 metro 80;
#X obj 29 105 random 100;
#X obj 29 132 + 20;
#X obj 29 159 mtof;
#X obj 29 188 osc~;
#X obj 30 218 outlet~;
#X connect 0 0 1 0;
#X connect 1 0 2 0;
#X connect 2 0 3 0;
#X connect 3 0 4 0;
#X connect 4 0 5 0;
#X connect 5 0 6 0;
#X connect 6 0 7 0;
#X restore 111 141 pd o1;
#X obj 111 121 tgl 15 0 empty empty empty 0 -6 0 8 -262144 -1 -1 0
1;
#N canvas 0 0 209 276 o1 0;
#X obj 29 28 inlet;
#X obj 29 56 tgl 15 0 empty empty empty 0 -6 0 8 -262144 -1 -1 0 1
;
#X obj 29 78 metro 80;
#X obj 29 105 random 100;
#X obj 29 132 + 20;
#X obj 29 159 mtof;
#X obj 29 188 osc~;
#X obj 30 218 outlet~;
#X connect 0 0 1 0;
#X connect 1 0 2 0;
#X connect 2 0 3 0;
#X connect 3 0 4 0;
#X connect 4 0 5 0;
#X connect 5 0 6 0;
#X connect 6 0 7 0;
#X restore 155 141 pd o1;
#X obj 155 121 tgl 15 0 empty empty empty 0 -6 0 8 -262144 -1 -1 0
1;
#N canvas 0 0 209 276 o1 0;
#X obj 29 28 inlet;
#X obj 29 56 tgl 15 0 empty empty empty 0 -6 0 8 -262144 -1 -1 0 1
;
#X obj 29 78 metro 80;
#X obj 29 105 random 100;
#X obj 29 132 + 20;
#X obj 29 159 mtof;
#X obj 29 188 osc~;
#X obj 30 218 outlet~;
#X connect 0 0 1 0;
#X connect 1 0 2 0;
#X connect 2 0 3 0;
#X connect 3 0 4 0;
#X connect 4 0 5 0;
#X connect 5 0 6 0;
#X connect 6 0 7 0;
#X restore 199 141 pd o1;
#X obj 199 121 tgl 15 0 empty empty empty 0 -6 0 8 -262144 -1 -1 0
1;
#N canvas 0 0 209 276 o1 0;
#X obj 29 28 inlet;
#X obj 29 56 tgl 15 0 empty empty empty 0 -6 0 8 -262144 -1 -1 0 1
;
#X obj 29 78 metro 80;
#X obj 29 105 random 100;
#X obj 29 132 + 20;
#X obj 29 159 mtof;
#X obj 29 188 osc~;
#X obj 30 218 outlet~;
#X connect 0 0 1 0;
#X connect 1 0 2 0;
#X connect 2 0 3 0;
#X connect 3 0 4 0;
#X connect 4 0 5 0;
#X connect 5 0 6 0;
#X connect 6 0 7 0;
#X restore 243 141 pd o1;
#X obj 243 121 tgl 15 0 empty empty empty 0 -6 0 8 -262144 -1 -1 0
1;
#N canvas 0 0 209 276 o1 0;
#X obj 29 28 inlet;
#X obj 29 56 tgl 15 0 empty empty empty 0 -6 0 8 -262144 -1 -1 0 1
;
#X obj 29 78 metro 80;
#X obj 29 105 random 100;
#X obj 29 132 + 20;
#X obj 29 159 mtof;
#X obj 29 188 osc~;
#X obj 30 218 outlet~;
#X connect 0 0 1 0;
#X connect 1 0 2 0;
#X connect 2 0 3 0;
#X connect 3 0 4 0;
#X connect 4 0 5 0;
#X connect 5 0 6 0;
#X connect 6 0 7 0;
#X restore 287 141 pd o1;
#X obj 287 121 tgl 15 0 empty empty empty 0 -6 0 8 -262144 -1 -1 0
1;
#N canvas 0 0 209 276 o1 0;
#X obj 29 28 inlet;
#X obj 29 56 tgl 15 0 empty empty empty 0 -6 0 8 -262144 -1 -1 0 1
;
#X obj 29 78 metro 80;
#X obj 29 105 random 100;
#X obj 29 132 + 20;
#X obj 29 159 mtof;
#X obj 29 188 osc~;
#X obj 30 218 outlet~;
#X connect 0 0 1 0;
#X connect 1 0 2 0;
#X connect 2 0 3 0;
#X connect 3 0 4 0;
#X connect 4 0 5 0;
#X connect 5 0 6 0;
#X connect 6 0 7 0;
#X restore 331 141 pd o1;
#X obj 331 121 tgl 15 0 empty empty empty 0 -6 0 8 -262144 -1 -1 0
1;
#N canvas 0 0 209 276 o1 0;
#X obj 29 28 inlet;
#X obj 29 56 tgl 15 0 empty empty empty 0 -6 0 8 -262144 -1 -1 0 1
;
#X obj 29 78 metro 80;
#X obj 29 105 random 100;
#X obj 29 132 + 20;
#X obj 29 159 mtof;
#X obj 29 188 osc~;
#X obj 30 218 outlet~;
#X connect 0 0 1 0;
#X connect 1 0 2 0;
#X connect 2 0 3 0;
#X connect 3 0 4 0;
#X connect 4 0 5 0;
#X connect 5 0 6 0;
#X connect 6 0 7 0;
#X restore 375 141 pd o1;
#X obj 375 121 tgl 15 0 empty empty empty 0 -6 0 8 -262144 -1 -1 0
1;
#N canvas 0 0 209 276 o1 0;
#X obj 29 28 inlet;
#X obj 29 56 tgl 15 0 empty empty empty 0 -6 0 8 -262144 -1 -1 0 1
;
#X obj 29 78 metro 80;
#X obj 29 105 random 100;
#X obj 29 132 + 20;
#X obj 29 159 mtof;
#X obj 29 188 osc~;
#X obj 30 218 outlet~;
#X connect 0 0 1 0;
#X connect 1 0 2 0;
#X connect 2 0 3 0;
#X connect 3 0 4 0;
#X connect 4 0 5 0;
#X connect 5 0 6 0;
#X connect 6 0 7 0;
#X restore 419 141 pd o1;
#X obj 419 121 tgl 15 0 empty empty empty 0 -6 0 8 -262144 -1 -1 0
1;
#N canvas 0 0 209 276 o1 0;
#X obj 29 28 inlet;
#X obj 29 56 tgl 15 0 empty empty empty 0 -6 0 8 -262144 -1 -1 0 1
;
#X obj 29 78 metro 80;
#X obj 29 105 random 100;
#X obj 29 132 + 20;
#X obj 29 159 mtof;
#X obj 29 188 osc~;
#X obj 30 218 outlet~;
#X connect 0 0 1 0;
#X connect 1 0 2 0;
#X connect 2 0 3 0;
#X connect 3 0 4 0;
#X connect 4 0 5 0;
#X connect 5 0 6 0;
#X connect 6 0 7 0;
#X restore 463 141 pd o1;
#X obj 463 121 tgl 15 0 empty empty empty 0 -6 0 8 -262144 -1 -1 0
1;
#N canvas 0 0 209 276 o1 0;
#X obj 29 28 inlet;
#X obj 29 56 tgl 15 0 empty empty empty 0 -6 0 8 -262144 -1 -1 0 1
;
#X obj 29 78 metro 80;
#X obj 29 105 random 100;
#X obj 29 132 + 20;
#X obj 29 159 mtof;
#X obj 29 188 osc~;
#X obj 30 218 outlet~;
#X connect 0 0 1 0;
#X connect 1 0 2 0;
#X connect 2 0 3 0;
#X connect 3 0 4 0;
#X connect 4 0 5 0;
#X connect 5 0 6 0;
#X connect 6 0 7 0;
#X restore 507 141 pd o1;
#X obj 507 121 tgl 15 0 empty empty empty 0 -6 0 8 -262144 -1 -1 0
1;
#N canvas 0 0 209 276 o1 0;
#X obj 29 28 inlet;
#X obj 29 56 tgl 15 0 empty empty empty 0 -6 0 8 -262144 -1 -1 0 1
;
#X obj 29 78 metro 80;
#X obj 29 105 random 100;
#X obj 29 132 + 20;
#X obj 29 159 mtof;
#X obj 29 188 osc~;
#X obj 30 218 outlet~;
#X connect 0 0 1 0;
#X connect 1 0 2 0;
#X connect 2 0 3 0;
#X connect 3 0 4 0;
#X connect 4 0 5 0;
#X connect 5 0 6 0;
#X connect 6 0 7 0;
#X restore 551 141 pd o1;
#X obj 551 121 tgl 15 0 empty empty empty 0 -6 0 8 -262144 -1 -1 0
1;
#N canvas 0 0 209 276 o1 0;
#X obj 29 28 inlet;
#X obj 29 56 tgl 15 0 empty empty empty 0 -6 0 8 -262144 -1 -1 0 1
;
#X obj 29 78 metro 80;
#X obj 29 105 random 100;
#X obj 29 132 + 20;
#X obj 29 159 mtof;
#X obj 29 188 osc~;
#X obj 30 218 outlet~;
#X connect 0 0 1 0;
#X connect 1 0 2 0;
#X connect 2 0 3 0;
#X connect 3 0 4 0;
#X connect 4 0 5 0;
#X connect 5 0 6 0;
#X connect 6 0 7 0;
#X restore 595 141 pd o1;
#X obj 595 121 tgl 15 0 empty empty empty 0 -6 0 8 -262144 -1 -1 0
1;
#N canvas 0 0 209 276 o1 0;
#X obj 29 28 inlet;
#X obj 29 56 tgl 15 0 empty empty empty 0 -6 0 8 -262144 -1 -1 0 1
;
#X obj 29 78 metro 80;
#X obj 29 105 random 100;
#X obj 29 132 + 20;
#X obj 29 159 mtof;
#X obj 29 188 osc~;
#X obj 30 218 outlet~;
#X connect 0 0 1 0;
#X connect 1 0 2 0;
#X connect 2 0 3 0;
#X connect 3 0 4 0;
#X connect 4 0 5 0;
#X connect 5 0 6 0;
#X connect 6 0 7 0;
#X restore 639 141 pd o1;
#X obj 639 121 tgl 15 0 empty empty empty 0 -6 0 8 -262144 -1 -1 0
1;
#N canvas 0 0 209 276 o1 0;
#X obj 29 28 inlet;
#X obj 29 56 tgl 15 0 empty empty empty 0 -6 0 8 -262144 -1 -1 0 1
;
#X obj 29 78 metro 80;
#X obj 29 105 random 100;
#X obj 29 132 + 20;
#X obj 29 159 mtof;
#X obj 29 188 osc~;
#X obj 30 218 outlet~;
#X connect 0 0 1 0;
#X connect 1 0 2 0;
#X connect 2 0 3 0;
#X connect 3 0 4 0;
#X connect 4 0 5 0;
#X connect 5 0 6 0;
#X connect 6 0 7 0;
#X restore 683 141 pd o1;
#X obj 683 121 tgl 15 0 empty empty empty 0 -6 0 8 -262144 -1 -1 0
1;
#N canvas 0 0 209 276 o1 0;
#X obj 29 28 inlet;
#X obj 29 56 tgl 15 0 empty empty empty 0 -6 0 8 -262144 -1 -1 0 1
;
#X obj 29 78 metro 80;
#X obj 29 105 random 100;
#X obj 29 132 + 20;
#X obj 29 159 mtof;
#X obj 29 188 osc~;
#X obj 30 218 outlet~;
#X connect 0 0 1 0;
#X connect 1 0 2 0;
#X connect 2 0 3 0;
#X connect 3 0 4 0;
#X connect 4 0 5 0;
#X connect 5 0 6 0;
#X connect 6 0 7 0;
#X restore 727 141 pd o1;
#X obj 727 121 tgl 15 0 empty empty empty 0 -6 0 8 -262144 -1 -1 0
1;
#N canvas 0 0 209 276 o1 0;
#X obj 29 28 inlet;
#X obj 29 56 tgl 15 0 empty empty empty 0 -6 0 8 -262144 -1 -1 0 1
;
#X obj 29 78 metro 80;
#X obj 29 105 random 100;
#X obj 29 132 + 20;
#X obj 29 159 mtof;
#X obj 29 188 osc~;
#X obj 30 218 outlet~;
#X connect 0 0 1 0;
#X connect 1 0 2 0;
#X connect 2 0 3 0;
#X connect 3 0 4 0;
#X connect 4 0 5 0;
#X connect 5 0 6 0;
#X connect 6 0 7 0;
#X restore 771 141 pd o1;
#X obj 771 121 tgl 15 0 empty empty empty 0 -6 0 8 -262144 -1 -1 0
1;
#N canvas 0 0 209 276 o1 0;
#X obj 29 28 inlet;
#X obj 29 56 tgl 15 0 empty empty empty 0 -6 0 8 -262144 -1 -1 0 1
;
#X obj 29 78 metro 80;
#X obj 29 105 random 100;
#X obj 29 132 + 20;
#X obj 29 159 mtof;
#X obj 29 188 osc~;
#X obj 30 218 outlet~;
#X connect 0 0 1 0;
#X connect 1 0 2 0;
#X connect 2 0 3 0;
#X connect 3 0 4 0;
#X connect 4 0 5 0;
#X connect 5 0 6 0;
#X connect 6 0 7 0;
#X restore 815 141 pd o1;
#X obj 815 121 tgl 15 0 empty empty empty 0 -6 0 8 -262144 -1 -1 0
1;
#X obj 173 273 *~;
#X obj 634 242 line~;
#X msg 634 218 \$1 20;
#X obj 637 196 hsl 128 15 0 1 0 0 empty empty empty -2 -6 0 8 -262144
-1 -1 0 1;
#X obj 173 304 dac~;
#X text -2 19 3.1.2.2.4. oscillator concert 1;
#X text 463 480 www.pd-tutorial.com;
#X text 712 216 the more oscillators \,;
#X text 709 240 the smaller this value!;
#X text 463 459 Johannes Kreidler;
#X connect 0 0 40 0;
#X connect 1 0 0 0;
#X connect 2 0 40 0;
#X connect 3 0 2 0;
#X connect 4 0 40 0;
#X connect 5 0 4 0;
#X connect 6 0 40 0;
#X connect 7 0 6 0;
#X connect 8 0 40 0;
#X connect 9 0 8 0;
#X connect 10 0 40 0;
#X connect 11 0 10 0;
#X connect 12 0 40 0;
#X connect 13 0 12 0;
#X connect 14 0 40 0;
#X connect 15 0 14 0;
#X connect 16 0 40 0;
#X connect 17 0 16 0;
#X connect 18 0 40 0;
#X connect 19 0 18 0;
#X connect 20 0 40 0;
#X connect 21 0 20 0;
#X connect 22 0 40 0;
#X connect 23 0 22 0;
#X connect 24 0 40 0;
#X connect 25 0 24 0;
#X connect 26 0 40 0;
#X connect 27 0 26 0;
#X connect 28 0 40 0;
#X connect 29 0 28 0;
#X connect 30 0 40 0;
#X connect 31 0 30 0;
#X connect 32 0 40 0;
#X connect 33 0 32 0;
#X connect 34 0 40 0;
#X connect 35 0 34 0;
#X connect 36 0 40 0;
#X connect 37 0 36 0;
#X connect 38 0 40 0;
#X connect 39 0 38 0;
#X connect 40 0 44 0;
#X connect 40 0 44 1;
#X connect 41 0 40 1;
#X connect 42 0 41 0;
#X connect 43 0 42 0;
