#N canvas 412 226 680 538 12;
#X obj 129 173 line;
#X msg 47 86 40;
#X msg 129 120 70 13000;
#X msg 208 120 50 10000;
#X msg 286 120 80 3000;
#X obj 215 175 unpack f f;
#X floatatom 129 208 5 0 0 0 - - -;
#X obj 290 203 t b f;
#X obj 129 236 mtof;
#X obj 290 263 del;
#X obj 325 234 - 1000;
#X msg 258 305 1 1000;
#X msg 317 305 0 1000;
#X obj 258 343 line~;
#X obj 129 286 sig~;
#X obj 130 345 osc~;
#X obj 129 400 *~;
#X obj 129 432 dac~;
#X msg 359 120 100 8000;
#X text -26 63 starting tone;
#X text 129 89 then you can start as many glissandi as you want;
#X text -26 276 for better sample;
#X text -29 298 synchronization;
#X text 80 17 3.1.2.2.2. glissandi dim;
#X text 365 268 the bang for the decrescendo;
#X text 365 286 arrives later;
#X text 371 442 www.pd-tutorial.com;
#X text 383 418 Johannes Kreidler;
#X connect 0 0 6 0;
#X connect 1 0 0 0;
#X connect 2 0 0 0;
#X connect 2 0 5 0;
#X connect 3 0 0 0;
#X connect 3 0 5 0;
#X connect 4 0 0 0;
#X connect 4 0 5 0;
#X connect 5 1 7 0;
#X connect 6 0 8 0;
#X connect 7 0 9 0;
#X connect 7 0 11 0;
#X connect 7 1 10 0;
#X connect 8 0 14 0;
#X connect 9 0 12 0;
#X connect 10 0 9 1;
#X connect 11 0 13 0;
#X connect 12 0 13 0;
#X connect 13 0 16 1;
#X connect 14 0 15 0;
#X connect 15 0 16 0;
#X connect 16 0 17 0;
#X connect 16 0 17 1;
#X connect 18 0 0 0;
#X connect 18 0 5 0;
