#N canvas 412 226 976 546 12;
#N canvas 708 490 357 288 o1 0;
#X obj 29 28 inlet;
#X obj 29 56 tgl 15 0 empty empty empty 0 -6 0 8 -262144 -1 -1 0 1
;
#X obj 29 78 metro 80;
#X obj 29 105 random 100;
#X obj 29 163 + 20;
#X obj 29 190 mtof;
#X obj 29 219 osc~;
#X obj 30 249 outlet~;
#X obj 88 24 r tempo;
#X floatatom 88 56 5 0 0 0 - - -;
#X obj 177 37 r ambitus;
#X floatatom 177 64 5 0 0 0 - - -;
#X obj 237 94 r offset;
#X floatatom 237 119 5 0 0 0 - - -;
#X connect 0 0 1 0;
#X connect 1 0 2 0;
#X connect 2 0 3 0;
#X connect 3 0 4 0;
#X connect 4 0 5 0;
#X connect 5 0 6 0;
#X connect 6 0 7 0;
#X connect 8 0 9 0;
#X connect 9 0 2 1;
#X connect 10 0 11 0;
#X connect 11 0 3 1;
#X connect 12 0 13 0;
#X connect 13 0 4 1;
#X restore -21 141 pd o1;
#X obj -21 121 tgl 15 0 empty empty empty 0 -6 0 8 -262144 -1 -1 0
1;
#X obj 173 273 *~;
#X obj 634 242 line~;
#X msg 634 218 \$1 20;
#X obj 637 196 hsl 128 15 0 1 0 0 empty empty empty -2 -6 0 8 -262144
-1 -1 0 1;
#X obj 173 304 dac~;
#N canvas 708 490 357 288 o1 0;
#X obj 29 28 inlet;
#X obj 29 56 tgl 15 0 empty empty empty 0 -6 0 8 -262144 -1 -1 0 1
;
#X obj 29 78 metro 80;
#X obj 29 105 random 100;
#X obj 29 163 + 20;
#X obj 29 190 mtof;
#X obj 29 219 osc~;
#X obj 30 249 outlet~;
#X obj 88 24 r tempo;
#X floatatom 88 56 5 0 0 0 - - -;
#X obj 177 37 r ambitus;
#X floatatom 177 64 5 0 0 0 - - -;
#X obj 237 94 r offset;
#X floatatom 237 119 5 0 0 0 - - -;
#X connect 0 0 1 0;
#X connect 1 0 2 0;
#X connect 2 0 3 0;
#X connect 3 0 4 0;
#X connect 4 0 5 0;
#X connect 5 0 6 0;
#X connect 6 0 7 0;
#X connect 8 0 9 0;
#X connect 9 0 2 1;
#X connect 10 0 11 0;
#X connect 11 0 3 1;
#X connect 12 0 13 0;
#X connect 13 0 4 1;
#X restore 23 141 pd o1;
#X obj 23 121 tgl 15 0 empty empty empty 0 -6 0 8 -262144 -1 -1 0 1
;
#N canvas 708 490 357 288 o1 0;
#X obj 29 28 inlet;
#X obj 29 56 tgl 15 0 empty empty empty 0 -6 0 8 -262144 -1 -1 0 1
;
#X obj 29 78 metro 80;
#X obj 29 105 random 100;
#X obj 29 163 + 20;
#X obj 29 190 mtof;
#X obj 29 219 osc~;
#X obj 30 249 outlet~;
#X obj 88 24 r tempo;
#X floatatom 88 56 5 0 0 0 - - -;
#X obj 177 37 r ambitus;
#X floatatom 177 64 5 0 0 0 - - -;
#X obj 237 94 r offset;
#X floatatom 237 119 5 0 0 0 - - -;
#X connect 0 0 1 0;
#X connect 1 0 2 0;
#X connect 2 0 3 0;
#X connect 3 0 4 0;
#X connect 4 0 5 0;
#X connect 5 0 6 0;
#X connect 6 0 7 0;
#X connect 8 0 9 0;
#X connect 9 0 2 1;
#X connect 10 0 11 0;
#X connect 11 0 3 1;
#X connect 12 0 13 0;
#X connect 13 0 4 1;
#X restore 67 141 pd o1;
#X obj 67 121 tgl 15 0 empty empty empty 0 -6 0 8 -262144 -1 -1 0 1
;
#N canvas 708 490 357 288 o1 0;
#X obj 29 28 inlet;
#X obj 29 56 tgl 15 0 empty empty empty 0 -6 0 8 -262144 -1 -1 0 1
;
#X obj 29 78 metro 80;
#X obj 29 105 random 100;
#X obj 29 163 + 20;
#X obj 29 190 mtof;
#X obj 29 219 osc~;
#X obj 30 249 outlet~;
#X obj 88 24 r tempo;
#X floatatom 88 56 5 0 0 0 - - -;
#X obj 177 37 r ambitus;
#X floatatom 177 64 5 0 0 0 - - -;
#X obj 237 94 r offset;
#X floatatom 237 119 5 0 0 0 - - -;
#X connect 0 0 1 0;
#X connect 1 0 2 0;
#X connect 2 0 3 0;
#X connect 3 0 4 0;
#X connect 4 0 5 0;
#X connect 5 0 6 0;
#X connect 6 0 7 0;
#X connect 8 0 9 0;
#X connect 9 0 2 1;
#X connect 10 0 11 0;
#X connect 11 0 3 1;
#X connect 12 0 13 0;
#X connect 13 0 4 1;
#X restore 111 141 pd o1;
#X obj 111 121 tgl 15 0 empty empty empty 0 -6 0 8 -262144 -1 -1 0
1;
#N canvas 708 490 357 288 o1 0;
#X obj 29 28 inlet;
#X obj 29 56 tgl 15 0 empty empty empty 0 -6 0 8 -262144 -1 -1 0 1
;
#X obj 29 78 metro 80;
#X obj 29 105 random 100;
#X obj 29 163 + 20;
#X obj 29 190 mtof;
#X obj 29 219 osc~;
#X obj 30 249 outlet~;
#X obj 88 24 r tempo;
#X floatatom 88 56 5 0 0 0 - - -;
#X obj 177 37 r ambitus;
#X floatatom 177 64 5 0 0 0 - - -;
#X obj 237 94 r offset;
#X floatatom 237 119 5 0 0 0 - - -;
#X connect 0 0 1 0;
#X connect 1 0 2 0;
#X connect 2 0 3 0;
#X connect 3 0 4 0;
#X connect 4 0 5 0;
#X connect 5 0 6 0;
#X connect 6 0 7 0;
#X connect 8 0 9 0;
#X connect 9 0 2 1;
#X connect 10 0 11 0;
#X connect 11 0 3 1;
#X connect 12 0 13 0;
#X connect 13 0 4 1;
#X restore 156 141 pd o1;
#X obj 156 121 tgl 15 0 empty empty empty 0 -6 0 8 -262144 -1 -1 0
1;
#N canvas 708 490 357 288 o1 0;
#X obj 29 28 inlet;
#X obj 29 56 tgl 15 0 empty empty empty 0 -6 0 8 -262144 -1 -1 0 1
;
#X obj 29 78 metro 80;
#X obj 29 105 random 100;
#X obj 29 163 + 20;
#X obj 29 190 mtof;
#X obj 29 219 osc~;
#X obj 30 249 outlet~;
#X obj 88 24 r tempo;
#X floatatom 88 56 5 0 0 0 - - -;
#X obj 177 37 r ambitus;
#X floatatom 177 64 5 0 0 0 - - -;
#X obj 237 94 r offset;
#X floatatom 237 119 5 0 0 0 - - -;
#X connect 0 0 1 0;
#X connect 1 0 2 0;
#X connect 2 0 3 0;
#X connect 3 0 4 0;
#X connect 4 0 5 0;
#X connect 5 0 6 0;
#X connect 6 0 7 0;
#X connect 8 0 9 0;
#X connect 9 0 2 1;
#X connect 10 0 11 0;
#X connect 11 0 3 1;
#X connect 12 0 13 0;
#X connect 13 0 4 1;
#X restore 200 141 pd o1;
#X obj 200 121 tgl 15 0 empty empty empty 0 -6 0 8 -262144 -1 -1 0
1;
#N canvas 708 490 357 288 o1 0;
#X obj 29 28 inlet;
#X obj 29 56 tgl 15 0 empty empty empty 0 -6 0 8 -262144 -1 -1 0 1
;
#X obj 29 78 metro 80;
#X obj 29 105 random 100;
#X obj 29 163 + 20;
#X obj 29 190 mtof;
#X obj 29 219 osc~;
#X obj 30 249 outlet~;
#X obj 88 24 r tempo;
#X floatatom 88 56 5 0 0 0 - - -;
#X obj 177 37 r ambitus;
#X floatatom 177 64 5 0 0 0 - - -;
#X obj 237 94 r offset;
#X floatatom 237 119 5 0 0 0 - - -;
#X connect 0 0 1 0;
#X connect 1 0 2 0;
#X connect 2 0 3 0;
#X connect 3 0 4 0;
#X connect 4 0 5 0;
#X connect 5 0 6 0;
#X connect 6 0 7 0;
#X connect 8 0 9 0;
#X connect 9 0 2 1;
#X connect 10 0 11 0;
#X connect 11 0 3 1;
#X connect 12 0 13 0;
#X connect 13 0 4 1;
#X restore 244 141 pd o1;
#X obj 244 121 tgl 15 0 empty empty empty 0 -6 0 8 -262144 -1 -1 0
1;
#N canvas 708 490 357 288 o1 0;
#X obj 29 28 inlet;
#X obj 29 56 tgl 15 0 empty empty empty 0 -6 0 8 -262144 -1 -1 0 1
;
#X obj 29 78 metro 80;
#X obj 29 105 random 100;
#X obj 29 163 + 20;
#X obj 29 190 mtof;
#X obj 29 219 osc~;
#X obj 30 249 outlet~;
#X obj 88 24 r tempo;
#X floatatom 88 56 5 0 0 0 - - -;
#X obj 177 37 r ambitus;
#X floatatom 177 64 5 0 0 0 - - -;
#X obj 237 94 r offset;
#X floatatom 237 119 5 0 0 0 - - -;
#X connect 0 0 1 0;
#X connect 1 0 2 0;
#X connect 2 0 3 0;
#X connect 3 0 4 0;
#X connect 4 0 5 0;
#X connect 5 0 6 0;
#X connect 6 0 7 0;
#X connect 8 0 9 0;
#X connect 9 0 2 1;
#X connect 10 0 11 0;
#X connect 11 0 3 1;
#X connect 12 0 13 0;
#X connect 13 0 4 1;
#X restore 288 141 pd o1;
#X obj 288 121 tgl 15 0 empty empty empty 0 -6 0 8 -262144 -1 -1 0
1;
#N canvas 708 490 357 288 o1 0;
#X obj 29 28 inlet;
#X obj 29 56 tgl 15 0 empty empty empty 0 -6 0 8 -262144 -1 -1 0 1
;
#X obj 29 78 metro 80;
#X obj 29 105 random 100;
#X obj 29 163 + 20;
#X obj 29 190 mtof;
#X obj 29 219 osc~;
#X obj 30 249 outlet~;
#X obj 88 24 r tempo;
#X floatatom 88 56 5 0 0 0 - - -;
#X obj 177 37 r ambitus;
#X floatatom 177 64 5 0 0 0 - - -;
#X obj 237 94 r offset;
#X floatatom 237 119 5 0 0 0 - - -;
#X connect 0 0 1 0;
#X connect 1 0 2 0;
#X connect 2 0 3 0;
#X connect 3 0 4 0;
#X connect 4 0 5 0;
#X connect 5 0 6 0;
#X connect 6 0 7 0;
#X connect 8 0 9 0;
#X connect 9 0 2 1;
#X connect 10 0 11 0;
#X connect 11 0 3 1;
#X connect 12 0 13 0;
#X connect 13 0 4 1;
#X restore 332 141 pd o1;
#X obj 332 121 tgl 15 0 empty empty empty 0 -6 0 8 -262144 -1 -1 0
1;
#N canvas 708 490 357 288 o1 0;
#X obj 29 28 inlet;
#X obj 29 56 tgl 15 0 empty empty empty 0 -6 0 8 -262144 -1 -1 0 1
;
#X obj 29 78 metro 80;
#X obj 29 105 random 100;
#X obj 29 163 + 20;
#X obj 29 190 mtof;
#X obj 29 219 osc~;
#X obj 30 249 outlet~;
#X obj 88 24 r tempo;
#X floatatom 88 56 5 0 0 0 - - -;
#X obj 177 37 r ambitus;
#X floatatom 177 64 5 0 0 0 - - -;
#X obj 237 94 r offset;
#X floatatom 237 119 5 0 0 0 - - -;
#X connect 0 0 1 0;
#X connect 1 0 2 0;
#X connect 2 0 3 0;
#X connect 3 0 4 0;
#X connect 4 0 5 0;
#X connect 5 0 6 0;
#X connect 6 0 7 0;
#X connect 8 0 9 0;
#X connect 9 0 2 1;
#X connect 10 0 11 0;
#X connect 11 0 3 1;
#X connect 12 0 13 0;
#X connect 13 0 4 1;
#X restore 376 141 pd o1;
#X obj 376 121 tgl 15 0 empty empty empty 0 -6 0 8 -262144 -1 -1 0
1;
#N canvas 708 490 357 288 o1 0;
#X obj 29 28 inlet;
#X obj 29 56 tgl 15 0 empty empty empty 0 -6 0 8 -262144 -1 -1 0 1
;
#X obj 29 78 metro 80;
#X obj 29 105 random 100;
#X obj 29 163 + 20;
#X obj 29 190 mtof;
#X obj 29 219 osc~;
#X obj 30 249 outlet~;
#X obj 88 24 r tempo;
#X floatatom 88 56 5 0 0 0 - - -;
#X obj 177 37 r ambitus;
#X floatatom 177 64 5 0 0 0 - - -;
#X obj 237 94 r offset;
#X floatatom 237 119 5 0 0 0 - - -;
#X connect 0 0 1 0;
#X connect 1 0 2 0;
#X connect 2 0 3 0;
#X connect 3 0 4 0;
#X connect 4 0 5 0;
#X connect 5 0 6 0;
#X connect 6 0 7 0;
#X connect 8 0 9 0;
#X connect 9 0 2 1;
#X connect 10 0 11 0;
#X connect 11 0 3 1;
#X connect 12 0 13 0;
#X connect 13 0 4 1;
#X restore 420 141 pd o1;
#X obj 420 121 tgl 15 0 empty empty empty 0 -6 0 8 -262144 -1 -1 0
1;
#N canvas 708 490 357 288 o1 0;
#X obj 29 28 inlet;
#X obj 29 56 tgl 15 0 empty empty empty 0 -6 0 8 -262144 -1 -1 0 1
;
#X obj 29 78 metro 80;
#X obj 29 105 random 100;
#X obj 29 163 + 20;
#X obj 29 190 mtof;
#X obj 29 219 osc~;
#X obj 30 249 outlet~;
#X obj 88 24 r tempo;
#X floatatom 88 56 5 0 0 0 - - -;
#X obj 177 37 r ambitus;
#X floatatom 177 64 5 0 0 0 - - -;
#X obj 237 94 r offset;
#X floatatom 237 119 5 0 0 0 - - -;
#X connect 0 0 1 0;
#X connect 1 0 2 0;
#X connect 2 0 3 0;
#X connect 3 0 4 0;
#X connect 4 0 5 0;
#X connect 5 0 6 0;
#X connect 6 0 7 0;
#X connect 8 0 9 0;
#X connect 9 0 2 1;
#X connect 10 0 11 0;
#X connect 11 0 3 1;
#X connect 12 0 13 0;
#X connect 13 0 4 1;
#X restore 464 141 pd o1;
#X obj 464 121 tgl 15 0 empty empty empty 0 -6 0 8 -262144 -1 -1 0
1;
#N canvas 708 490 357 288 o1 0;
#X obj 29 28 inlet;
#X obj 29 56 tgl 15 0 empty empty empty 0 -6 0 8 -262144 -1 -1 0 1
;
#X obj 29 78 metro 80;
#X obj 29 105 random 100;
#X obj 29 163 + 20;
#X obj 29 190 mtof;
#X obj 29 219 osc~;
#X obj 30 249 outlet~;
#X obj 88 24 r tempo;
#X floatatom 88 56 5 0 0 0 - - -;
#X obj 177 37 r ambitus;
#X floatatom 177 64 5 0 0 0 - - -;
#X obj 237 94 r offset;
#X floatatom 237 119 5 0 0 0 - - -;
#X connect 0 0 1 0;
#X connect 1 0 2 0;
#X connect 2 0 3 0;
#X connect 3 0 4 0;
#X connect 4 0 5 0;
#X connect 5 0 6 0;
#X connect 6 0 7 0;
#X connect 8 0 9 0;
#X connect 9 0 2 1;
#X connect 10 0 11 0;
#X connect 11 0 3 1;
#X connect 12 0 13 0;
#X connect 13 0 4 1;
#X restore 509 141 pd o1;
#X obj 509 121 tgl 15 0 empty empty empty 0 -6 0 8 -262144 -1 -1 0
1;
#N canvas 708 490 357 288 o1 0;
#X obj 29 28 inlet;
#X obj 29 56 tgl 15 0 empty empty empty 0 -6 0 8 -262144 -1 -1 0 1
;
#X obj 29 78 metro 80;
#X obj 29 105 random 100;
#X obj 29 163 + 20;
#X obj 29 190 mtof;
#X obj 29 219 osc~;
#X obj 30 249 outlet~;
#X obj 88 24 r tempo;
#X floatatom 88 56 5 0 0 0 - - -;
#X obj 177 37 r ambitus;
#X floatatom 177 64 5 0 0 0 - - -;
#X obj 237 94 r offset;
#X floatatom 237 119 5 0 0 0 - - -;
#X connect 0 0 1 0;
#X connect 1 0 2 0;
#X connect 2 0 3 0;
#X connect 3 0 4 0;
#X connect 4 0 5 0;
#X connect 5 0 6 0;
#X connect 6 0 7 0;
#X connect 8 0 9 0;
#X connect 9 0 2 1;
#X connect 10 0 11 0;
#X connect 11 0 3 1;
#X connect 12 0 13 0;
#X connect 13 0 4 1;
#X restore 553 141 pd o1;
#X obj 553 121 tgl 15 0 empty empty empty 0 -6 0 8 -262144 -1 -1 0
1;
#N canvas 708 490 357 288 o1 0;
#X obj 29 28 inlet;
#X obj 29 56 tgl 15 0 empty empty empty 0 -6 0 8 -262144 -1 -1 0 1
;
#X obj 29 78 metro 80;
#X obj 29 105 random 100;
#X obj 29 163 + 20;
#X obj 29 190 mtof;
#X obj 29 219 osc~;
#X obj 30 249 outlet~;
#X obj 88 24 r tempo;
#X floatatom 88 56 5 0 0 0 - - -;
#X obj 177 37 r ambitus;
#X floatatom 177 64 5 0 0 0 - - -;
#X obj 237 94 r offset;
#X floatatom 237 119 5 0 0 0 - - -;
#X connect 0 0 1 0;
#X connect 1 0 2 0;
#X connect 2 0 3 0;
#X connect 3 0 4 0;
#X connect 4 0 5 0;
#X connect 5 0 6 0;
#X connect 6 0 7 0;
#X connect 8 0 9 0;
#X connect 9 0 2 1;
#X connect 10 0 11 0;
#X connect 11 0 3 1;
#X connect 12 0 13 0;
#X connect 13 0 4 1;
#X restore 597 141 pd o1;
#X obj 597 121 tgl 15 0 empty empty empty 0 -6 0 8 -262144 -1 -1 0
1;
#N canvas 708 490 357 288 o1 0;
#X obj 29 28 inlet;
#X obj 29 56 tgl 15 0 empty empty empty 0 -6 0 8 -262144 -1 -1 0 1
;
#X obj 29 78 metro 80;
#X obj 29 105 random 100;
#X obj 29 163 + 20;
#X obj 29 190 mtof;
#X obj 29 219 osc~;
#X obj 30 249 outlet~;
#X obj 88 24 r tempo;
#X floatatom 88 56 5 0 0 0 - - -;
#X obj 177 37 r ambitus;
#X floatatom 177 64 5 0 0 0 - - -;
#X obj 237 94 r offset;
#X floatatom 237 119 5 0 0 0 - - -;
#X connect 0 0 1 0;
#X connect 1 0 2 0;
#X connect 2 0 3 0;
#X connect 3 0 4 0;
#X connect 4 0 5 0;
#X connect 5 0 6 0;
#X connect 6 0 7 0;
#X connect 8 0 9 0;
#X connect 9 0 2 1;
#X connect 10 0 11 0;
#X connect 11 0 3 1;
#X connect 12 0 13 0;
#X connect 13 0 4 1;
#X restore 641 141 pd o1;
#X obj 641 121 tgl 15 0 empty empty empty 0 -6 0 8 -262144 -1 -1 0
1;
#X obj 447 39 s tempo;
#X floatatom 447 16 5 0 0 0 - - -;
#X floatatom 509 16 5 0 0 0 - - -;
#X obj 509 39 s ambitus;
#X floatatom 587 16 5 0 0 0 - - -;
#X obj 587 39 s offset;
#X text 469 -11 try out;
#X text -2 19 3.1.2.2.4. oscillator concert 2;
#X text 412 403 www.pd-tutorial.com;
#X text 424 373 Johannes Kreidler;
#X connect 0 0 2 0;
#X connect 1 0 0 0;
#X connect 2 0 6 0;
#X connect 2 0 6 1;
#X connect 3 0 2 1;
#X connect 4 0 3 0;
#X connect 5 0 4 0;
#X connect 7 0 2 0;
#X connect 8 0 7 0;
#X connect 9 0 2 0;
#X connect 10 0 9 0;
#X connect 11 0 2 0;
#X connect 12 0 11 0;
#X connect 13 0 2 0;
#X connect 14 0 13 0;
#X connect 15 0 2 0;
#X connect 16 0 15 0;
#X connect 17 0 2 0;
#X connect 18 0 17 0;
#X connect 19 0 2 0;
#X connect 20 0 19 0;
#X connect 21 0 2 0;
#X connect 22 0 21 0;
#X connect 23 0 2 0;
#X connect 24 0 23 0;
#X connect 25 0 2 0;
#X connect 26 0 25 0;
#X connect 27 0 2 0;
#X connect 28 0 27 0;
#X connect 29 0 2 0;
#X connect 30 0 29 0;
#X connect 31 0 2 0;
#X connect 32 0 31 0;
#X connect 33 0 2 0;
#X connect 34 0 33 0;
#X connect 35 0 2 0;
#X connect 36 0 35 0;
#X connect 38 0 37 0;
#X connect 39 0 40 0;
#X connect 41 0 42 0;
