#N canvas 693 330 656 482 12;
#X obj 117 78 tgl 15 0 empty empty empty 0 -6 0 8 -262144 -1 -1 0 1
;
#X obj 117 101 metro 500;
#X obj 117 128 t b b;
#X obj 117 155 random 20;
#X obj 117 182 + 70;
#X floatatom 117 213 5 0 0 0 - - -;
#X obj 117 240 + 0;
#X obj 218 167 random;
#X obj 218 193 / 100;
#X obj 261 134 line;
#X floatatom 117 270 5 0 0 0 - - -;
#X obj 117 293 mtof;
#X obj 117 325 osc~;
#X obj 117 354 *~ 0.7;
#X obj 116 390 dac~;
#X msg 261 107 0 \, 100 30000;
#X text 26 16 3.1.1.2.1. random offset;
#X text 113 52 start here first;
#X text 259 80 then initiate detuning here;
#X text 365 385 www.pd-tutorial.com;
#X text 376 364 Johannes Kreidler;
#X connect 0 0 1 0;
#X connect 1 0 2 0;
#X connect 2 0 3 0;
#X connect 2 1 7 0;
#X connect 3 0 4 0;
#X connect 4 0 5 0;
#X connect 5 0 6 0;
#X connect 6 0 10 0;
#X connect 7 0 8 0;
#X connect 8 0 6 1;
#X connect 9 0 7 1;
#X connect 10 0 11 0;
#X connect 11 0 12 0;
#X connect 12 0 13 0;
#X connect 13 0 14 0;
#X connect 13 0 14 1;
#X connect 15 0 9 0;
