#N canvas 439 420 905 537 12;
#X floatatom 73 96 5 0 0 0 - - -;
#X obj 73 124 expr $f2 * pow(2 \, ($f1/12));
#X floatatom 117 216 5 0 0 0 - - -;
#X floatatom 367 52 5 0 0 0 - - -;
#X floatatom 441 96 5 0 0 0 - - -;
#X obj 383 136 *;
#X floatatom 370 211 5 0 0 0 - - -;
#X obj 117 286 ftom;
#X floatatom 117 317 5 0 0 0 - - -;
#X obj 370 273 ftom;
#X floatatom 370 304 5 0 0 0 - - -;
#X obj 270 358 -;
#X obj 270 385 * 100;
#X floatatom 270 412 5 0 0 0 - - -;
#X text 2 -11 3.2.2.3. natural vs. equal-tempered;
#X text 368 24 Fundamental;
#X text 442 70 Distance in partials;
#X text 44 66 Distance in chromatic half-steps;
#X text 129 187 Frequency;
#X text 386 187 Frequency;
#X text 418 272 Conversion to MIDI numbers;
#X text 630 136 order of input:;
#X text 577 160 Fundamental \, Distance in partials \,;
#X text 607 186 Distance in chromatic half-steps;
#X text 321 357 Difference;
#X text 323 386 Conversion to Cents;
#X text 574 448 www.pd-tutorial.com;
#X text 584 418 Johannes Kreidler;
#X connect 0 0 1 0;
#X connect 1 0 2 0;
#X connect 2 0 7 0;
#X connect 3 0 1 1;
#X connect 3 0 5 1;
#X connect 4 0 5 0;
#X connect 5 0 6 0;
#X connect 6 0 9 0;
#X connect 7 0 8 0;
#X connect 8 0 11 0;
#X connect 9 0 10 0;
#X connect 10 0 11 1;
#X connect 11 0 12 0;
#X connect 12 0 13 0;
