#N canvas 303 549 1050 542 12;
#X obj 239 379 *~;
#X obj 239 410 dac~;
#X obj -15 128 * 1;
#X floatatom -15 153 5 0 0 0 - - -;
#X obj -15 174 osc~;
#X obj -15 277 *~;
#X obj 33 133 random 100;
#X obj 33 160 / 100;
#X floatatom 33 185 5 0 0 0 - - -;
#X floatatom 123 153 5 0 0 0 - - -;
#X obj 123 174 osc~;
#X obj 123 277 *~;
#X obj 171 133 random 100;
#X obj 171 160 / 100;
#X floatatom 171 185 5 0 0 0 - - -;
#X floatatom 258 153 5 0 0 0 - - -;
#X obj 258 174 osc~;
#X obj 258 277 *~;
#X obj 306 133 random 100;
#X obj 306 160 / 100;
#X floatatom 306 185 5 0 0 0 - - -;
#X floatatom 396 153 5 0 0 0 - - -;
#X obj 396 174 osc~;
#X obj 396 277 *~;
#X obj 444 133 random 100;
#X obj 444 160 / 100;
#X floatatom 444 185 5 0 0 0 - - -;
#X floatatom 533 152 5 0 0 0 - - -;
#X obj 533 173 osc~;
#X obj 533 276 *~;
#X obj 581 132 random 100;
#X obj 581 159 / 100;
#X floatatom 581 184 5 0 0 0 - - -;
#X floatatom 668 152 5 0 0 0 - - -;
#X obj 668 173 osc~;
#X obj 668 276 *~;
#X obj 716 132 random 100;
#X obj 716 159 / 100;
#X floatatom 716 184 5 0 0 0 - - -;
#X floatatom 806 152 5 0 0 0 - - -;
#X obj 806 173 osc~;
#X obj 806 276 *~;
#X obj 854 132 random 100;
#X obj 854 159 / 100;
#X floatatom 854 184 5 0 0 0 - - -;
#X obj 123 128 * 2;
#X obj 258 128 * 3;
#X obj 396 128 * 4;
#X obj 533 127 * 5;
#X obj 668 127 * 6;
#X obj 806 127 * 7;
#X floatatom 76 67 5 0 0 0 - - -;
#X obj 865 77 bng 15 250 50 0 empty empty empty 0 -6 0 8 -262144 -1
-1;
#X floatatom 445 348 5 0 0 0 - - -;
#X obj 33 235 line~;
#X msg 33 210 \$1 3000;
#X obj 171 239 line~;
#X msg 171 214 \$1 3000;
#X obj 306 234 line~;
#X msg 306 209 \$1 3000;
#X obj 444 238 line~;
#X msg 444 213 \$1 3000;
#X obj 581 233 line~;
#X msg 581 208 \$1 3000;
#X obj 716 237 line~;
#X msg 716 212 \$1 3000;
#X obj 854 236 line~;
#X msg 854 211 \$1 3000;
#X text -2 19 3.2.2.2. color change;
#X text 129 65 Fundamental;
#X text 890 73 another color;
#X text 497 464 www.pd-tutorial.com;
#X text 503 437 Johannes Kreidler;
#X connect 0 0 1 0;
#X connect 0 0 1 1;
#X connect 2 0 3 0;
#X connect 3 0 4 0;
#X connect 4 0 5 0;
#X connect 5 0 0 0;
#X connect 6 0 7 0;
#X connect 7 0 8 0;
#X connect 8 0 55 0;
#X connect 9 0 10 0;
#X connect 10 0 11 0;
#X connect 11 0 0 0;
#X connect 12 0 13 0;
#X connect 13 0 14 0;
#X connect 14 0 57 0;
#X connect 15 0 16 0;
#X connect 16 0 17 0;
#X connect 17 0 0 0;
#X connect 18 0 19 0;
#X connect 19 0 20 0;
#X connect 20 0 59 0;
#X connect 21 0 22 0;
#X connect 22 0 23 0;
#X connect 23 0 0 0;
#X connect 24 0 25 0;
#X connect 25 0 26 0;
#X connect 26 0 61 0;
#X connect 27 0 28 0;
#X connect 28 0 29 0;
#X connect 29 0 0 0;
#X connect 30 0 31 0;
#X connect 31 0 32 0;
#X connect 32 0 63 0;
#X connect 33 0 34 0;
#X connect 34 0 35 0;
#X connect 35 0 0 0;
#X connect 36 0 37 0;
#X connect 37 0 38 0;
#X connect 38 0 65 0;
#X connect 39 0 40 0;
#X connect 40 0 41 0;
#X connect 41 0 0 0;
#X connect 42 0 43 0;
#X connect 43 0 44 0;
#X connect 44 0 67 0;
#X connect 45 0 9 0;
#X connect 46 0 15 0;
#X connect 47 0 21 0;
#X connect 48 0 27 0;
#X connect 49 0 33 0;
#X connect 50 0 39 0;
#X connect 51 0 2 0;
#X connect 51 0 45 0;
#X connect 51 0 46 0;
#X connect 51 0 47 0;
#X connect 51 0 48 0;
#X connect 51 0 49 0;
#X connect 51 0 50 0;
#X connect 52 0 6 0;
#X connect 52 0 12 0;
#X connect 52 0 18 0;
#X connect 52 0 24 0;
#X connect 52 0 30 0;
#X connect 52 0 36 0;
#X connect 52 0 42 0;
#X connect 53 0 0 1;
#X connect 54 0 5 1;
#X connect 55 0 54 0;
#X connect 56 0 11 1;
#X connect 57 0 56 0;
#X connect 58 0 17 1;
#X connect 59 0 58 0;
#X connect 60 0 23 1;
#X connect 61 0 60 0;
#X connect 62 0 29 1;
#X connect 63 0 62 0;
#X connect 64 0 35 1;
#X connect 65 0 64 0;
#X connect 66 0 41 1;
#X connect 67 0 66 0;
