#N canvas 478 563 1069 505 12;
#X obj 300 53 bng 15 250 50 0 empty empty empty 0 -6 0 8 -262144 -1
-1;
#X obj -9 140 noise~;
#X obj -10 218 bp~ 0 50;
#X obj 19 171 random 10000;
#X floatatom 19 197 5 0 0 0 - - -;
#X obj 66 133 bng 15 250 50 0 empty empty empty 0 -6 0 8 -262144 -1
-1;
#X obj 119 140 noise~;
#X obj 118 218 bp~ 0 50;
#X obj 147 171 random 10000;
#X floatatom 147 197 5 0 0 0 - - -;
#X obj 194 133 bng 15 250 50 0 empty empty empty 0 -6 0 8 -262144 -1
-1;
#X obj 247 138 noise~;
#X obj 246 216 bp~ 0 50;
#X obj 275 169 random 10000;
#X floatatom 275 195 5 0 0 0 - - -;
#X obj 322 131 bng 15 250 50 0 empty empty empty 0 -6 0 8 -262144 -1
-1;
#X obj 375 138 noise~;
#X obj 374 216 bp~ 0 50;
#X obj 403 169 random 10000;
#X floatatom 403 195 5 0 0 0 - - -;
#X obj 450 131 bng 15 250 50 0 empty empty empty 0 -6 0 8 -262144 -1
-1;
#X obj 503 133 noise~;
#X obj 502 211 bp~ 0 50;
#X obj 531 164 random 10000;
#X floatatom 531 190 5 0 0 0 - - -;
#X obj 578 126 bng 15 250 50 0 empty empty empty 0 -6 0 8 -262144 -1
-1;
#X obj 631 133 noise~;
#X obj 630 211 bp~ 0 50;
#X obj 659 164 random 10000;
#X floatatom 659 190 5 0 0 0 - - -;
#X obj 706 126 bng 15 250 50 0 empty empty empty 0 -6 0 8 -262144 -1
-1;
#X obj 759 131 noise~;
#X obj 758 209 bp~ 0 50;
#X obj 787 162 random 10000;
#X floatatom 787 188 5 0 0 0 - - -;
#X obj 834 124 bng 15 250 50 0 empty empty empty 0 -6 0 8 -262144 -1
-1;
#X obj 887 131 noise~;
#X obj 886 209 bp~ 0 50;
#X obj 915 162 random 10000;
#X floatatom 915 188 5 0 0 0 - - -;
#X obj 962 124 bng 15 250 50 0 empty empty empty 0 -6 0 8 -262144 -1
-1;
#X obj 374 352 *~;
#X floatatom 500 330 5 0 0 0 - - -;
#X obj 373 379 dac~;
#X text 2 -11 3.3.2.1. Filter Colors;
#X text 328 50 new color;
#X text 701 412 www.pd-tutorial.com;
#X text 710 385 Johannes Kreidler;
#X connect 0 0 5 0;
#X connect 0 0 10 0;
#X connect 0 0 15 0;
#X connect 0 0 20 0;
#X connect 0 0 25 0;
#X connect 0 0 30 0;
#X connect 0 0 35 0;
#X connect 0 0 40 0;
#X connect 1 0 2 0;
#X connect 2 0 41 0;
#X connect 3 0 4 0;
#X connect 4 0 2 1;
#X connect 5 0 3 0;
#X connect 6 0 7 0;
#X connect 7 0 41 0;
#X connect 8 0 9 0;
#X connect 9 0 7 1;
#X connect 10 0 8 0;
#X connect 11 0 12 0;
#X connect 12 0 41 0;
#X connect 13 0 14 0;
#X connect 14 0 12 1;
#X connect 15 0 13 0;
#X connect 16 0 17 0;
#X connect 17 0 41 0;
#X connect 18 0 19 0;
#X connect 19 0 17 1;
#X connect 20 0 18 0;
#X connect 21 0 22 0;
#X connect 22 0 41 0;
#X connect 23 0 24 0;
#X connect 24 0 22 1;
#X connect 25 0 23 0;
#X connect 26 0 27 0;
#X connect 27 0 41 0;
#X connect 28 0 29 0;
#X connect 29 0 27 1;
#X connect 30 0 28 0;
#X connect 31 0 32 0;
#X connect 32 0 41 0;
#X connect 33 0 34 0;
#X connect 34 0 32 1;
#X connect 35 0 33 0;
#X connect 36 0 37 0;
#X connect 37 0 41 0;
#X connect 38 0 39 0;
#X connect 39 0 37 1;
#X connect 40 0 38 0;
#X connect 41 0 43 0;
#X connect 41 0 43 1;
#X connect 42 0 41 1;
