#N canvas 520 326 605 658 12;
#N canvas 0 0 450 300 graph1 0;
#X array array1 20 float 2;
#X coords 0 1 19 -1 200 140 1;
#X restore 351 70 graph;
#X obj 95 130 osc~;
#X floatatom 95 96 5 0 0 0 - - -;
#X obj 94 177 *~;
#X floatatom 151 134 5 0 0 0 - - -;
#X obj 94 221 tabwrite~ array1;
#X obj 190 180 bng 15 250 50 0 empty empty empty 0 -6 0 8 -262144 -1
-1;
#N canvas 0 0 450 300 graph1 0;
#X array array2 20 float 2;
#X coords 0 1 19 -1 200 140 1;
#X restore 350 229 graph;
#N canvas 0 0 450 300 graph1 0;
#X array array3 20 float 2;
#X coords 0 1 19 -1 200 140 1;
#X restore 351 390 graph;
#X obj 69 261 z~ 1;
#X obj 14 333 +~;
#X obj 15 372 tabwrite~ array3;
#X obj 98 298 tabwrite~ array2;
#X text 2 -11 3.2.3.1. how digital filters work;
#X text 191 161 show array;
#X text 120 263 shift by 1 sample;
#X text 52 328 this addition causes the signals;
#X text 49 345 to cancel each other out;
#X text 341 595 www.pd-tutorial.com;
#X text 343 566 Johannes Kreidler;
#X connect 1 0 3 0;
#X connect 2 0 1 0;
#X connect 3 0 5 0;
#X connect 3 0 9 0;
#X connect 3 0 10 0;
#X connect 4 0 3 1;
#X connect 6 0 5 0;
#X connect 6 0 12 0;
#X connect 6 0 11 0;
#X connect 9 0 10 1;
#X connect 9 0 12 0;
#X connect 10 0 11 0;
