#N canvas 478 563 424 430 12;
#X obj 90 246 *~;
#X floatatom 216 224 5 0 0 0 - - -;
#X obj 89 273 dac~;
#X obj 89 52 adc~;
#X obj 88 88 lop~ 3000;
#X obj 89 116 lop~ 3000;
#X obj 89 146 hip~ 300;
#X obj 89 173 hip~ 300;
#X text 2 -11 3.3.2.2. telephone filter;
#X text 205 305 www.pd-tutorial.com;
#X text 210 279 Johannes Kreidler;
#X connect 0 0 2 0;
#X connect 0 0 2 1;
#X connect 1 0 0 1;
#X connect 3 0 4 0;
#X connect 3 1 4 0;
#X connect 4 0 5 0;
#X connect 5 0 6 0;
#X connect 6 0 7 0;
#X connect 7 0 0 0;
