#N canvas 782 98 483 687 12;
#X obj 80 532 hip~ 5;
#X obj 79 574 dac~;
#X obj 78 500 *~;
#X floatatom 128 472 5 0 0 0 - - -;
#X obj 42 133 adc~;
#X obj 43 173 delwrite~ buff1 10000;
#X obj 79 287 sig~;
#X floatatom 79 260 5 0 0 0 - - -;
#X obj 79 317 vd~ buff1;
#X obj 79 400 *~;
#X floatatom 109 377 5 0 0 0 - - -;
#X msg 109 347 0.99;
#X text 40 18 3.4.2.5. Loop Generator 2;
#X text 79 237 loop duration;
#X text 162 340 security potentiometer:;
#X text 163 358 no higher than 1!;
#X text 182 470 total volume;
#X text 254 611 www.pd-tutorial.com;
#X text 260 587 Johannes Kreidler;
#X connect 0 0 1 0;
#X connect 0 0 1 1;
#X connect 2 0 0 0;
#X connect 3 0 2 1;
#X connect 4 0 5 0;
#X connect 4 1 5 0;
#X connect 6 0 8 0;
#X connect 7 0 6 0;
#X connect 8 0 9 0;
#X connect 9 0 5 0;
#X connect 9 0 2 0;
#X connect 10 0 9 1;
#X connect 11 0 10 0;
