#N canvas 782 98 443 637 12;
#X obj 55 427 *~;
#X floatatom 83 401 5 0 0 0 - - -;
#X obj 54 468 dac~;
#X obj 54 140 *~ 100;
#X obj 54 173 clip~ 0.75 1.25;
#X obj 54 100 phasor~ 350;
#X obj 55 208 cos~;
#X obj 69 240 delwrite~ buff 1000;
#X obj 55 367 +~;
#X obj 98 342 vd~ buff;
#X obj 98 315 sig~;
#X floatatom 98 290 5 0 0 0 - - -;
#X text 44 38 3.4.2.8. comb filter;
#X text 132 402 total volume;
#X text 95 268 delay (ms);
#X text 213 576 www.pd-tutorial.com;
#X text 216 545 Johannes Kreidler;
#X connect 0 0 2 0;
#X connect 0 0 2 1;
#X connect 1 0 0 1;
#X connect 3 0 4 0;
#X connect 4 0 6 0;
#X connect 5 0 3 0;
#X connect 6 0 7 0;
#X connect 6 0 8 0;
#X connect 8 0 0 0;
#X connect 9 0 8 1;
#X connect 10 0 9 0;
#X connect 11 0 10 0;
