#N canvas 520 326 581 423 12;
#N canvas 0 0 450 300 graph1 0;
#X array array1 44100 float 2;
#X coords 0 1 44100 -1 200 140 1;
#X restore 351 70 graph;
#X obj 38 105 osc~ 4;
#X obj 39 136 *~ 0.1;
#X obj 38 195 tabwrite~ array1;
#X obj 121 160 bng 15 250 50 0 empty empty empty 0 -6 0 8 -262144 -1
-1;
#X msg 36 261 \; array1 normalize;
#X text 2 -11 3.4.1.1.2. normalize;
#X text 106 132 a quiet recording;
#X text 147 161 write;
#X text 179 265 and then normalize;
#X text 352 224 (array has 44100 points);
#X text 365 385 www.pd-tutorial.com;
#X text 379 363 Johannes Kreidler;
#X connect 1 0 2 0;
#X connect 2 0 3 0;
#X connect 4 0 3 0;
