#N canvas 782 98 584 665 12;
#X obj 131 169 bng 15 250 50 0 empty empty empty 0 -6 0 8 -262144 -1
-1;
#X obj 203 149 loadbang;
#X msg 203 177 14;
#X floatatom 203 205 5 0 0 0 - - -;
#X obj 164 239 del;
#X msg 131 265 1;
#X msg 164 265 0;
#X text 128 147 start;
#X obj 43 269 noise~;
#X obj 44 338 *~;
#X obj 224 296 vd~ buffer 100;
#X obj 103 476 *~ 0.99;
#X floatatom 170 452 5 0 0 0 - - -;
#X obj 103 522 dac~;
#X obj 43 579 delwrite~ buffer 1000;
#X obj 224 339 *~ 0.5;
#X obj 311 328 z~ 1;
#X obj 312 355 *~ 0.5;
#X obj 225 392 +~;
#X text 44 38 3.4.2.10. Karplus Strong 2;
#X text 367 325 Delay by 1 Sample;
#X text 369 371 calculates average;
#X text 219 451 damping factor (between 0 and 1);
#X text 378 618 www.pd-tutorial.com;
#X text 389 589 Johannes Kreidler;
#X connect 0 0 4 0;
#X connect 0 0 5 0;
#X connect 1 0 2 0;
#X connect 2 0 3 0;
#X connect 3 0 4 1;
#X connect 3 0 10 0;
#X connect 4 0 6 0;
#X connect 5 0 9 1;
#X connect 6 0 9 1;
#X connect 8 0 9 0;
#X connect 9 0 14 0;
#X connect 10 0 15 0;
#X connect 10 0 16 0;
#X connect 11 0 13 0;
#X connect 11 0 13 1;
#X connect 11 0 14 0;
#X connect 12 0 11 1;
#X connect 15 0 18 0;
#X connect 16 0 17 0;
#X connect 17 0 18 1;
#X connect 18 0 11 0;
