#N canvas 782 98 543 647 12;
#X obj 131 169 bng 15 250 50 0 empty empty empty 0 -6 0 8 -262144 -1
-1;
#X obj 203 149 loadbang;
#X msg 203 177 14;
#X floatatom 203 205 5 0 0 0 - - -;
#X obj 164 239 del;
#X msg 131 265 1;
#X msg 164 265 0;
#X text 128 147 start;
#X obj 43 269 noise~;
#X obj 44 338 *~;
#X obj 224 296 vd~ buffer 100;
#X obj 105 416 *~ 0.99;
#X floatatom 172 392 5 0 0 0 - - -;
#X obj 105 462 dac~;
#X obj 45 519 delwrite~ buffer 1000;
#X text 44 38 3.4.2.10. Karplus Strong 1;
#X text 221 393 damping factor (between 0 and 1);
#X text 252 198 size of the noise input;
#X text 307 606 www.pd-tutorial.com;
#X text 315 580 Johannes Kreidler;
#X connect 0 0 4 0;
#X connect 0 0 5 0;
#X connect 1 0 2 0;
#X connect 2 0 3 0;
#X connect 3 0 4 1;
#X connect 3 0 10 0;
#X connect 4 0 6 0;
#X connect 5 0 9 1;
#X connect 6 0 9 1;
#X connect 8 0 9 0;
#X connect 9 0 14 0;
#X connect 10 0 11 0;
#X connect 11 0 13 0;
#X connect 11 0 13 1;
#X connect 11 0 14 0;
#X connect 12 0 11 1;
