#N canvas 782 98 818 992 12;
#N canvas 0 0 450 300 graph1 0;
#X array array1 62079 float 2;
#X coords 0 1 62079 -1 200 140 1;
#X restore 446 237 graph;
#X obj 47 100 openpanel;
#X obj 47 76 bng 15 250 50 0 empty empty empty 0 -6 0 8 -262144 -1
-1;
#X obj 47 152 soundfiler;
#X msg 47 126 read -resize \$1 array1;
#X obj 47 190 expr 44100 / $f1;
#X floatatom 47 350 5 0 0 0 - - -;
#X obj 47 445 phasor~;
#X obj 447 385 hsl 200 15 0 1 0 0 empty empty empty -2 -6 0 8 -262144
-1 -1 8779 1;
#X text 445 408 0;
#X text 645 405 1;
#X obj 48 662 tabread4~ array1;
#X obj 82 744 line~;
#X msg 82 718 \$1 20;
#X floatatom 82 691 5 0 0 0 - - -;
#X obj 47 772 *~;
#X obj 48 804 hip~ 5;
#X obj 48 834 dac~;
#X obj 47 418 *;
#X obj 157 295 hsl 128 15 -2 2 0 0 empty empty empty -2 -6 0 8 -262144
-1 -1 11400 1;
#X text 144 312 -2;
#X text 282 313 2;
#X obj 444 203 hsl 200 15 0 1 0 0 empty empty empty -2 -6 0 8 -262144
-1 -1 13800 1;
#X obj 443 169 hsl 200 15 0 1 0 0 empty empty empty -2 -6 0 8 -262144
-1 -1 6600 1;
#X obj 48 546 +~;
#X obj 198 439 -;
#X floatatom 198 405 5 0 0 0 - - -;
#X obj 266 401 t f b;
#X obj 47 626 *~;
#X obj 77 229 expr 1 / $f1;
#X obj 77 280 *;
#X obj 125 590 unsig~ 20;
#X text 439 143 0;
#X text 638 143 1;
#X text 40 17 3.4.2.3. any position;
#X text 70 73 first load sound file;
#X text 353 164 left limit;
#X text 657 200 right limit;
#X text 456 432 slider shows playing position;
#X text 243 436 difference of both (;
#X text 240 455 always calculated \, not;
#X text 239 498 input on the left);
#X text 138 690 volume;
#X text 115 801 DC offset filter;
#X text 513 896 www.pd-tutorial.com;
#X text 523 863 Johannes Kreidler;
#X obj 84 318 t b f;
#X obj 48 509 *~;
#X text 236 472 only if there is an;
#X text 153 271 playback speed;
#X connect 1 0 4 0;
#X connect 2 0 1 0;
#X connect 3 0 5 0;
#X connect 3 0 28 1;
#X connect 4 0 3 0;
#X connect 5 0 30 1;
#X connect 6 0 18 0;
#X connect 7 0 47 0;
#X connect 11 0 15 0;
#X connect 12 0 15 1;
#X connect 13 0 12 0;
#X connect 14 0 13 0;
#X connect 15 0 16 0;
#X connect 16 0 17 0;
#X connect 16 0 17 1;
#X connect 18 0 7 0;
#X connect 19 0 46 0;
#X connect 22 0 26 0;
#X connect 23 0 27 0;
#X connect 24 0 28 0;
#X connect 24 0 31 0;
#X connect 25 0 29 0;
#X connect 25 0 47 1;
#X connect 26 0 25 0;
#X connect 27 0 25 1;
#X connect 27 0 24 1;
#X connect 27 1 26 0;
#X connect 28 0 11 0;
#X connect 29 0 30 0;
#X connect 30 0 6 0;
#X connect 31 0 8 0;
#X connect 46 0 6 0;
#X connect 46 1 18 1;
#X connect 47 0 24 0;
