#N canvas 520 326 593 435 12;
#X obj 52 325 dac~;
#X obj 52 282 *~ 0.7;
#X obj 52 250 tabread~ array1;
#N canvas 0 0 450 300 graph2 0;
#X array array1 66150 float 2;
#X coords 0 1 66150 -1 200 140 1;
#X restore 323 73 graph;
#X obj 71 86 soundfiler;
#X msg 71 57 read voice.wav array1;
#X obj 51 215 line~;
#X msg 51 184 0 \, 66100 1500;
#X text 45 18 3.4.1.2. read array 2;
#X text 365 385 www.pd-tutorial.com;
#X text 370 361 Johannes Kreidler;
#X connect 1 0 0 0;
#X connect 1 0 0 1;
#X connect 2 0 1 0;
#X connect 5 0 4 0;
#X connect 6 0 2 0;
#X connect 7 0 6 0;
