#N canvas 655 197 801 540 12;
#N canvas 0 0 450 300 graph1 0;
#X array waveform13 11 float 1;
#A 0 1 1 1 1 1 1 1 -1 -1 -1 -1;
#X coords 0 1.02 10 -1.02 180 130 1;
#X restore 375 70 graph;
#X obj 109 188 +~ 1;
#N canvas 0 0 450 300 graph3 0;
#X array wave-out13 441 float 0;
#X coords 0 1.02 440 -1.02 300 140 1;
#X restore 376 263 graph;
#X msg 130 247 bang;
#X obj 109 278 tabwrite~ wave-out13;
#X obj 109 215 tabread4~ waveform13;
#X obj 109 162 *~ 8;
#X obj 109 126 phasor~ 220;
#X text 36 22 3.4.4.1. 4-Point-Interpolation;
#X text 176 248 graph;
#X text 497 496 www.pd-tutorial.com;
#X text 502 470 Johannes Kreidler;
#X connect 1 0 5 0;
#X connect 3 0 4 0;
#X connect 5 0 4 0;
#X connect 6 0 1 0;
#X connect 7 0 6 0;
