#N canvas 520 326 752 520 12;
#N canvas 0 0 450 300 graph2 0;
#X array array1 10 float 3;
#A 0 0.694449 0.551377 -0.323564 -0.49 0.214382 0.464083 0.265588 -0.235513
0.482824 0.471892;
#X coords 0 1 10 -1 200 140 1;
#X restore 323 73 graph;
#X msg 321 304 \; array1 xticks 0 1 5 \; array1 yticks -1 1 1 \; array1
xlabel -1.1 0 1 2 3 4 5 6 7 8 9 \; array1 ylabel -0.7 -1 0 1;
#X obj 321 276 loadbang;
#X floatatom 81 127 5 0 0 0 - - -;
#X obj 81 166 tabread array1;
#X floatatom 81 194 5 0 0 0 - - -;
#X text 45 18 3.4.1.2. read array 1;
#X text 434 479 www.pd-tutorial.com;
#X text 445 453 Johannes Kreidler;
#X connect 2 0 1 0;
#X connect 3 0 4 0;
#X connect 4 0 5 0;
