#N canvas 674 218 922 812 12;
#X msg 26 115 \; array1 sinesum 64 0.2 0.2 0.2 0.2;
#N canvas 0 0 450 300 graph4 0;
#X array array1 67 float 0;
#X coords 0 1 66 -1 200 140 1;
#X restore 28 174 graph;
#X obj 423 286 * 1;
#X obj 423 314 osc~;
#X obj 423 345 *~ 0.2;
#X obj 448 379 +~;
#X obj 487 313 osc~;
#X obj 487 344 *~ 0.2;
#X obj 487 286 * 2;
#X obj 542 313 osc~;
#X obj 542 344 *~ 0.2;
#X obj 567 378 +~;
#X obj 606 312 osc~;
#X obj 606 343 *~ 0.2;
#X obj 542 286 * 3;
#X obj 606 285 * 4;
#X floatatom 500 219 5 0 0 0 - - -;
#N canvas 0 0 450 300 graph5 0;
#X array array2 64 float 0;
#X coords 0 1 63 -1 200 140 1;
#X restore 405 521 graph;
#X obj 497 421 +~;
#X obj 497 450 tabwrite~ array2;
#X msg 677 285 0.75;
#X obj 670 243 bng 15 250 50 0 empty empty empty 0 -6 0 8 -262144 -1
-1;
#X text 110 27 3.4.3.5. Additive Synthesis with Array;
#X text 267 226 corresponds to:;
#X text 446 192 any fundamental;
#X text 660 218 graph;
#X text 683 311 phase synchronization;
#X text 661 740 www.pd-tutorial.com;
#X text 676 716 Johannes Kreidler;
#X connect 2 0 3 0;
#X connect 3 0 4 0;
#X connect 4 0 5 0;
#X connect 5 0 18 0;
#X connect 6 0 7 0;
#X connect 7 0 5 1;
#X connect 8 0 6 0;
#X connect 9 0 10 0;
#X connect 10 0 11 0;
#X connect 11 0 18 1;
#X connect 12 0 13 0;
#X connect 13 0 11 1;
#X connect 14 0 9 0;
#X connect 15 0 12 0;
#X connect 16 0 2 0;
#X connect 16 0 8 0;
#X connect 16 0 14 0;
#X connect 16 0 15 0;
#X connect 18 0 19 0;
#X connect 20 0 12 1;
#X connect 20 0 9 1;
#X connect 20 0 6 1;
#X connect 20 0 3 1;
#X connect 21 0 20 0;
#X connect 21 0 19 0;
