#N canvas 603 101 711 540 12;
#X obj 115 148 delwrite~ platz 3000;
#X obj 115 108 osc~;
#X floatatom 115 79 5 0 0 0 - - -;
#X obj 114 204 delread~ platz 2500;
#X obj 114 300 dac~;
#X obj 115 265 *~;
#X floatatom 149 242 5 0 0 0 - - -;
#X obj 325 340 dac~;
#X obj 326 305 *~;
#X floatatom 360 282 5 0 0 0 - - -;
#X obj 325 244 vd~ platz;
#X obj 325 217 sig~;
#X floatatom 325 195 5 0 0 0 - - -;
#X text 45 18 3.4.1.3. delay;
#X text 176 79 change pitch here;
#X text 375 194 change length of delay here;
#X text 419 450 www.pd-tutorial.com;
#X text 431 424 Johannes Kreidler;
#X connect 1 0 0 0;
#X connect 2 0 1 0;
#X connect 3 0 5 0;
#X connect 5 0 4 0;
#X connect 5 0 4 1;
#X connect 6 0 5 1;
#X connect 8 0 7 0;
#X connect 8 0 7 1;
#X connect 9 0 8 1;
#X connect 10 0 8 0;
#X connect 11 0 10 0;
#X connect 12 0 11 0;
