#N canvas 782 98 756 733 12;
#X obj 47 92 tgl 15 0 empty empty empty 0 -6 0 8 -262144 -1 -1 0 1
;
#X obj 47 120 metro 200;
#X obj 47 152 random 2000;
#X obj 47 184 + 400;
#X msg 47 220 \$1 200;
#X obj 47 253 line~;
#X obj 47 285 osc~;
#X obj 47 329 delwrite~ buff1 10000;
#X obj 93 414 sig~;
#X floatatom 93 390 5 0 0 0 - - -;
#X obj 94 444 vd~ buff1;
#X obj 93 496 *~;
#X floatatom 114 474 5 0 0 0 - - -;
#X obj 235 413 sig~;
#X floatatom 235 389 5 0 0 0 - - -;
#X obj 236 443 vd~ buff1;
#X obj 235 495 *~;
#X floatatom 256 473 5 0 0 0 - - -;
#X obj 376 414 sig~;
#X floatatom 376 390 5 0 0 0 - - -;
#X obj 377 444 vd~ buff1;
#X obj 376 496 *~;
#X floatatom 397 474 5 0 0 0 - - -;
#X obj 518 413 sig~;
#X floatatom 518 389 5 0 0 0 - - -;
#X obj 519 443 vd~ buff1;
#X obj 518 495 *~;
#X floatatom 539 473 5 0 0 0 - - -;
#X obj 93 607 *~;
#X floatatom 345 574 5 0 0 0 - - -;
#X obj 92 635 hip~ 5;
#X obj 93 668 dac~;
#X text 44 38 3.4.2.7. Texture;
#X text 99 285 instead of microphone input;
#X text 91 369 loop duration;
#X text 232 366 loop duration;
#X text 374 366 loop duration;
#X text 518 365 loop duration;
#X text 395 576 total volume;
#X text 512 679 www.pd-tutorial.com;
#X text 511 652 Johannes Kreidler;
#X connect 0 0 1 0;
#X connect 1 0 2 0;
#X connect 2 0 3 0;
#X connect 3 0 4 0;
#X connect 4 0 5 0;
#X connect 5 0 6 0;
#X connect 6 0 7 0;
#X connect 8 0 10 0;
#X connect 9 0 8 0;
#X connect 10 0 11 0;
#X connect 11 0 28 0;
#X connect 11 0 7 0;
#X connect 12 0 11 1;
#X connect 13 0 15 0;
#X connect 14 0 13 0;
#X connect 15 0 16 0;
#X connect 16 0 28 0;
#X connect 16 0 7 0;
#X connect 17 0 16 1;
#X connect 18 0 20 0;
#X connect 19 0 18 0;
#X connect 20 0 21 0;
#X connect 21 0 28 0;
#X connect 21 0 7 0;
#X connect 22 0 21 1;
#X connect 23 0 25 0;
#X connect 24 0 23 0;
#X connect 25 0 26 0;
#X connect 26 0 28 0;
#X connect 26 0 7 0;
#X connect 27 0 26 1;
#X connect 28 0 30 0;
#X connect 29 0 28 1;
#X connect 30 0 31 0;
#X connect 30 0 31 1;
