#N canvas 520 326 593 435 12;
#N canvas 0 0 450 300 graph1 0;
#X array array1 100 float 2;
#X coords 0 1 100 -1 200 140 1;
#X restore 351 70 graph;
#X obj 174 154 + 1;
#X obj 174 125 f;
#X msg 209 91 -1;
#X obj 174 30 bng 15 250 50 0 empty empty empty 0 -6 0 8 -262144 -1
-1;
#X obj 242 139 sel 100;
#X floatatom 174 283 5 0 0 0 - - -;
#X obj 59 253 / 100;
#X obj 59 288 *;
#X obj 59 328 tabwrite array1;
#X obj 174 57 t b b;
#X obj 212 193 bng 15 250 50 0 empty empty empty 0 -6 0 8 -262144 -1
-1;
#X obj 205 229 spigot;
#X msg 238 198 1;
#X msg 276 197 0;
#X text 2 -11 3.4.1.1.2. function 2;
#X text 352 224 (array has 100 points);
#X text 365 385 www.pd-tutorial.com;
#X text 370 362 Johannes Kreidler;
#X obj 125 210 t f f;
#X connect 1 0 2 1;
#X connect 1 0 5 0;
#X connect 1 0 11 0;
#X connect 1 0 19 0;
#X connect 2 0 1 0;
#X connect 3 0 2 1;
#X connect 4 0 10 0;
#X connect 5 0 3 0;
#X connect 5 0 14 0;
#X connect 6 0 9 1;
#X connect 7 0 8 0;
#X connect 7 0 8 1;
#X connect 8 0 9 0;
#X connect 10 0 2 0;
#X connect 10 1 3 0;
#X connect 10 1 13 0;
#X connect 11 0 12 0;
#X connect 12 0 2 0;
#X connect 13 0 12 1;
#X connect 14 0 12 1;
#X connect 19 0 7 0;
#X connect 19 1 6 0;
