#N canvas 368 152 707 770 12;
#X obj 92 164 tabwrite~ array1;
#N canvas 0 0 450 300 graph6 0;
#X array array1 10 float 2;
#X coords 0 1 9 -1 200 140 1;
#X restore 356 258 graph;
#N canvas 0 0 450 300 graph6 0;
#X array array2 10 float 2;
#X coords 0 1 9 -1 200 140 1;
#X restore 354 429 graph;
#X obj 65 260 tabwrite~ array2;
#X obj 159 84 phasor~ 22050;
#N canvas 0 0 458 308 delay-writer 0;
#X obj 155 37 inlet~;
#X obj 155 92 delwrite~ buff 1000;
#X connect 0 0 1 0;
#X restore 159 128 pd delay-writer;
#N canvas 0 0 458 308 delay-reader 0;
#X obj 155 37 inlet~;
#X obj 156 138 outlet~;
#X obj 156 87 vd~ buff;
#X connect 0 0 2 0;
#X connect 2 0 1 0;
#X restore 320 135 pd delay-reader;
#X floatatom 321 49 5 0 0 0 - - -;
#X obj 321 75 / 44.1;
#X obj 321 104 sig~;
#X obj 51 124 bng 15 250 50 0 empty empty empty 0 -6 0 8 -262144 -1
-1;
#X text 380 50 delay in samples;
#X text 68 11 3.4.4.2. Sample-wise Delay;
#X text 411 677 www.pd-tutorial.com;
#X text 420 645 Johannes Kreidler;
#X connect 4 0 5 0;
#X connect 4 0 0 0;
#X connect 6 0 3 0;
#X connect 7 0 8 0;
#X connect 8 0 9 0;
#X connect 9 0 6 0;
#X connect 10 0 3 0;
#X connect 10 0 0 0;
