#N canvas 1054 151 681 618 12;
#X obj 125 361 tabwrite~ array1;
#X obj 220 334 bng 15 250 50 0 empty empty empty 0 -6 0 8 -262144 -1
-1;
#N canvas 0 0 450 300 graph1 0;
#X array array1 100 float 0;
#X coords 0 1 99 -1 200 140 1;
#X restore 402 68 graph;
#X text 381 196 -1;
#X text 387 57 1;
#X floatatom 100 69 5 0 0 0 - - -;
#X obj 116 116 * -1;
#X msg 190 115 0;
#X obj 58 159 phasor~;
#X obj 159 157 phasor~;
#X obj 59 199 *~ 2;
#X obj 58 226 -~ 1;
#X obj 57 254 clip~ 0 1;
#X obj 159 202 *~ 2;
#X obj 158 229 -~ 1;
#X obj 157 257 clip~ 0 1;
#X obj 105 308 +~;
#X obj 85 431 *~ 0.7;
#X obj 84 479 *~;
#X obj 134 464 tgl 15 0 empty empty empty 0 -6 0 8 -262144 -1 -1 0
1;
#X obj 83 513 dac~;
#X text 76 12 triangle;
#X text 95 42 any fundamental;
#X text 191 98 phase synchronization;
#X text 244 333 graph;
#X text 161 455 listen;
#X text 404 472 www.pd-tutorial.com;
#X text 409 448 Johannes Kreidler;
#X connect 1 0 0 0;
#X connect 5 0 6 0;
#X connect 5 0 8 0;
#X connect 6 0 9 0;
#X connect 7 0 9 1;
#X connect 7 0 8 1;
#X connect 8 0 10 0;
#X connect 9 0 13 0;
#X connect 10 0 11 0;
#X connect 11 0 12 0;
#X connect 12 0 16 0;
#X connect 13 0 14 0;
#X connect 14 0 15 0;
#X connect 15 0 16 1;
#X connect 16 0 0 0;
#X connect 16 0 17 0;
#X connect 17 0 18 0;
#X connect 18 0 20 0;
#X connect 18 0 20 1;
#X connect 19 0 18 1;
