#N canvas 1066 153 734 668 12;
#X obj 82 45 -~ 0.5;
#X obj 82 178 +~;
#X obj 177 116 wrap~;
#X obj 177 146 -~ 0.5;
#X obj 152 177 -~;
#X obj 83 284 *~;
#X obj 100 254 tgl 15 0 empty empty empty 0 -6 0 8 -262144 -1 -1 0
1;
#X obj 151 272 *~;
#X obj 170 252 tgl 15 0 empty empty empty 0 -6 0 8 -262144 -1 -1 0
1;
#X obj 250 120 tabwrite~ original;
#X obj 238 75 bng 15 250 50 0 empty empty empty 0 -6 0 8 -262144 -1
-1;
#X obj 97 372 *~;
#X floatatom 117 343 5 0 0 0 - - -;
#N canvas 0 0 450 300 graph3 0;
#X array original 882 float 2;
#X coords 0 1 882 -1 200 140 1;
#X restore 427 39 graph;
#N canvas 0 0 450 300 graph3 0;
#X array sum 882 float 2;
#X coords 0 1 882 -1 200 140 1;
#X restore 425 202 graph;
#N canvas 0 0 450 300 graph3 0;
#X array difference 882 float 2;
#X coords 0 1 882 -1 200 140 1;
#X restore 423 363 graph;
#X obj 82 10 phasor~ 100;
#X obj 95 407 dac~;
#X text 81 -43 3.5.2.3. even - odd partials;
#X obj 205 209 tabwrite~ difference;
#X obj 210 241 tabwrite~ sum;
#X text 486 577 www.pd-tutorial.com;
#X text 424 514 Arrays have 882 points;
#X text 490 557 Johannes Kreidler;
#X connect 0 0 4 0;
#X connect 0 0 2 0;
#X connect 0 0 1 0;
#X connect 0 0 9 0;
#X connect 1 0 5 0;
#X connect 1 0 20 0;
#X connect 2 0 3 0;
#X connect 3 0 4 1;
#X connect 3 0 1 1;
#X connect 4 0 7 0;
#X connect 4 0 19 0;
#X connect 5 0 11 0;
#X connect 6 0 5 1;
#X connect 7 0 11 0;
#X connect 8 0 7 1;
#X connect 10 0 9 0;
#X connect 10 0 19 0;
#X connect 10 0 20 0;
#X connect 11 0 17 0;
#X connect 11 0 17 1;
#X connect 12 0 11 1;
#X connect 16 0 0 0;
