#N canvas 1054 151 651 627 12;
#X floatatom 105 96 5 0 0 0 - - -;
#X obj 105 121 phasor~;
#X obj 104 150 clip~ 0.2 0.5;
#X obj 104 181 cos~;
#X obj 105 210 clip~ -0.8 -0.2;
#X obj 104 239 cos~;
#X obj 105 271 cos~;
#X obj 105 297 -~ 0.4;
#X obj 104 327 cos~;
#X obj 103 365 tabwrite~ array1;
#N canvas 0 0 450 300 graph2 0;
#X array array1 100 float 0;
#X coords 0 1 99 -1 200 140 1;
#X restore 102 418 graph;
#X obj 206 334 bng 15 250 50 0 empty empty empty 0 -6 0 8 -262144 -1
-1;
#X text 76 13 3.5.1.2. Transfer function;
#X text 427 476 www.pd-tutorial.com;
#X text 426 447 Johannes Kreidler;
#X connect 0 0 1 0;
#X connect 1 0 2 0;
#X connect 2 0 3 0;
#X connect 3 0 4 0;
#X connect 4 0 5 0;
#X connect 5 0 6 0;
#X connect 6 0 7 0;
#X connect 7 0 8 0;
#X connect 8 0 9 0;
#X connect 11 0 9 0;
