#N canvas 121 59 537 976 12;
#N canvas 0 0 450 300 graph8 0;
#X array array1 67 float 0;
#X coords 0 1 66 -1 200 140 1;
#X restore 257 104 graph;
#X obj 107 802 tabwrite array1;
#X obj 354 618 f;
#X obj 354 644 + 1;
#X msg 373 594 -1;
#X obj 44 102 random 100;
#X obj 71 197 f;
#X obj 44 228 -;
#X floatatom 44 127 5 0 0 0 - - -;
#X obj 40 -41 bng 15 250 50 0 empty empty empty 0 -6 0 8 -262144 -1
-1;
#X obj 83 296 abs;
#X obj 107 166 ii 50;
#X floatatom 126 130 5 0 0 0 - - -;
#X obj 44 256 t f f;
#X obj 34 152 t b f b;
#X obj 19 418 f;
#X obj 121 696 t f b;
#X obj 40 -16 t b b;
#X text 36 -65 start;
#X obj 320 357 tabread4~ array1;
#X obj 320 384 *~ 0.6;
#X obj 319 465 dac~;
#X obj 319 434 *~;
#X obj 343 411 tgl 15 0 empty empty empty 0 -6 0 8 -262144 -1 -1 0
1;
#X obj 321 307 phasor~;
#X obj 320 332 *~ 100;
#X floatatom 321 285 5 0 0 0 - - -;
#X floatatom 163 322 5 0 0 0 - - -;
#X obj 163 343 sel 0;
#X msg 179 373 -1;
#X obj 46 605 *;
#X obj 79 323 t b f;
#X obj 24 348 Uzi 11;
#X obj 39 529 sin;
#X obj 38 560 expr ($f1+1)/2;
#X obj 21 672 +;
#X obj 52 381 t b f;
#X floatatom 28 703 5 0 0 0 - - -;
#X obj 96 751 expr ($f1*0.02)-1;
#X obj 38 53 Uzi 10;
#X obj 169 293 > 0;
#X obj 42 647 *;
#X obj 38 474 expr (($f1-1)*0.3141)-1.57;
#X text 60 -86 3.5.1.3. Wavgorithm sinusoid;
#X text 254 247 Array has 100 Points;
#X text 314 842 www.pd-tutorial.com;
#X text 367 408 listen;
#X text 316 819 Johannes Kreidler;
#X connect 2 0 3 0;
#X connect 3 0 2 1;
#X connect 3 0 1 1;
#X connect 4 0 2 1;
#X connect 5 0 8 0;
#X connect 6 0 7 1;
#X connect 6 0 15 1;
#X connect 7 0 13 0;
#X connect 8 0 14 0;
#X connect 9 0 17 0;
#X connect 10 0 31 0;
#X connect 11 0 6 1;
#X connect 12 0 6 1;
#X connect 13 0 10 0;
#X connect 13 1 40 0;
#X connect 14 1 6 1;
#X connect 14 1 7 0;
#X connect 14 2 6 0;
#X connect 15 0 35 0;
#X connect 16 0 38 0;
#X connect 16 1 2 0;
#X connect 17 0 39 0;
#X connect 17 1 4 0;
#X connect 19 0 20 0;
#X connect 20 0 22 0;
#X connect 22 0 21 0;
#X connect 22 0 21 1;
#X connect 23 0 22 1;
#X connect 24 0 25 0;
#X connect 25 0 19 0;
#X connect 26 0 24 0;
#X connect 27 0 28 0;
#X connect 28 0 29 0;
#X connect 28 1 41 1;
#X connect 29 0 41 1;
#X connect 30 0 41 0;
#X connect 31 0 32 0;
#X connect 31 1 30 1;
#X connect 32 2 36 0;
#X connect 33 0 34 0;
#X connect 34 0 30 0;
#X connect 35 0 37 0;
#X connect 36 0 15 0;
#X connect 36 1 42 0;
#X connect 37 0 16 0;
#X connect 38 0 1 0;
#X connect 39 0 5 0;
#X connect 40 0 27 0;
#X connect 41 0 35 1;
#X connect 42 0 33 0;
