#N canvas 1066 153 693 660 12;
#X obj 117 6 bng 15 250 50 0 empty empty empty 0 -6 0 8 -262144 -1
-1;
#X obj 117 63 line;
#X obj 116 462 *~;
#X floatatom 156 435 5 0 0 0 - - -;
#X obj 115 495 dac~;
#X obj 117 118 phasor~;
#X floatatom 117 90 7 0 0 0 - - -;
#X msg 117 29 0 \, 2000 10000;
#X msg 253 30 10 \, 0 10000;
#X obj 253 93 +~ 1;
#X obj 253 64 line~;
#X obj 116 145 -~ 0.5;
#X obj 116 186 *~;
#X obj 116 213 clip~ -0.5 0.5;
#X obj 117 242 cos~;
#X obj 118 270 +~ 1;
#X obj 117 299 *~ 0.5;
#X obj 117 407 hip~ 5;
#X obj 173 354 tabwrite~ output;
#X obj 213 313 metro 50;
#X obj 213 284 tgl 15 0 empty empty empty 0 -6 0 8 -262144 -1 -1 0
1;
#N canvas 0 0 450 300 graph4 0;
#X array output 200 float 0;
#X coords 0 1 199 -1 200 140 1;
#X restore 453 203 graph;
#X text 146 1 start;
#X text 81 -44 3.5.3.1. Foldover 3;
#X text 233 280 graph;
#X text 378 495 www.pd-tutorial.com;
#X text 382 468 Johannes Kreidler;
#X connect 0 0 7 0;
#X connect 0 0 8 0;
#X connect 1 0 6 0;
#X connect 2 0 4 0;
#X connect 2 0 4 1;
#X connect 3 0 2 1;
#X connect 5 0 11 0;
#X connect 6 0 5 0;
#X connect 7 0 1 0;
#X connect 8 0 10 0;
#X connect 9 0 12 1;
#X connect 10 0 9 0;
#X connect 11 0 12 0;
#X connect 12 0 13 0;
#X connect 13 0 14 0;
#X connect 14 0 15 0;
#X connect 15 0 16 0;
#X connect 16 0 18 0;
#X connect 16 0 17 0;
#X connect 17 0 2 0;
#X connect 19 0 18 0;
#X connect 20 0 19 0;
