#N canvas 1066 153 319 358 12;
#X obj 117 6 bng 15 250 50 0 empty empty empty 0 -6 0 8 -262144 -1
-1;
#X msg 117 29 0 \, 44100 30000;
#X obj 117 63 line;
#X obj 117 118 osc~;
#X obj 117 170 *~;
#X floatatom 157 143 5 0 0 0 - - -;
#X obj 116 203 dac~;
#X floatatom 117 97 7 0 0 0 - - -;
#X text 81 -44 3.5.3.1. Foldover 1;
#X text 124 262 www.pd-tutorial.com;
#X text 123 238 Johannes Kreidler;
#X connect 0 0 1 0;
#X connect 1 0 2 0;
#X connect 2 0 7 0;
#X connect 3 0 4 0;
#X connect 4 0 6 0;
#X connect 4 0 6 1;
#X connect 5 0 4 1;
#X connect 7 0 3 0;
