#N canvas 1066 153 337 443 12;
#X obj 117 6 bng 15 250 50 0 empty empty empty 0 -6 0 8 -262144 -1
-1;
#X msg 117 29 0 \, 44100 30000;
#X obj 117 63 line;
#X obj 113 259 *~;
#X floatatom 153 232 5 0 0 0 - - -;
#X obj 112 292 dac~;
#X obj 117 118 phasor~;
#X floatatom 117 90 7 0 0 0 - - -;
#X obj 116 145 -~ 0.99;
#X obj 115 171 clip~ 0 1;
#X obj 114 199 *~ 100;
#X text 81 -44 3.5.3.1. Foldover 2;
#X text 132 338 www.pd-tutorial.com;
#X text 160 317 Johannes Kreidler;
#X connect 0 0 1 0;
#X connect 1 0 2 0;
#X connect 2 0 7 0;
#X connect 3 0 5 0;
#X connect 3 0 5 1;
#X connect 4 0 3 1;
#X connect 6 0 8 0;
#X connect 7 0 6 0;
#X connect 8 0 9 0;
#X connect 9 0 10 0;
#X connect 10 0 3 0;
