#N canvas 1054 151 726 354 12;
#X obj 160 93 phasor~ 440;
#X obj 158 176 tabwrite~ array1;
#X obj 253 149 bng 15 250 50 0 empty empty empty 0 -6 0 8 -262144 -1
-1;
#X text 277 148 Darstellung;
#N canvas 0 0 450 300 graph1 0;
#X array array1 100 float 0;
#X coords 0 1 99 -1 200 140 1;
#X restore 402 68 graph;
#X text 381 196 -1;
#X text 387 57 1;
#X obj 159 124 clip~ 0.2 0.8;
#X text 76 12 3.5.1.1. other waveforms;
#X text 409 265 www.pd-tutorial.com;
#X text 414 244 Johannes Kreidler;
#X connect 0 0 7 0;
#X connect 2 0 1 0;
#X connect 7 0 1 0;
