#N canvas 1140 164 516 762 12;
#N canvas 0 0 450 300 graph8 0;
#X array array1 67 float 0;
#X coords 0 1 66 -1 200 140 1;
#X restore 257 104 graph;
#X obj 61 621 tabwrite array1;
#X obj 182 503 f;
#X obj 182 529 + 1;
#X msg 201 479 -1;
#X obj 44 102 random 100;
#X obj 71 197 f;
#X obj 44 228 -;
#X floatatom 44 127 5 0 0 0 - - -;
#X obj 42 -47 bng 15 250 50 0 empty empty empty 0 -6 0 8 -262144 -1
-1;
#X obj 44 282 abs;
#X obj 107 166 ii 50;
#X obj 71 345 / 4;
#X obj 36 449 -;
#X obj 27 399 f;
#X floatatom 44 488 5 0 0 0 - - -;
#X floatatom 126 130 5 0 0 0 - - -;
#X obj 195 116 bng 15 250 50 0 empty empty empty 0 -6 0 8 -262144 -1
-1;
#X obj 44 256 t f f;
#X floatatom 143 335 5 0 0 0 - - -;
#X obj 75 421 *;
#X obj 143 356 sel 0;
#X msg 109 381 -1;
#X obj 34 152 t b f b;
#X floatatom 113 427 5 0 0 0 - - -;
#X obj 11 280 f;
#X floatatom 11 322 5 0 0 0 - - -;
#X obj 144 299 < 0;
#X obj 47 522 t f b;
#X obj 40 47 t b b b b;
#X obj 46 4 Uzi 20;
#X obj 43 -22 t b b;
#X obj 48 549 * 0.02;
#X obj 41 579 - 1;
#X text 69 -49 start;
#X floatatom 271 311 5 0 0 0 - - -;
#X obj 271 341 phasor~;
#X obj 271 370 *~ 100;
#X obj 270 406 tabread4~ array1;
#X obj 270 437 *~ 0.6;
#X obj 270 483 *~;
#X obj 296 465 tgl 15 0 empty empty empty 0 -6 0 8 -262144 -1 -1 0
1;
#X obj 270 519 dac~;
#X text 145 -45 3.5.1.3. Wavgorithm;
#X text 254 245 Array has 100 Points;
#X text 244 644 www.pd-tutorial.com;
#X text 320 464 listen;
#X text 243 619 Johannes Kreidler;
#X connect 2 0 3 0;
#X connect 3 0 2 1;
#X connect 3 0 1 1;
#X connect 4 0 2 1;
#X connect 5 0 8 0;
#X connect 6 0 7 1;
#X connect 6 0 25 1;
#X connect 6 0 15 0;
#X connect 7 0 18 0;
#X connect 8 0 23 0;
#X connect 9 0 31 0;
#X connect 10 0 12 0;
#X connect 11 0 6 1;
#X connect 12 0 20 0;
#X connect 12 0 24 0;
#X connect 13 0 14 1;
#X connect 13 0 15 0;
#X connect 14 0 13 0;
#X connect 15 0 28 0;
#X connect 16 0 6 1;
#X connect 17 0 14 0;
#X connect 18 0 10 0;
#X connect 18 1 27 0;
#X connect 19 0 21 0;
#X connect 20 0 13 1;
#X connect 21 0 22 0;
#X connect 21 1 20 1;
#X connect 22 0 20 1;
#X connect 23 0 25 0;
#X connect 23 1 6 1;
#X connect 23 1 7 0;
#X connect 23 2 6 0;
#X connect 25 0 26 0;
#X connect 26 0 14 0;
#X connect 27 0 19 0;
#X connect 28 0 32 0;
#X connect 28 1 2 0;
#X connect 29 0 17 0;
#X connect 29 1 17 0;
#X connect 29 2 17 0;
#X connect 29 3 5 0;
#X connect 30 0 29 0;
#X connect 31 0 30 0;
#X connect 31 1 4 0;
#X connect 32 0 33 0;
#X connect 33 0 1 0;
#X connect 35 0 36 0;
#X connect 36 0 37 0;
#X connect 37 0 38 0;
#X connect 38 0 39 0;
#X connect 39 0 40 0;
#X connect 40 0 42 0;
#X connect 40 0 42 1;
#X connect 41 0 40 1;
