#N canvas 1066 153 608 487 12;
#X obj 164 227 +~;
#X obj 194 191 *~ 140;
#X floatatom 243 162 5 0 0 0 - - -;
#X obj 194 129 osc~ 1;
#X floatatom 194 103 5 0 0 0 - - -;
#X floatatom 134 173 5 0 0 0 - - -;
#X obj 163 257 osc~;
#X obj 162 286 *~ 0.8;
#X obj 161 315 dac~;
#X text 122 150 Carrier;
#X text 196 78 Modulator;
#X text 59 17 3.6.1.2. Frequency modulation;
#X text 305 419 www.pd-tutorial.com;
#X text 303 388 Johannes Kreidler;
#X connect 0 0 6 0;
#X connect 1 0 0 1;
#X connect 2 0 1 1;
#X connect 3 0 1 0;
#X connect 4 0 3 0;
#X connect 5 0 0 0;
#X connect 6 0 7 0;
#X connect 7 0 8 0;
#X connect 7 0 8 1;
