#N canvas 1066 153 390 341 12;
#X obj 129 182 *~ 0.8;
#X obj 128 211 dac~;
#X obj 128 153 *~;
#X obj 210 110 osc~ 1;
#X floatatom 210 86 5 0 0 0 - - -;
#X obj 127 83 adc~;
#X floatatom 187 153 5 0 0 0 - - -;
#X text 59 17 3.6.2.2. Ring modulation live;
#X text 124 262 www.pd-tutorial.com;
#X text 142 241 Johannes Kreidler;
#X connect 0 0 1 0;
#X connect 0 0 1 1;
#X connect 2 0 0 0;
#X connect 3 0 2 1;
#X connect 4 0 3 0;
#X connect 5 0 2 0;
#X connect 5 1 2 0;
#X connect 6 0 0 1;
