#N canvas 1066 153 625 543 12;
#X obj 115 212 phasor~;
#X floatatom 115 183 5 0 0 0 - - -;
#X floatatom 230 174 5 0 0 0 - - -;
#X obj 230 203 osc~;
#X obj 340 205 line~;
#X obj 340 180 pack 0 50;
#X obj 340 156 / 100;
#X floatatom 340 129 5 0 0 0 - - -;
#X obj 231 251 *~;
#X obj 115 286 +~;
#X obj 114 340 cos~;
#X obj 113 377 *~ 0.5;
#X obj 113 415 dac~;
#X text 115 139 Carrier;
#X text 428 198 Clicks;
#X text 18 179 Carrier;
#X text 18 199 Phase;
#X text 17 292 Modulation;
#X text 59 17 3.6.3.1. Phase modulation;
#X text 117 159 Frequency;
#X text 226 150 Frequency;
#X text 224 131 Modulation;
#X text 334 78 Modulation Index;
#X text 331 98 in Hundredths;
#X text 429 179 to avoid;
#X text 19 273 Phase;
#X text 20 344 waveform;
#X text 336 440 www.pd-tutorial.com;
#X text 342 406 Johannes Kreidler;
#X connect 0 0 9 0;
#X connect 1 0 0 0;
#X connect 2 0 3 0;
#X connect 3 0 8 0;
#X connect 4 0 8 1;
#X connect 5 0 4 0;
#X connect 6 0 5 0;
#X connect 7 0 6 0;
#X connect 8 0 9 1;
#X connect 9 0 10 0;
#X connect 10 0 11 0;
#X connect 11 0 12 0;
#X connect 11 0 12 1;
