#N canvas 1066 153 440 604 12;
#X obj 127 433 *~ 0.8;
#X obj 126 462 dac~;
#X obj 128 153 *~;
#X obj 127 83 adc~;
#X floatatom 185 404 5 0 0 0 - - -;
#X obj 154 132 tgl 15 0 empty empty empty 0 -6 0 8 -262144 -1 -1 0
1;
#X obj 206 154 *~;
#X obj 232 133 tgl 15 0 empty empty empty 0 -6 0 8 -262144 -1 -1 0
1;
#X obj 205 84 osc~ 440;
#X obj 127 190 delwrite~ d1 100;
#X floatatom 128 238 5 0 0 0 - - -;
#X obj 128 263 osc~;
#X obj 128 290 +~ 1;
#X obj 128 320 *~ 0.5;
#X obj 127 359 *~;
#X floatatom 224 308 5 0 0 0 - - -;
#X text 226 284 Modulator;
#X obj 127 387 vd~ d1;
#X text 59 17 3.6.2.3. Frequency modulation live;
#X text 200 528 www.pd-tutorial.com;
#X text 223 500 Johannes Kreidler;
#X connect 0 0 1 0;
#X connect 0 0 1 1;
#X connect 2 0 9 0;
#X connect 3 0 2 0;
#X connect 3 1 2 0;
#X connect 4 0 0 1;
#X connect 5 0 2 1;
#X connect 6 0 9 0;
#X connect 7 0 6 1;
#X connect 8 0 6 0;
#X connect 10 0 11 0;
#X connect 11 0 12 0;
#X connect 12 0 13 0;
#X connect 13 0 14 0;
#X connect 14 0 17 0;
#X connect 15 0 14 1;
#X connect 17 0 0 0;
