#N canvas 5 0 714 1038 12;
#X obj 341 892 delwrite~ b1 5000;
#X obj 71 742 vd~ b1;
#X obj 47 405 phasor~;
#X obj 48 585 *~ -1;
#X obj 48 610 +~ 1;
#X obj 148 699 sig~ 1;
#X obj 213 707 cos~;
#X obj 149 732 -~;
#X obj 150 757 *~ 0.5;
#X obj 71 786 *~;
#X obj 125 910 dac~;
#X obj 79 672 samphold~;
#X obj 48 699 *~;
#X obj 80 644 sig~;
#X floatatom 157 384 5 0 0 0 - - -;
#X floatatom 110 307 10 0 0 0 - - -;
#X floatatom 79 367 5 0 0 0 - - -;
#X floatatom 241 233 5 0 0 0 - - -;
#X obj 241 254 t b f;
#X obj 125 869 *~;
#X obj 157 358 / 44.1;
#X obj 458 722 vd~ b1;
#X obj 434 554 *~ -1;
#X obj 435 587 +~ 1;
#X obj 528 683 sig~ 1;
#X obj 592 690 cos~;
#X obj 529 714 -~;
#X obj 530 739 *~ 0.5;
#X obj 457 771 *~;
#X obj 469 652 samphold~;
#X obj 435 679 *~;
#X obj 470 624 sig~;
#X obj 455 467 +~ 0.5;
#X obj 455 489 wrap~;
#X obj 342 861 adc~;
#X obj 108 35 vsl 15 128 100 30000 0 0 empty empty empty 0 -8 0 8 -262144
-1 -1 0 1;
#X obj 108 171 t b f;
#X obj 241 153 vsl 15 73 -36 36 0 0 empty empty empty 0 -8 0 8 -262144
-1 -1 0 1;
#X obj 110 328 expr (pow(2 \, ($f2/12)) - 1) * (44100/$f1);
#X floatatom 144 825 5 0 0 0 - - -;
#X text 258 217 -36;
#X text 264 145 36;
#X text 127 28 30000;
#X text 125 152 100;
#X obj 440 851 *~;
#X floatatom 487 821 5 0 0 0 - - -;
#X text 536 820 0-1;
#X text 252 714 Hanning;
#X text 337 34 3.7.2.2. Granular live Feedback;
#X text 190 121 Transposition (Half steps);
#X text 73 7 window width;
#X text 478 955 www.pd-tutorial.com;
#X text 497 932 Johannes Kreidler;
#X connect 1 0 9 0;
#X connect 2 0 3 0;
#X connect 2 0 6 0;
#X connect 2 0 11 1;
#X connect 2 0 32 0;
#X connect 3 0 4 0;
#X connect 4 0 12 0;
#X connect 5 0 7 0;
#X connect 6 0 7 1;
#X connect 7 0 8 0;
#X connect 8 0 9 1;
#X connect 9 0 19 0;
#X connect 9 0 44 0;
#X connect 11 0 12 1;
#X connect 12 0 1 0;
#X connect 13 0 11 0;
#X connect 14 0 31 0;
#X connect 14 0 13 0;
#X connect 15 0 20 0;
#X connect 15 0 38 0;
#X connect 16 0 2 0;
#X connect 17 0 18 0;
#X connect 18 0 15 0;
#X connect 18 1 38 1;
#X connect 19 0 10 0;
#X connect 19 0 10 1;
#X connect 20 0 14 0;
#X connect 21 0 28 0;
#X connect 22 0 23 0;
#X connect 23 0 30 0;
#X connect 24 0 26 0;
#X connect 25 0 26 1;
#X connect 26 0 27 0;
#X connect 27 0 28 1;
#X connect 28 0 19 0;
#X connect 28 0 44 0;
#X connect 29 0 30 1;
#X connect 30 0 21 0;
#X connect 31 0 29 0;
#X connect 32 0 33 0;
#X connect 33 0 22 0;
#X connect 33 0 29 1;
#X connect 33 0 25 0;
#X connect 34 0 0 0;
#X connect 34 1 0 0;
#X connect 35 0 36 0;
#X connect 36 0 17 0;
#X connect 36 1 15 0;
#X connect 37 0 17 0;
#X connect 38 0 16 0;
#X connect 39 0 19 1;
#X connect 44 0 0 0;
#X connect 45 0 44 1;
