#N canvas 989 283 553 616 12;
#X floatatom 67 97 5 0 0 0 - - -;
#X obj 67 134 * 44100;
#X obj 67 163 / 64;
#X floatatom 67 194 7 0 0 0 - - -;
#X obj 67 244 osc~;
#X obj 66 295 rfft~;
#X obj 65 336 *~;
#X obj 101 337 *~;
#X obj 64 377 +~;
#X obj 64 414 sqrt~;
#X obj 64 473 print~;
#X obj 116 438 bng 15 250 50 0 empty empty empty 0 -6 0 8 -262144 -1
-1;
#X text 156 453 Output: Magnitude;
#X text 73 25 3.8.1.1. rfft1;
#X text 129 97 Frequency in Bins;
#X text 132 191 Frequency in Hertz;
#X text 145 334 Conversion;
#X text 330 535 www.pd-tutorial.com;
#X text 347 511 Johannes Kreidler;
#X connect 0 0 1 0;
#X connect 1 0 2 0;
#X connect 2 0 3 0;
#X connect 3 0 4 0;
#X connect 4 0 5 0;
#X connect 5 0 6 0;
#X connect 5 0 6 1;
#X connect 5 1 7 0;
#X connect 5 1 7 1;
#X connect 6 0 8 0;
#X connect 7 0 8 1;
#X connect 8 0 9 0;
#X connect 9 0 10 0;
#X connect 11 0 10 0;
