#N canvas 259 410 282 213 12;
#X text 35 19 3.8.1.2. fft subpatch;
#N canvas 534 419 750 471 subpatch 1;
#X floatatom 31 54 5 0 0 0 - - -;
#X obj 31 80 * 44100;
#X obj 31 106 / 64;
#X floatatom 31 134 7 0 0 0 - - -;
#X obj 31 160 osc~;
#X obj 80 176 tabreceive~ hanning;
#X obj 31 204 *~;
#N canvas 0 0 450 300 graph1 0;
#X array hanning 64 float 0;
#X coords 0 1 63 0 200 120 1;
#X restore 495 111 graph;
#X msg 373 125 0;
#X obj 267 174 osc~;
#X obj 267 126 samplerate~;
#X obj 267 197 *~ -0.5;
#X obj 267 220 +~ 0.5;
#X text 481 103 1;
#X text 474 221 0;
#X text 490 234 0;
#X obj 259 90 bng 15 250 50 0 empty empty empty 0 -6 0 8 -262144 -1
-1;
#X text 688 235 63;
#X obj 267 150 / 64;
#X obj 259 245 tabwrite~ hanning;
#X obj 31 15 block~ 64 4;
#X text 136 13 block size and number of overlaps;
#X text 260 51 first create;
#X text 260 66 the Hanning window;
#X obj 31 231 rfft~;
#X obj 31 266 *~;
#X obj 65 265 *~;
#X obj 32 308 +~;
#X obj 33 335 sqrt~;
#X obj 34 374 print~;
#X obj 113 341 bng 15 250 50 0 empty empty empty 0 -6 0 8 -262144 -1
-1;
#X text 146 343 then show the FFT calculation again;
#X connect 0 0 1 0;
#X connect 1 0 2 0;
#X connect 2 0 3 0;
#X connect 3 0 4 0;
#X connect 4 0 6 0;
#X connect 5 0 6 1;
#X connect 6 0 24 0;
#X connect 8 0 9 1;
#X connect 9 0 11 0;
#X connect 10 0 18 0;
#X connect 11 0 12 0;
#X connect 12 0 19 0;
#X connect 16 0 10 0;
#X connect 16 0 8 0;
#X connect 16 0 19 0;
#X connect 18 0 9 0;
#X connect 24 0 25 0;
#X connect 24 0 25 1;
#X connect 24 1 26 0;
#X connect 24 1 26 1;
#X connect 25 0 27 0;
#X connect 26 0 27 1;
#X connect 27 0 28 0;
#X connect 28 0 29 0;
#X connect 30 0 29 0;
#X restore 25 58 pd subpatch;
#X text 98 159 www.pd-tutorial.com;
#X text 106 133 Johannes Kreidler;
