#N canvas 989 283 802 374 12;
#X obj 290 114 phasor~ 100;
#X obj 201 170 bp~ 100 50;
#X obj 201 201 env~ 1024;
#X obj 201 234 dbtorms;
#X floatatom 201 264 5 0 0 0 - - -;
#X obj 287 201 env~ 1024;
#X obj 287 234 dbtorms;
#X floatatom 287 264 5 0 0 0 - - -;
#X obj 373 201 env~ 1024;
#X obj 373 234 dbtorms;
#X floatatom 373 264 5 0 0 0 - - -;
#X obj 459 201 env~ 1024;
#X obj 459 234 dbtorms;
#X floatatom 459 264 5 0 0 0 - - -;
#X obj 649 201 env~ 1024;
#X obj 649 234 dbtorms;
#X floatatom 649 264 5 0 0 0 - - -;
#X obj 287 170 bp~ 200 50;
#X obj 373 170 bp~ 300 50;
#X obj 459 170 bp~ 400 50;
#X obj 649 170 bp~ 150 50;
#X text 202 288 1;
#X text 288 287 2;
#X text 374 287 3;
#X text 458 284 4;
#X text 73 25 3.8.1.1. Analyzing partials;
#X text 60 246 volume of;
#X text 44 265 first 4 partials;
#X text 569 247 not a;
#X text 570 265 partial:;
#X text 565 316 www.pd-tutorial.com;
#X text 579 298 Johannes Kreidler;
#X connect 0 0 1 0;
#X connect 0 0 17 0;
#X connect 0 0 18 0;
#X connect 0 0 19 0;
#X connect 0 0 20 0;
#X connect 1 0 2 0;
#X connect 2 0 3 0;
#X connect 3 0 4 0;
#X connect 5 0 6 0;
#X connect 6 0 7 0;
#X connect 8 0 9 0;
#X connect 9 0 10 0;
#X connect 11 0 12 0;
#X connect 12 0 13 0;
#X connect 14 0 15 0;
#X connect 15 0 16 0;
#X connect 17 0 5 0;
#X connect 18 0 8 0;
#X connect 19 0 11 0;
#X connect 20 0 14 0;
