#N canvas 1152 235 557 626 12;
#X floatatom 67 97 5 0 0 0 - - -;
#X obj 67 134 * 44100;
#X obj 67 163 / 64;
#X floatatom 67 194 7 0 0 0 - - -;
#X obj 67 230 osc~;
#X obj 66 332 rfft~;
#X obj 65 373 *~;
#X obj 101 374 *~;
#X obj 64 414 +~;
#X obj 64 451 sqrt~;
#X obj 64 510 print~;
#X obj 116 475 bng 15 250 50 0 empty empty empty 0 -6 0 8 -262144 -1
-1;
#X obj 66 285 *~;
#X obj 131 240 tabreceive~ hanning;
#N canvas 0 0 450 300 graph6 0;
#X array hanning 64 float 0;
#X coords 0 1 63 0 200 140 1;
#X restore 308 371 graph;
#X obj 333 182 samplerate~;
#X obj 333 208 / 64;
#X obj 333 236 osc~;
#X obj 333 262 *~ -0.5;
#X obj 334 290 +~ 0.5;
#X obj 321 323 tabwrite~ hanning;
#X msg 441 182 0;
#X obj 321 146 bng 15 250 50 0 empty empty empty 0 -6 0 8 -262144 -1
-1;
#X text 73 25 3.8.1.2. rfft3;
#X text 289 115 first create a Hanning window;
#X text 120 455 then show the FFT;
#X text 137 478 calculation again;
#X text 350 572 www.pd-tutorial.com;
#X text 357 547 Johannes Kreidler;
#X connect 0 0 1 0;
#X connect 1 0 2 0;
#X connect 2 0 3 0;
#X connect 3 0 4 0;
#X connect 4 0 12 0;
#X connect 5 0 6 0;
#X connect 5 0 6 1;
#X connect 5 1 7 0;
#X connect 5 1 7 1;
#X connect 6 0 8 0;
#X connect 7 0 8 1;
#X connect 8 0 9 0;
#X connect 9 0 10 0;
#X connect 11 0 10 0;
#X connect 12 0 5 0;
#X connect 13 0 12 1;
#X connect 15 0 16 0;
#X connect 16 0 17 0;
#X connect 17 0 18 0;
#X connect 18 0 19 0;
#X connect 19 0 20 0;
#X connect 21 0 17 1;
#X connect 22 0 21 0;
#X connect 22 0 15 0;
#X connect 22 0 20 0;
