#N canvas 943 454 414 397 12;
#X obj 171 111 fiddle~;
#X obj 205 160 expr 500/$f1;
#X obj 205 135 mtof;
#X obj 44 146 delwrite~ buff 100;
#X obj 205 218 sig~;
#X obj 206 246 vd~ buff;
#X obj 84 205 delread~ buff;
#X floatatom 84 181 5 0 0 0 - - -;
#X obj 205 184 + 1.451;
#X obj 187 272 +~;
#X obj 43 71 adc~;
#X obj 187 307 *~;
#X floatatom 226 286 5 0 0 0 - - -;
#X obj 188 335 dac~;
#X text 51 19 3.8.3.3. Octave doubler Fiddle;
#X text 236 351 www.pd-tutorial.com;
#X text 262 328 Johannes Kreidler;
#X connect 0 2 2 0;
#X connect 1 0 8 0;
#X connect 2 0 1 0;
#X connect 4 0 5 0;
#X connect 5 0 9 1;
#X connect 6 0 9 0;
#X connect 7 0 6 0;
#X connect 8 0 4 0;
#X connect 9 0 11 0;
#X connect 10 0 0 0;
#X connect 10 0 3 0;
#X connect 10 1 0 0;
#X connect 10 1 3 0;
#X connect 11 0 13 0;
#X connect 11 0 13 1;
#X connect 12 0 11 1;
