#N canvas 787 442 705 389 12;
#X obj 8 2 cnv 15 555 333 empty back empty 20 12 0 14 -262144 -262144
0;
#N canvas 0 0 450 300 graph1 0;
#X array s 1 float 2;
#X coords 0 450 1 425 10 140 1;
#X restore 41 112 graph;
#X msg 253 261 \; s yticks 425 1 5;
#X floatatom 344 141 5 0 0 0 - - -;
#X msg 253 219 \; s ylabel 3 425 430 435 440 445 450;
#X obj 307 65 fiddle~;
#X obj 344 115 mtof;
#X obj 20 61 cnv 5 200 5 empty empty empty 20 12 0 14 -1 -66577 0;
#X obj 20 64 cnv 5 5 220 empty empty empty 20 12 0 14 -1 -66577 0;
#X obj 215 65 cnv 5 5 220 empty empty empty 20 12 0 14 -1 -66577 0
;
#X obj 20 281 cnv 5 200 5 empty empty empty 20 12 0 14 -1 -66577 0
;
#X obj 23 23 cnv 15 5 5 empty empty Tuner 20 12 1 14 -262144 -66577
0;
#X floatatom 344 93 5 0 0 0 - - -;
#X obj 307 3 adc~;
#N canvas 244 464 462 312 back 0;
#X msg 298 210 \; back color \$1;
#X floatatom 310 131 5 0 0 0 - - -;
#X msg 378 162 210;
#X obj 373 117 loadbang;
#X msg 312 91 14;
#X obj 316 47 inlet;
#X connect 1 0 0 0;
#X connect 2 0 0 0;
#X connect 3 0 2 0;
#X connect 4 0 1 0;
#X connect 5 0 4 0;
#X restore 440 299 pd back;
#X obj 440 275 bng 15 250 50 0 empty empty empty 0 -6 0 8 -262144 -1
-1;
#N canvas 192 300 477 476 andere 0;
#N canvas 0 0 450 300 graph1 0;
#X array d 1 float 2;
#X coords 0 200 1 100 10 300 1;
#X restore 41 112 graph;
#X text 61 79 Frequenz (Hertz);
#X obj 16 23 cnv 15 5 5 empty empty Stimmgerät 20 12 1 14 -262144
-66577 0;
#X obj 327 35 inlet;
#N canvas 0 0 701 466 darst 0;
#X obj 301 140 tabwrite d;
#X obj 211 141 tabwrite s;
#X msg 438 323 \; d ylabel 3 100 125 150 175 200;
#X msg 438 365 \; d yticks 100 1 5;
#X obj 438 294 loadbang;
#X obj 439 224 loadbang;
#X msg 439 250 \; e yticks 53 1 1;
#X obj 303 228 tabwrite e;
#X obj 317 195 ftom;
#X obj 301 112 unsig~ 20;
#X obj 305 46 inlet;
#X obj 300 82 lop~ 1;
#X connect 4 0 2 0;
#X connect 4 0 3 0;
#X connect 5 0 6 0;
#X connect 8 0 7 0;
#X connect 9 0 0 0;
#X connect 9 0 1 0;
#X connect 9 0 8 0;
#X connect 10 0 11 0;
#X connect 11 0 9 0;
#X restore 327 61 pd darst;
#N canvas 0 0 450 300 graph1 0;
#X array e 1 float 2;
#X coords 0 55 1 43 10 300 1;
#X restore 203 113 graph;
#X text 222 402 G;
#X text 220 103 g;
#X text 223 355 A;
#X text 217 378 Gis;
#X text 224 329 B;
#X text 224 305 H;
#X text 224 279 c;
#X text 222 255 cis;
#X text 224 229 d;
#X text 221 205 dis;
#X text 224 180 e;
#X text 224 155 f;
#X text 221 130 fis;
#X connect 3 0 4 0;
#X restore 344 163 pd andere;
#X text 61 79 Frequency (Hertz);
#X text 360 8 Mikrophone Input;
#X text 572 4 3.8.3.2. Tuner;
#X text 375 64 pitch recognition;
#X text 390 114 conversion;
#X text 252 193 for visualization:;
#X text 467 274 color;
#X text 426 158 grahic;
#X text 426 173 representation;
#X text 530 356 www.pd-tutorial.com;
#X text 537 332 Johannes Kreidler;
#X connect 3 0 16 0;
#X connect 5 2 12 0;
#X connect 6 0 3 0;
#X connect 12 0 6 0;
#X connect 13 0 5 0;
#X connect 13 1 5 0;
#X connect 15 0 14 0;
