#N canvas 733 429 1140 646 12;
#X obj 45 362 osc~;
#X obj 45 314 mtof;
#X floatatom 45 340 5 0 0 0 - - -;
#X obj 45 387 *~ 0.7;
#X obj 46 425 dac~;
#X obj 24 104 tgl 15 0 empty empty empty 0 -6 0 8 -262144 -1 -1 0 1
;
#X text 44 100 start;
#X obj 45 289 + 60;
#X obj 45 258 random 40;
#X obj 45 224 metro;
#X obj 115 81 random 100;
#X obj 115 143 bng 15 250 50 0 empty empty empty 0 -6 0 8 -262144 -1
-1;
#X obj 174 160 bng 15 250 50 0 empty empty empty 0 -6 0 8 -262144 -1
-1;
#X obj 233 160 bng 15 250 50 0 empty empty empty 0 -6 0 8 -262144 -1
-1;
#X msg 108 191 1500;
#X msg 187 191 100;
#X msg 148 191 500;
#X obj 115 108 moses 5;
#X obj 174 135 moses 15;
#X floatatom 95 362 5 0 0 0 - - -;
#X obj 314 436 osc~;
#X obj 314 388 mtof;
#X floatatom 314 414 5 0 0 0 - - -;
#X obj 314 461 *~ 0.7;
#X obj 315 499 dac~;
#X obj 289 47 tgl 15 0 empty empty empty 0 -6 0 8 -262144 -1 -1 0 1
;
#X text 309 43 start;
#X obj 314 363 + 60;
#X obj 314 332 random 40;
#X obj 314 298 metro;
#X obj 384 155 random 100;
#X obj 384 217 bng 15 250 50 0 empty empty empty 0 -6 0 8 -262144 -1
-1;
#X obj 443 234 bng 15 250 50 0 empty empty empty 0 -6 0 8 -262144 -1
-1;
#X obj 502 234 bng 15 250 50 0 empty empty empty 0 -6 0 8 -262144 -1
-1;
#X msg 377 265 1500;
#X msg 456 265 100;
#X msg 417 265 500;
#X obj 384 182 moses 5;
#X obj 443 209 moses 15;
#X obj 593 175 line;
#X obj 485 158 line;
#X obj 401 83 sel 1;
#X floatatom 486 184 5 0 0 0 - - -;
#X floatatom 594 205 5 0 0 0 - - -;
#X msg 485 135 0 \, 50 35000;
#X msg 593 152 0 \, 80 35000;
#X floatatom 366 438 5 0 0 0 - - -;
#X obj 717 505 osc~;
#X obj 717 457 mtof;
#X floatatom 717 483 5 0 0 0 - - -;
#X obj 717 530 *~ 0.7;
#X obj 718 568 dac~;
#X obj 698 35 tgl 15 0 empty empty empty 0 -6 0 8 -262144 -1 -1 0 1
;
#X text 718 31 start;
#X obj 717 432 + 60;
#X obj 717 401 random 40;
#X obj 717 367 metro;
#X obj 793 143 random 100;
#X obj 793 205 bng 15 250 50 0 empty empty empty 0 -6 0 8 -262144 -1
-1;
#X obj 852 222 bng 15 250 50 0 empty empty empty 0 -6 0 8 -262144 -1
-1;
#X obj 911 222 bng 15 250 50 0 empty empty empty 0 -6 0 8 -262144 -1
-1;
#X obj 793 170 moses 5;
#X obj 852 197 moses 15;
#X obj 1002 163 line;
#X obj 894 146 line;
#X obj 810 71 sel 1;
#X floatatom 895 172 5 0 0 0 - - -;
#X floatatom 1003 193 5 0 0 0 - - -;
#X msg 894 123 0 \, 50 35000;
#X msg 1002 140 0 \, 80 35000;
#X obj 770 274 random 100;
#X obj 770 299 + 1450;
#X floatatom 770 323 5 0 0 0 - - -;
#X obj 860 273 random 100;
#X floatatom 860 322 5 0 0 0 - - -;
#X obj 860 298 + 450;
#X obj 951 272 random 100;
#X floatatom 951 321 5 0 0 0 - - -;
#X obj 951 297 + 50;
#X floatatom 767 509 5 0 0 0 - - -;
#X text 23 18 4.1.2.1. probability examples;
#X text 935 595 www.pd-tutorial.com;
#X text 950 568 Johannes Kreidler;
#X connect 0 0 3 0;
#X connect 1 0 2 0;
#X connect 2 0 0 0;
#X connect 3 0 4 0;
#X connect 3 0 4 1;
#X connect 5 0 9 0;
#X connect 7 0 1 0;
#X connect 8 0 7 0;
#X connect 9 0 8 0;
#X connect 9 0 10 0;
#X connect 10 0 17 0;
#X connect 11 0 14 0;
#X connect 12 0 16 0;
#X connect 13 0 15 0;
#X connect 14 0 9 1;
#X connect 15 0 9 1;
#X connect 16 0 9 1;
#X connect 17 0 11 0;
#X connect 17 1 18 0;
#X connect 18 0 12 0;
#X connect 18 1 13 0;
#X connect 19 0 3 1;
#X connect 20 0 23 0;
#X connect 21 0 22 0;
#X connect 22 0 20 0;
#X connect 23 0 24 0;
#X connect 23 0 24 1;
#X connect 25 0 29 0;
#X connect 25 0 41 0;
#X connect 27 0 21 0;
#X connect 28 0 27 0;
#X connect 29 0 28 0;
#X connect 29 0 30 0;
#X connect 30 0 37 0;
#X connect 31 0 34 0;
#X connect 32 0 36 0;
#X connect 33 0 35 0;
#X connect 34 0 29 1;
#X connect 35 0 29 1;
#X connect 36 0 29 1;
#X connect 37 0 31 0;
#X connect 37 1 38 0;
#X connect 38 0 32 0;
#X connect 38 1 33 0;
#X connect 39 0 38 1;
#X connect 39 0 43 0;
#X connect 40 0 37 1;
#X connect 40 0 42 0;
#X connect 41 0 44 0;
#X connect 41 0 45 0;
#X connect 44 0 40 0;
#X connect 45 0 39 0;
#X connect 46 0 23 1;
#X connect 47 0 50 0;
#X connect 48 0 49 0;
#X connect 49 0 47 0;
#X connect 50 0 51 0;
#X connect 50 0 51 1;
#X connect 52 0 56 0;
#X connect 52 0 65 0;
#X connect 54 0 48 0;
#X connect 55 0 54 0;
#X connect 56 0 55 0;
#X connect 56 0 57 0;
#X connect 57 0 61 0;
#X connect 58 0 70 0;
#X connect 59 0 73 0;
#X connect 60 0 76 0;
#X connect 61 0 58 0;
#X connect 61 1 62 0;
#X connect 62 0 59 0;
#X connect 62 1 60 0;
#X connect 63 0 62 1;
#X connect 63 0 67 0;
#X connect 64 0 61 1;
#X connect 64 0 66 0;
#X connect 65 0 68 0;
#X connect 65 0 69 0;
#X connect 68 0 64 0;
#X connect 69 0 63 0;
#X connect 70 0 71 0;
#X connect 71 0 72 0;
#X connect 72 0 56 1;
#X connect 73 0 75 0;
#X connect 74 0 56 1;
#X connect 75 0 74 0;
#X connect 76 0 78 0;
#X connect 77 0 56 1;
#X connect 78 0 77 0;
#X connect 79 0 50 1;
