#N canvas 733 429 365 387 12;
#X obj 42 240 osc~;
#X obj 42 192 mtof;
#X floatatom 42 218 5 0 0 0 - - -;
#X obj 42 265 *~ 0.7;
#X obj 43 303 dac~;
#X obj 42 59 metro 100;
#X obj 42 35 tgl 15 0 empty empty empty 0 -6 0 8 -262144 -1 -1 0 1
;
#X obj 129 115 line;
#X obj 42 167 +;
#X msg 129 88 80 \, 30 20000;
#X obj 42 87 random 20;
#X obj 129 58 sel 1;
#X text 62 31 start;
#X text 114 6 4.1.2.1. Random limits;
#X text 169 332 www.pd-tutorial.com;
#X text 177 292 Johannes Kreidler;
#X connect 0 0 3 0;
#X connect 1 0 2 0;
#X connect 2 0 0 0;
#X connect 3 0 4 0;
#X connect 3 0 4 1;
#X connect 5 0 10 0;
#X connect 6 0 5 0;
#X connect 6 0 11 0;
#X connect 7 0 8 1;
#X connect 8 0 1 0;
#X connect 9 0 7 0;
#X connect 10 0 8 0;
#X connect 11 0 9 0;
