#N canvas 729 294 568 445 12;
#X obj 150 122 random 100;
#X obj 150 153 moses 30;
#X obj 150 185 bng 15 250 50 0 empty empty empty 0 -6 0 8 -262144 -1
-1;
#X obj 209 185 bng 15 250 50 0 empty empty empty 0 -6 0 8 -262144 -1
-1;
#X obj 115 60 bng 15 250 50 0 empty empty empty 0 -6 0 8 -262144 -1
-1;
#X obj 150 248 f;
#X obj 150 275 + 1;
#X obj 209 249 f;
#X obj 209 276 + 1;
#X obj 52 159 f;
#X obj 52 186 + 1;
#X floatatom 131 370 5 0 0 0 - - -;
#X floatatom 190 369 5 0 0 0 - - -;
#X obj 271 90 bng 15 250 50 0 empty empty empty 0 -6 0 8 -262144 -1
-1;
#X obj 131 338 * 100;
#X obj 190 337 * 100;
#X obj 115 79 t b b;
#X obj 131 304 *;
#X obj 190 304 *;
#X obj 51 216 expr 1/$f1;
#X msg 169 219 -1;
#X msg 228 214 -1;
#X msg 99 122 -1;
#X text 39 14 4.1.2.1. probability;
#X text 147 56 then click here many times;
#X text 304 87 first click here to initialize;
#X text 246 369 occurence as a percent;
#X text 394 409 www.pd-tutorial.com;
#X text 410 390 Johannes Kreidler;
#X connect 0 0 1 0;
#X connect 1 0 2 0;
#X connect 1 1 3 0;
#X connect 2 0 5 0;
#X connect 3 0 7 0;
#X connect 4 0 16 0;
#X connect 5 0 6 0;
#X connect 6 0 5 1;
#X connect 6 0 17 1;
#X connect 7 0 8 0;
#X connect 8 0 7 1;
#X connect 8 0 18 1;
#X connect 9 0 10 0;
#X connect 10 0 9 1;
#X connect 10 0 19 0;
#X connect 13 0 22 0;
#X connect 13 0 21 0;
#X connect 13 0 20 0;
#X connect 14 0 11 0;
#X connect 15 0 12 0;
#X connect 16 0 9 0;
#X connect 16 1 0 0;
#X connect 17 0 14 0;
#X connect 18 0 15 0;
#X connect 19 0 18 0;
#X connect 19 0 17 0;
#X connect 20 0 5 0;
#X connect 21 0 7 0;
#X connect 22 0 9 0;
