#N canvas 200 284 710 497 12;
#N canvas 356 373 1090 446 recorder 0;
#X obj 70 239 writesf~;
#X msg 71 122 open rec1.wav \, start;
#X msg 254 124 stop;
#X obj 272 69 t b b;
#X obj 314 192 readsf~;
#X msg 314 153 open rec1.wav \, start;
#X obj 503 249 writesf~;
#X msg 696 131 stop;
#X obj 705 63 t b b;
#X obj 756 199 readsf~;
#X msg 513 129 open rec2.wav \, start;
#X msg 756 160 open rec2.wav \, start;
#X obj 486 346 outlet~;
#X obj 24 19 inlet~;
#X obj 272 31 inlet;
#X obj 213 23 inlet;
#X obj 813 247 del 200;
#X obj 808 228 bng 15 250 50 0 empty empty empty 0 -6 0 8 -262144 -1
-1;
#X text 859 227 Sicherung;
#X obj 297 306 del 200;
#X obj 292 287 bng 15 250 50 0 empty empty empty 0 -6 0 8 -262144 -1
-1;
#X text 343 286 Sicherung;
#X connect 1 0 0 0;
#X connect 2 0 0 0;
#X connect 3 0 5 0;
#X connect 3 0 10 0;
#X connect 3 1 2 0;
#X connect 4 0 12 0;
#X connect 4 1 20 0;
#X connect 5 0 4 0;
#X connect 7 0 6 0;
#X connect 8 0 11 0;
#X connect 8 0 1 0;
#X connect 8 1 7 0;
#X connect 9 0 12 0;
#X connect 9 1 17 0;
#X connect 10 0 6 0;
#X connect 11 0 9 0;
#X connect 13 0 0 0;
#X connect 13 0 6 0;
#X connect 14 0 3 0;
#X connect 15 0 1 0;
#X connect 16 0 3 0;
#X connect 17 0 16 0;
#X connect 19 0 8 0;
#X connect 20 0 19 0;
#X restore 37 259 pd recorder;
#X obj 108 156 bng 15 250 50 0 empty empty empty 0 -6 0 8 -262144 -1
-1;
#X obj 184 189 bng 15 250 50 0 empty empty empty 0 -6 0 8 -262144 -1
-1;
#X obj 38 300 *~ 0.7;
#X obj 39 338 dac~;
#X obj 37 169 adc~;
#X text 104 134 start recording;
#X text 83 32 4.1.2.2. Alvin Lucier - I am sitting in a Room;
#X text 205 188 stop recording - then everything runs;
#X text 211 210 by itself (keep microphone near speaker!);
#X text 483 449 www.pd-tutorial.com;
#X text 491 420 Johannes Kreidler;
#X connect 0 0 3 0;
#X connect 1 0 0 1;
#X connect 2 0 0 2;
#X connect 3 0 4 0;
#X connect 3 0 4 1;
#X connect 5 0 0 0;
#X connect 5 1 0 0;
