#N canvas 269 271 477 334 12;
#X obj 51 196 bng 15 250 50 0 empty empty empty 0 -6 0 8 -262144 -1
-1;
#X obj 51 139 bng 15 250 50 0 empty empty empty 0 -6 0 8 -262144 -1
-1;
#X text 49 114 start!;
#N canvas 1002 136 527 825 abs2delta 0;
#X obj 152 310 niagara 1;
#X msg 204 428 0;
#X obj 155 414 f;
#X obj 136 448 -;
#X obj 136 475 glue;
#X obj 152 275 textfile;
#X msg 177 191 rewind;
#X obj 152 152 t b b b;
#X obj 284 180 inlet;
#X obj 108 539 glue;
#X obj 108 493 bng 15 250 50 0 empty empty empty 0 -6 0 8 -262144 -1
-1;
#X msg 108 513 symbol add;
#X obj 94 662 route list;
#X obj 164 735 textfile;
#X msg 276 680 clear;
#X obj 53 585 bng 15 250 50 0 empty empty empty 0 -6 0 8 -262144 -1
-1;
#X obj 288 614 prepend set;
#X obj 289 583 inlet;
#X msg 288 641 write commands3.txt;
#X obj 152 131 bng 15 250 50 0 empty empty empty 0 -6 0 8 -262144 -1
-1;
#X obj 53 609 t b b;
#X obj 94 633 l;
#X obj 36 652 bng 15 250 50 0 empty empty empty 0 -6 0 8 -262144 -1
-1;
#X msg 11 521 bang;
#X obj 152 358 t b f f b;
#X msg 36 724 bang;
#X obj 36 698 ignore 10;
#X msg 36 672 1;
#X obj 152 105 inlet;
#X obj 36 752 outlet;
#X connect 0 0 24 0;
#X connect 0 1 4 1;
#X connect 1 0 2 1;
#X connect 2 0 3 1;
#X connect 3 0 4 0;
#X connect 4 0 9 1;
#X connect 5 0 0 0;
#X connect 6 0 5 0;
#X connect 7 0 5 0;
#X connect 7 1 6 0;
#X connect 7 2 1 0;
#X connect 7 2 14 0;
#X connect 8 0 5 0;
#X connect 9 0 21 1;
#X connect 9 0 15 0;
#X connect 10 0 11 0;
#X connect 11 0 9 0;
#X connect 12 0 13 0;
#X connect 14 0 13 0;
#X connect 15 0 20 0;
#X connect 16 0 18 0;
#X connect 17 0 16 0;
#X connect 18 0 13 0;
#X connect 19 0 7 0;
#X connect 20 0 22 0;
#X connect 20 1 21 0;
#X connect 21 0 12 0;
#X connect 22 0 23 0;
#X connect 22 0 27 0;
#X connect 23 0 5 0;
#X connect 24 0 10 0;
#X connect 24 1 2 1;
#X connect 24 2 3 0;
#X connect 24 3 2 0;
#X connect 25 0 18 0;
#X connect 25 0 29 0;
#X connect 26 0 25 0;
#X connect 27 0 26 0;
#X connect 28 0 19 0;
#X restore 51 168 pd abs2delta;
#X msg 104 97 read commands-abs.txt;
#X msg 157 139 read commands-delta.txt;
#X text 20 23 4.2.3.1. klist convert 2;
#X text 136 59 first click on both file names;
#X text 76 197 done!;
#X text 243 270 www.pd-tutorial.com;
#X text 259 244 Johannes Kreidler;
#X connect 1 0 3 0;
#X connect 3 0 0 0;
#X connect 4 0 3 1;
#X connect 5 0 3 2;
