#N canvas 573 289 538 682 12;
#X obj 68 140 qlist;
#X msg 101 93 tempo 2 \, rewind \, bang;
#X obj 30 369 phasor~;
#X obj 30 308 random 100;
#X obj 30 280 metro 30;
#X obj 30 258 tgl 15 0 empty empty empty 0 -6 0 8 -262144 -1 -1 0 1
;
#X obj 30 343 +;
#X obj 147 282 r p1off;
#X obj 31 430 *~;
#X obj 110 378 r p1amp;
#X floatatom 147 307 5 0 0 0 - - -;
#X floatatom 110 403 5 0 0 0 - - -;
#X obj 196 517 *~;
#X floatatom 290 458 5 0 0 0 - - -;
#X obj 290 433 r amp;
#X obj 275 338 phasor~;
#X obj 275 277 random 100;
#X obj 275 249 metro 30;
#X obj 275 227 tgl 15 0 empty empty empty 0 -6 0 8 -262144 -1 -1 0
1;
#X obj 275 312 +;
#X obj 276 399 *~;
#X floatatom 392 276 5 0 0 0 - - -;
#X floatatom 355 372 5 0 0 0 - - -;
#X obj 275 201 r p2togg;
#X obj 392 251 r p2off;
#X obj 355 347 r p2amp;
#X msg 71 17 read p.txt;
#X msg 96 62 tempo 1 \, rewind \, bang;
#X obj 196 552 dac~;
#X obj 30 232 r p1togg;
#X text 316 10 4.2.2.1. Score;
#X text 164 12 first load;
#X text 295 65 play;
#X text 345 622 www.pd-tutorial.com;
#X text 360 596 Johannes Kreidler;
#X connect 1 0 0 0;
#X connect 2 0 8 0;
#X connect 3 0 6 0;
#X connect 4 0 3 0;
#X connect 5 0 4 0;
#X connect 6 0 2 0;
#X connect 7 0 10 0;
#X connect 8 0 12 0;
#X connect 9 0 11 0;
#X connect 10 0 6 1;
#X connect 11 0 8 1;
#X connect 12 0 28 0;
#X connect 12 0 28 1;
#X connect 13 0 12 1;
#X connect 14 0 13 0;
#X connect 15 0 20 0;
#X connect 16 0 19 0;
#X connect 17 0 16 0;
#X connect 18 0 17 0;
#X connect 19 0 15 0;
#X connect 20 0 12 0;
#X connect 21 0 19 1;
#X connect 22 0 20 1;
#X connect 23 0 18 0;
#X connect 24 0 21 0;
#X connect 25 0 22 0;
#X connect 26 0 0 0;
#X connect 27 0 0 0;
#X connect 29 0 5 0;
