#N canvas 290 396 470 320 12;
#X obj 52 83 bng 15 250 50 0 empty empty empty 0 -6 0 8 -262144 -1
-1;
#X text 48 63 start!;
#N canvas 0 165 563 692 klist 0;
#X obj 114 223 textfile;
#X msg 114 140 bang;
#X msg 145 193 rewind;
#X obj 114 249 niagara 1;
#X floatatom 114 276 5 0 0 0 - - -;
#X obj 165 335 f;
#X floatatom 146 391 5 0 0 0 - - -;
#X obj 146 367 -;
#X msg 209 299 0;
#X obj 114 298 t f f b;
#X obj 146 438 del 0;
#X obj 146 412 t b f;
#X obj 110 597 remote;
#X obj 110 509 l;
#X obj 75 478 t b b;
#X obj 110 533 route list;
#X obj 114 111 t b b b;
#X obj 114 80 inlet;
#X obj 196 96 inlet;
#X connect 0 0 3 0;
#X connect 1 0 0 0;
#X connect 2 0 0 0;
#X connect 3 0 4 0;
#X connect 3 1 13 1;
#X connect 4 0 9 0;
#X connect 5 0 7 1;
#X connect 6 0 11 0;
#X connect 7 0 6 0;
#X connect 8 0 5 1;
#X connect 9 0 5 1;
#X connect 9 1 7 0;
#X connect 9 2 5 0;
#X connect 10 0 14 0;
#X connect 11 0 10 0;
#X connect 11 1 10 1;
#X connect 13 0 15 0;
#X connect 14 0 1 0;
#X connect 14 1 13 0;
#X connect 15 0 12 0;
#X connect 16 0 1 0;
#X connect 16 1 2 0;
#X connect 16 2 8 0;
#X connect 17 0 16 0;
#X connect 18 0 0 0;
#X restore 52 106 pd klist;
#X msg 111 80 read commands-abs.txt;
#X text 49 18 4.2.3.1. klist;
#X text 109 59 load file;
#X text 247 232 www.pd-tutorial.com;
#X text 261 203 Johannes Kreidler;
#X connect 0 0 2 0;
#X connect 3 0 2 1;
