#N canvas 256 9 670 939 12;
#X obj 111 512 env~ 1024;
#X obj 92 357 *~;
#X obj 94 228 osc~;
#X obj 94 160 random 300;
#X obj 94 196 + 200;
#X obj 182 245 random 100;
#X obj 182 274 / 100;
#X obj 182 328 line~;
#X msg 182 302 \$1 100;
#X obj 94 134 metro;
#X obj 129 110 + 100;
#X obj 108 46 tgl 15 0 empty empty empty 0 -6 0 8 -262144 -1 -1 0 1
;
#X obj 292 357 *~;
#X obj 294 228 osc~;
#X obj 294 160 random 300;
#X obj 294 196 + 200;
#X obj 382 245 random 100;
#X obj 382 274 / 100;
#X obj 382 328 line~;
#X msg 382 302 \$1 100;
#X obj 294 134 metro;
#X obj 329 110 + 100;
#X obj 230 442 *~ 0.5;
#X floatatom 283 597 5 0 0 0 - - -;
#X obj 230 493 dac~;
#X obj 52 461 f;
#X obj 52 490 + 10;
#X msg 93 434 -10;
#X obj 52 405 metro 10;
#X obj 18 336 sel 1;
#X obj 152 853 textfile;
#X obj 195 660 f;
#X obj 171 592 t b b f;
#X msg 156 700 add;
#X obj 181 755 pack s f f;
#X msg 43 786 clear \, rewind;
#X msg 309 779 write protokoll.txt cr;
#X obj 312 751 bng 15 250 50 0 empty empty empty 0 -6 0 8 -262144 -1
-1;
#X obj 180 783 route list;
#X obj 111 549 moses 93;
#X obj 129 84 random 200;
#X obj 329 84 random 200;
#X text 28 7 4.2.2.1. write score;
#X text 137 39 start \, or play a sound file \, then stop;
#X text 452 894 www.pd-tutorial.com;
#X text 471 870 Johannes Kreidler;
#X connect 0 0 39 0;
#X connect 1 0 22 0;
#X connect 2 0 1 0;
#X connect 3 0 4 0;
#X connect 4 0 2 0;
#X connect 5 0 6 0;
#X connect 6 0 8 0;
#X connect 7 0 1 1;
#X connect 8 0 7 0;
#X connect 9 0 3 0;
#X connect 9 0 5 0;
#X connect 9 0 40 0;
#X connect 10 0 9 1;
#X connect 11 0 9 0;
#X connect 11 0 20 0;
#X connect 11 0 28 0;
#X connect 11 0 29 0;
#X connect 12 0 22 0;
#X connect 13 0 12 0;
#X connect 14 0 15 0;
#X connect 15 0 13 0;
#X connect 16 0 17 0;
#X connect 17 0 19 0;
#X connect 18 0 12 1;
#X connect 19 0 18 0;
#X connect 20 0 14 0;
#X connect 20 0 16 0;
#X connect 20 0 41 0;
#X connect 21 0 20 1;
#X connect 22 0 0 0;
#X connect 22 0 24 0;
#X connect 22 0 24 1;
#X connect 25 0 26 0;
#X connect 26 0 31 1;
#X connect 26 0 25 1;
#X connect 27 0 25 1;
#X connect 28 0 25 0;
#X connect 29 0 27 0;
#X connect 29 0 35 0;
#X connect 29 1 37 0;
#X connect 31 0 34 1;
#X connect 32 0 33 0;
#X connect 32 1 31 0;
#X connect 32 2 34 2;
#X connect 33 0 34 0;
#X connect 34 0 38 0;
#X connect 35 0 30 0;
#X connect 36 0 30 0;
#X connect 37 0 36 0;
#X connect 38 0 30 0;
#X connect 39 1 32 0;
#X connect 39 1 23 0;
#X connect 40 0 10 0;
#X connect 41 0 21 0;
