#N canvas 290 396 648 303 12;
#X obj 35 163 bng 15 250 50 0 empty empty empty 0 -6 0 8 -262144 -1
-1;
#X obj 35 106 bng 15 250 50 0 empty empty empty 0 -6 0 8 -262144 -1
-1;
#X text 33 81 start!;
#N canvas 190 75 653 844 delt2abs 0;
#X obj 152 252 niagara 1;
#X msg 242 281 0;
#X obj 219 311 f;
#X obj 238 368 glue;
#X obj 152 224 textfile;
#X msg 177 178 rewind;
#X obj 152 152 t b b b;
#X obj 173 415 glue;
#X obj 163 371 bng 15 250 50 0 empty empty empty 0 -6 0 8 -262144 -1
-1;
#X msg 163 389 symbol add;
#X obj 154 504 route list;
#X obj 154 613 textfile;
#X msg 204 584 clear;
#X obj 119 435 bng 15 250 50 0 empty empty empty 0 -6 0 8 -262144 -1
-1;
#X obj 269 527 prepend set;
#X obj 269 494 inlet;
#X msg 269 554 write commands3.txt;
#X obj 152 132 bng 15 250 50 0 empty empty empty 0 -6 0 8 -262144 -1
-1;
#X obj 119 454 t b b;
#X obj 154 479 l;
#X obj 98 488 bng 15 250 50 0 empty empty empty 0 -6 0 8 -262144 -1
-1;
#X msg 20 319 bang;
#X obj 152 279 t b f f b;
#X msg 99 564 bang;
#X obj 99 540 ignore 10;
#X msg 99 515 1;
#X obj 152 106 inlet;
#X obj 99 592 outlet;
#X obj 215 342 +;
#X obj 270 175 inlet;
#X text 364 527 create clickable message;
#X text 11 545 find end;
#X connect 0 0 22 0;
#X connect 0 1 3 1;
#X connect 1 0 2 1;
#X connect 2 0 28 1;
#X connect 3 0 7 1;
#X connect 4 0 0 0;
#X connect 5 0 4 0;
#X connect 6 0 4 0;
#X connect 6 1 5 0;
#X connect 6 2 1 0;
#X connect 6 2 12 0;
#X connect 7 0 19 1;
#X connect 7 0 13 0;
#X connect 8 0 9 0;
#X connect 9 0 7 0;
#X connect 10 0 11 0;
#X connect 12 0 11 0;
#X connect 13 0 18 0;
#X connect 14 0 16 0;
#X connect 15 0 14 0;
#X connect 16 0 11 0;
#X connect 17 0 6 0;
#X connect 18 0 20 0;
#X connect 18 1 19 0;
#X connect 19 0 10 0;
#X connect 20 0 21 0;
#X connect 20 0 25 0;
#X connect 21 0 4 0;
#X connect 22 0 8 0;
#X connect 22 2 28 0;
#X connect 22 3 2 0;
#X connect 23 0 16 0;
#X connect 23 0 27 0;
#X connect 24 0 23 0;
#X connect 25 0 24 0;
#X connect 26 0 17 0;
#X connect 28 0 3 0;
#X connect 28 0 2 1;
#X connect 29 0 4 0;
#X restore 35 134 pd delt2abs;
#X msg 154 105 write commands-abs.txt;
#X msg 92 79 read commands-delt.txt;
#X text 28 16 4.2.3.1. klist convert 1;
#X text 141 46 first click on both file names;
#X text 60 163 done!;
#X text 309 231 www.pd-tutorial.com;
#X text 310 204 Johannes Kreidler;
#X connect 1 0 3 0;
#X connect 3 0 0 0;
#X connect 4 0 3 2;
#X connect 5 0 3 1;
