#N canvas 695 531 668 427 12;
#X obj 127 97 key;
#X obj 127 123 sel 49;
#X obj 182 122 sel 49;
#X obj 182 97 keyup;
#X obj 57 149 osc~ 666;
#X obj 58 224 *~;
#X obj 95 199 line~;
#X msg 127 157 1 20;
#X msg 182 159 0 20;
#X obj 164 213 tgl 15 0 empty empty empty 0 -6 0 8 -262144 -1 -1 0
1;
#X obj 308 233 *~;
#X obj 307 158 osc~ 400;
#X obj 385 119 ctlin 71;
#X obj 385 145 / 127;
#X obj 387 201 line~;
#X msg 385 178 \$1 20;
#X obj 158 327 *~ 0.6;
#X obj 157 361 dac~;
#X text 438 176 Interpolation;
#X text 41 14 4.3.2.1. Patch Play;
#X text 81 43 press "1" on the keyboard for this:;
#X text 278 89 press 71 on the MIDI controller for this;
#X text 399 360 www.pd-tutorial.com;
#X text 409 330 Johannes Kreidler;
#X connect 0 0 1 0;
#X connect 1 0 7 0;
#X connect 2 0 8 0;
#X connect 3 0 2 0;
#X connect 4 0 5 0;
#X connect 5 0 16 0;
#X connect 6 0 5 1;
#X connect 7 0 6 0;
#X connect 7 0 9 0;
#X connect 8 0 6 0;
#X connect 8 0 9 0;
#X connect 10 0 16 0;
#X connect 11 0 10 0;
#X connect 12 0 13 0;
#X connect 13 0 15 0;
#X connect 14 0 10 1;
#X connect 15 0 14 0;
#X connect 16 0 17 0;
#X connect 16 0 17 1;
