#N canvas 727 312 436 325 12;
#N canvas 0 0 570 776 patch 0;
#X obj 267 644 dac~;
#X obj 274 572 *~;
#X obj 314 422 random 100;
#X obj 314 445 / 100;
#X obj 309 359 metro;
#X obj 344 329 random 1000;
#X obj 307 333 tgl 15 0 empty empty empty 0 -6 0 8 -262144 -1 -1 0
1;
#X obj 315 491 pack f f;
#X obj 316 389 t b b;
#X msg 314 514 \$1 \$2;
#X obj 106 357 osc~;
#X obj 159 383 osc~;
#X obj 81 310 line~;
#X obj 86 128 metro;
#X obj 121 98 random 1000;
#X obj 92 260 pack f f;
#X obj 93 158 t b b;
#X msg 91 283 \$1 \$2;
#X obj 91 191 random 300;
#X obj 190 342 line~;
#X obj 195 160 metro;
#X obj 230 130 random 1000;
#X obj 150 69 tgl 15 0 empty empty empty 0 -6 0 8 -262144 -1 -1 0 1
;
#X obj 201 292 pack f f;
#X obj 202 190 t b b;
#X msg 200 315 \$1 \$2;
#X obj 200 223 random 300;
#X obj 378 641 writesf~;
#X msg 382 588 open rec.wav \, start;
#X msg 441 613 stop;
#X obj 266 617 *~ 0.5;
#X obj 91 224 + 100;
#X obj 110 409 *~;
#X obj 200 256 + 400;
#X obj 313 543 line~;
#X obj 157 31 inlet;
#X obj 315 263 inlet;
#X obj 464 474 inlet;
#X obj 474 503 inlet;
#X text -7 380 Ring modulation;
#X text 302 301 random volume;
#X text 458 542 recording;
#X text 185 61 random glissandi;
#X connect 1 0 27 0;
#X connect 1 0 30 0;
#X connect 2 0 3 0;
#X connect 3 0 7 0;
#X connect 4 0 8 0;
#X connect 5 0 4 1;
#X connect 5 0 7 1;
#X connect 6 0 4 0;
#X connect 7 0 9 0;
#X connect 8 0 2 0;
#X connect 8 1 5 0;
#X connect 9 0 34 0;
#X connect 10 0 32 0;
#X connect 11 0 32 1;
#X connect 12 0 10 0;
#X connect 13 0 16 0;
#X connect 14 0 13 1;
#X connect 14 0 15 1;
#X connect 15 0 17 0;
#X connect 16 0 18 0;
#X connect 16 1 14 0;
#X connect 17 0 12 0;
#X connect 18 0 31 0;
#X connect 19 0 11 0;
#X connect 20 0 24 0;
#X connect 21 0 20 1;
#X connect 21 0 23 1;
#X connect 22 0 20 0;
#X connect 22 0 13 0;
#X connect 23 0 25 0;
#X connect 24 0 26 0;
#X connect 24 1 21 0;
#X connect 25 0 19 0;
#X connect 26 0 33 0;
#X connect 28 0 27 0;
#X connect 29 0 27 0;
#X connect 30 0 0 0;
#X connect 30 0 0 1;
#X connect 31 0 15 0;
#X connect 32 0 1 0;
#X connect 33 0 23 0;
#X connect 34 0 1 1;
#X connect 35 0 22 0;
#X connect 36 0 6 0;
#X connect 37 0 28 0;
#X connect 38 0 29 0;
#X restore 105 184 pd patch;
#X obj 87 65 tgl 15 0 empty empty empty 0 -6 0 8 -262144 -1 -1 0 1
;
#X obj 130 99 tgl 15 0 empty empty empty 0 -6 0 8 -262144 -1 -1 0 1
;
#X obj 159 119 bng 15 250 50 0 empty empty empty 0 -6 0 8 -262144 -1
-1;
#X obj 199 143 bng 15 250 50 0 empty empty empty 0 -6 0 8 -262144 -1
-1;
#X text 13 63 glissandi;
#X text 87 11 5.1.1.1. Subpatch 2;
#X text 135 78 volume;
#X text 185 114 start recording;
#X text 217 140 stop recording;
#X text 220 251 www.pd-tutorial.com;
#X text 239 227 Johannes Kreidler;
#X connect 1 0 0 0;
#X connect 2 0 0 1;
#X connect 3 0 0 2;
#X connect 4 0 0 3;
