#N canvas 501 226 381 264 12;
#X obj 44 77 osc~;
#X obj 128 99 osc~;
#X obj 45 127 *~;
#N canvas 0 0 460 377 zufallslines 0;
#X obj 81 310 line~;
#X obj 86 128 metro;
#X obj 181 92 random 1000;
#X obj 92 260 pack f f;
#X obj 93 158 t b b;
#X msg 91 283 \$1 \$2;
#X obj 91 191 random 300;
#X obj 150 69 tgl 15 0 empty empty empty 0 -6 0 8 -262144 -1 -1 0 1
;
#X obj 157 31 inlet;
#X obj 82 340 outlet~;
#X obj 91 224 + 100;
#X connect 0 0 9 0;
#X connect 1 0 4 0;
#X connect 2 0 1 1;
#X connect 2 0 3 1;
#X connect 3 0 5 0;
#X connect 4 0 6 0;
#X connect 4 1 2 0;
#X connect 5 0 0 0;
#X connect 6 0 10 0;
#X connect 7 0 1 0;
#X connect 8 0 7 0;
#X connect 10 0 3 0;
#X restore 45 37 pd zufallslines;
#X obj 45 18 tgl 15 0 empty empty empty 0 -6 0 8 -262144 -1 -1 0 1
;
#X obj 45 162 *~ 0.5;
#X obj 45 202 dac~;
#N canvas 0 0 460 377 zufallslines 0;
#X obj 81 310 line~;
#X obj 86 128 metro;
#X obj 181 92 random 1000;
#X obj 92 260 pack f f;
#X obj 93 158 t b b;
#X msg 91 283 \$1 \$2;
#X obj 91 191 random 300;
#X obj 150 69 tgl 15 0 empty empty empty 0 -6 0 8 -262144 -1 -1 0 1
;
#X obj 157 31 inlet;
#X obj 82 340 outlet~;
#X obj 91 224 + 100;
#X connect 0 0 9 0;
#X connect 1 0 4 0;
#X connect 2 0 1 1;
#X connect 2 0 3 1;
#X connect 3 0 5 0;
#X connect 4 0 6 0;
#X connect 4 1 2 0;
#X connect 5 0 0 0;
#X connect 6 0 10 0;
#X connect 7 0 1 0;
#X connect 8 0 7 0;
#X connect 10 0 3 0;
#X restore 192 59 pd zufallslines;
#X obj 192 40 tgl 15 0 empty empty empty 0 -6 0 8 -262144 -1 -1 0 1
;
#X text 182 7 5.1.1.1. Module;
#X text 183 203 www.pd-tutorial.com;
#X text 186 172 Johannes Kreidler;
#X connect 0 0 2 0;
#X connect 1 0 2 1;
#X connect 2 0 5 0;
#X connect 3 0 0 0;
#X connect 4 0 3 0;
#X connect 5 0 6 0;
#X connect 5 0 6 1;
#X connect 7 0 1 0;
#X connect 8 0 7 0;
