#N canvas 727 312 706 670 12;
#X obj 264 593 dac~;
#X obj 271 521 *~;
#X obj 311 371 random 100;
#X obj 311 394 / 100;
#X obj 306 308 metro;
#X obj 398 279 random 1000;
#X obj 304 282 tgl 15 0 empty empty empty 0 -6 0 8 -262144 -1 -1 0
1;
#X obj 312 440 pack f f;
#X obj 313 338 t b b;
#X msg 311 463 \$1 \$2;
#X obj 103 306 osc~;
#X obj 156 332 osc~;
#X obj 78 259 line~;
#X obj 83 77 metro;
#X obj 171 41 random 1000;
#X obj 89 209 pack f f;
#X obj 90 107 t b b;
#X msg 88 232 \$1 \$2;
#X obj 88 140 random 300;
#X obj 187 291 line~;
#X obj 192 109 metro;
#X obj 274 85 random 1000;
#X obj 147 18 tgl 15 0 empty empty empty 0 -6 0 8 -262144 -1 -1 0 1
;
#X obj 198 241 pack f f;
#X obj 199 139 t b b;
#X msg 197 264 \$1 \$2;
#X obj 197 172 random 300;
#X obj 375 590 writesf~;
#X msg 379 537 open rec.wav \, start;
#X msg 438 562 stop;
#X obj 263 566 *~ 0.5;
#X obj 88 173 + 100;
#X obj 107 358 *~;
#X obj 197 205 + 400;
#X obj 310 492 line~;
#X text 368 10 5.1.1.1. Subpatch 1;
#X text 182 10 random glissandi;
#X text 299 250 random volume;
#X text 147 358 Ring modulation;
#X text 455 491 recording;
#X text 510 616 www.pd-tutorial.com;
#X text 519 587 Johannes Kreidler;
#X connect 1 0 27 0;
#X connect 1 0 30 0;
#X connect 2 0 3 0;
#X connect 3 0 7 0;
#X connect 4 0 8 0;
#X connect 5 0 4 1;
#X connect 5 0 7 1;
#X connect 6 0 4 0;
#X connect 7 0 9 0;
#X connect 8 0 2 0;
#X connect 8 1 5 0;
#X connect 9 0 34 0;
#X connect 10 0 32 0;
#X connect 11 0 32 1;
#X connect 12 0 10 0;
#X connect 13 0 16 0;
#X connect 14 0 13 1;
#X connect 14 0 15 1;
#X connect 15 0 17 0;
#X connect 16 0 18 0;
#X connect 16 1 14 0;
#X connect 17 0 12 0;
#X connect 18 0 31 0;
#X connect 19 0 11 0;
#X connect 20 0 24 0;
#X connect 21 0 20 1;
#X connect 21 0 23 1;
#X connect 22 0 20 0;
#X connect 22 0 13 0;
#X connect 23 0 25 0;
#X connect 24 0 26 0;
#X connect 24 1 21 0;
#X connect 25 0 19 0;
#X connect 26 0 33 0;
#X connect 28 0 27 0;
#X connect 29 0 27 0;
#X connect 30 0 0 0;
#X connect 30 0 0 1;
#X connect 31 0 15 0;
#X connect 32 0 1 0;
#X connect 33 0 23 0;
#X connect 34 0 1 1;
