#N canvas 501 226 432 321 12;
#X obj 84 17 tgl 15 0 empty empty empty 0 -6 0 8 -262144 -1 -1 0 1
;
#X obj 134 90 tgl 15 0 empty empty empty 0 -6 0 8 -262144 -1 -1 0 1
;
#X obj 155 157 bng 15 250 50 0 empty empty empty 0 -6 0 8 -262144 -1
-1;
#X obj 177 176 bng 15 250 50 0 empty empty empty 0 -6 0 8 -262144 -1
-1;
#X text 10 15 glissandi;
#N canvas 903 226 410 534 glissandi 0;
#X obj 106 357 osc~;
#X obj 159 383 osc~;
#X obj 81 310 line~;
#X obj 86 128 metro;
#X obj 121 98 random 1000;
#X obj 92 260 pack f f;
#X obj 93 158 t b b;
#X msg 91 283 \$1 \$2;
#X obj 91 191 random 300;
#X obj 190 342 line~;
#X obj 195 160 metro;
#X obj 265 131 random 1000;
#X obj 150 69 tgl 15 0 empty empty empty 0 -6 0 8 -262144 -1 -1 0 1
;
#X obj 201 292 pack f f;
#X obj 202 190 t b b;
#X msg 200 315 \$1 \$2;
#X obj 200 223 random 300;
#X obj 91 224 + 100;
#X obj 110 409 *~;
#X obj 200 256 + 400;
#X obj 157 31 inlet;
#X obj 112 448 outlet~;
#X text 185 61 random glissandi;
#X text -7 380 Ring modulation;
#X connect 0 0 18 0;
#X connect 1 0 18 1;
#X connect 2 0 0 0;
#X connect 3 0 6 0;
#X connect 4 0 3 1;
#X connect 4 0 5 1;
#X connect 5 0 7 0;
#X connect 6 0 8 0;
#X connect 6 1 4 0;
#X connect 7 0 2 0;
#X connect 8 0 17 0;
#X connect 9 0 1 0;
#X connect 10 0 14 0;
#X connect 11 0 10 1;
#X connect 11 0 13 1;
#X connect 12 0 10 0;
#X connect 12 0 3 0;
#X connect 13 0 15 0;
#X connect 14 0 16 0;
#X connect 14 1 11 0;
#X connect 15 0 9 0;
#X connect 16 0 19 0;
#X connect 17 0 5 0;
#X connect 18 0 21 0;
#X connect 19 0 13 0;
#X connect 20 0 12 0;
#X restore 84 41 pd glissandi;
#N canvas 0 0 333 470 amp 0;
#X obj 71 200 random 100;
#X obj 71 223 / 100;
#X obj 66 137 metro;
#X obj 140 105 random 1000;
#X obj 64 111 tgl 15 0 empty empty empty 0 -6 0 8 -262144 -1 -1 0 1
;
#X obj 72 269 pack f f;
#X obj 73 167 t b b;
#X msg 71 292 \$1 \$2;
#X obj 70 321 line~;
#X obj 72 41 inlet;
#X obj 73 365 outlet~;
#X text 59 79 random volume;
#X connect 0 0 1 0;
#X connect 1 0 5 0;
#X connect 2 0 6 0;
#X connect 3 0 2 1;
#X connect 3 0 5 1;
#X connect 4 0 2 0;
#X connect 5 0 7 0;
#X connect 6 0 0 0;
#X connect 6 1 3 0;
#X connect 7 0 8 0;
#X connect 8 0 10 0;
#X connect 9 0 4 0;
#X restore 134 111 pd amp;
#N canvas 0 0 470 320 rec 0;
#X obj 77 202 writesf~;
#X msg 81 149 open rec.wav \, start;
#X msg 140 174 stop;
#X obj 163 35 inlet;
#X obj 173 64 inlet;
#X obj 37 99 inlet~;
#X text 157 103 recording;
#X connect 1 0 0 0;
#X connect 2 0 0 0;
#X connect 3 0 1 0;
#X connect 4 0 2 0;
#X connect 5 0 0 0;
#X restore 134 198 pd rec;
#X obj 84 232 *~ 0.5;
#X obj 83 153 *~;
#X obj 83 260 dac~;
#X text 226 12 5.1.1.1. Subpatch 3;
#X text 139 69 volume;
#X text 181 152 start recording;
#X text 195 173 stop recording;
#X text 240 248 www.pd-tutorial.com;
#X text 245 224 Johannes Kreidler;
#X connect 0 0 5 0;
#X connect 1 0 6 0;
#X connect 2 0 7 1;
#X connect 3 0 7 2;
#X connect 5 0 9 0;
#X connect 6 0 9 1;
#X connect 8 0 10 0;
#X connect 8 0 10 1;
#X connect 9 0 7 0;
#X connect 9 0 8 0;
