#N struct g1 float x float y float q;
#N canvas 559 468 495 470 12;
#X obj 117 256 struct g1 float x float y float q;
#X obj 148 132 pointer;
#X obj 57 174 append g1 x y;
#X obj 147 58 t b b b;
#X obj 146 34 bng 15 250 50 0 empty empty empty 0 -6 0 8 -262144 -1
-1;
#X msg 65 123 50 50;
#X obj 77 311 drawpolygon 4444 2 150 0 200 100 220 40;
#X obj 77 337 drawcurve 1 2 150 100 200 200 220 140;
#X obj 74 283 filledpolygon 22 12 3 0 0 100 100 0 100;
#X obj 74 362 filledcurve 22 12 4 0 150 100 250 0 250;
#X text 19 2 5.2.3.1. data structures 5;
#X msg 150 96 traverse pd-graphic \, bang;
#X msg 216 129 \; pd-graphic clear;
#X text 168 30 create;
#N canvas 0 0 478 328 graphic 1;
#X scalar g1 50 50 0 \;;
#X restore 301 225 pd graphic;
#X text 316 434 www.pd-tutorial.com;
#X text 323 404 Johannes Kreidler;
#X connect 1 0 2 2;
#X connect 3 0 5 0;
#X connect 3 1 11 0;
#X connect 3 2 12 0;
#X connect 4 0 3 0;
#X connect 5 0 2 0;
#X connect 11 0 1 0;
