#N struct g1 float x float y float q;
#N canvas 159 395 478 328 12;
#X obj 93 186 struct g1 float x float y float q;
#X obj 53 234 filledpolygon 22 12 3 0 0 100 0 100 100 0 100;
#X obj 92 144 append g1 x y;
#X obj 212 109 pointer;
#X msg 235 77 bang;
#X msg 88 98 50 50;
#X text 20 7 5.2.3.1. data structures 1;
#X text 369 52 first here;
#X text 281 79 then here;
#X text 87 75 finally here;
#N canvas 0 0 458 308 graphic 0;
#X scalar g1 50 50 0 \;;
#X restore 277 135 pd graphic;
#X msg 212 53 traverse pd-graphic;
#X text 268 285 www.pd-tutorial.com;
#X text 272 267 Johannes Kreidler;
#X connect 3 0 2 2;
#X connect 4 0 3 0;
#X connect 5 0 2 0;
#X connect 11 0 3 0;
