#N struct g1 float x float y float q;
#N canvas 463 468 608 412 12;
#X obj 87 283 struct g1 float x float y float q;
#X obj 119 99 pointer;
#X obj 47 331 filledpolygon 22 12 3 0 0 q 0 100 100 0 100;
#X obj 28 141 append g1 x y;
#X msg 24 95 50 50;
#X obj 118 25 t b b b;
#X obj 117 1 bng 15 250 50 0 empty empty empty 0 -6 0 8 -262144 -1
-1;
#X obj 88 239 set g1 q;
#X obj 92 174 t b p;
#X msg 65 200 111;
#X text 355 6 5.2.3.1. data structures 7;
#X text 139 -3 first create;
#X msg 121 63 traverse pd-graphic \, bang;
#X msg 187 96 \; pd-graphic clear;
#N canvas 0 0 482 332 graphic 1;
#X scalar g1 50 50 111 \;;
#X restore 270 248 pd graphic;
#X text 422 364 www.pd-tutorial.com;
#X text 443 340 Johannes Kreidler;
#X connect 1 0 3 2;
#X connect 3 0 8 0;
#X connect 4 0 3 0;
#X connect 5 0 4 0;
#X connect 5 1 12 0;
#X connect 5 2 13 0;
#X connect 6 0 5 0;
#X connect 8 0 9 0;
#X connect 8 1 7 1;
#X connect 9 0 7 0;
#X connect 12 0 1 0;
