#N canvas 393 371 737 610 12;
#X obj 502 372 cnv 9 100 60 c2 c1 Leindwand 20 12 0 14 -33289 -233017
0;
#X floatatom 35 157 3 63 88 0 - - -;
#X floatatom 94 175 3 0 37 0 - - -;
#X text 121 175 y-label;
#X text 63 157 x-label;
#X floatatom 258 32 3 -10 10 0 - - -;
#X floatatom 317 58 3 -10 10 0 - - -;
#X floatatom 260 170 3 20 60 0 - - -;
#X floatatom 321 197 3 150 200 0 - - -;
#X obj 260 217 pack 0 0;
#X text 288 170 x-position;
#X text 356 195 y-position;
#X floatatom 33 267 3 0 2 0 - - -;
#X floatatom 92 285 3 4 36 0 - - -;
#X floatatom 30 493 3 2 20 0 - - -;
#X floatatom 499 27 5 100 1000 0 - - -;
#X floatatom 558 56 4 50 500 0 - - -;
#X obj 499 77 pack 0 0;
#X floatatom 503 284 4 0 0 0 - - -;
#X floatatom 568 283 4 0 0 0 - - -;
#X text 483 283 x=;
#X text 550 283 y=;
#X floatatom 41 30 5 0 0 0 - - -;
#X msg 41 86 \; c1 color \$1 \$2;
#X obj 41 59 pack f f;
#X floatatom 100 36 5 0 0 0 - - -;
#X obj 35 196 pack f f;
#X msg 35 221 \; c1 label_pos \$1 \$2;
#X obj 33 309 pack f f;
#X msg 33 335 \; c1 label_font \$1 \$2;
#X msg 30 521 \; c1 size \$1;
#X msg 258 110 \; c1 delta \$1 \$2;
#X msg 260 242 \; c1 pos \$1 \$2;
#X msg 258 324 \; c1 send c2;
#X msg 502 192 \; c1 get_pos;
#X obj 504 234 r c2;
#X msg 30 420 \; c1 label Leindwand;
#X text 286 31 x-delta-position;
#X text 344 58 y-delta-position;
#X obj 258 85 pack f f;
#X obj 503 259 unpack f f;
#X msg 499 102 \; c1 vis_size \$1 \$2;
#X text 30 398 Name Label;
#X text 61 267 Font;
#X msg 255 398 \; c1 receive c10;
#X text 125 3 5.2.1.1. Canvas;
#X text 146 35 label color;
#X text 36 10 color;
#X text 121 285 Height;
#X text 60 479 Size of blue switchbox;
#X text 261 378 change receive-name;
#X text 544 27 Width;
#X text 596 58 Height;
#X text 506 164 get Position;
#X text 262 306 change send-name;
#X text 523 555 www.pd-tutorial.com;
#X text 528 529 Johannes Kreidler;
#X connect 1 0 26 0;
#X connect 2 0 26 1;
#X connect 5 0 39 0;
#X connect 6 0 39 1;
#X connect 7 0 9 0;
#X connect 8 0 9 1;
#X connect 9 0 32 0;
#X connect 12 0 28 0;
#X connect 13 0 28 1;
#X connect 14 0 30 0;
#X connect 15 0 17 0;
#X connect 16 0 17 1;
#X connect 17 0 41 0;
#X connect 22 0 24 0;
#X connect 24 0 23 0;
#X connect 25 0 24 1;
#X connect 26 0 27 0;
#X connect 28 0 29 0;
#X connect 35 0 40 0;
#X connect 39 0 31 0;
#X connect 40 0 18 0;
#X connect 40 1 19 0;
