#N struct g1 float x float y float q;
#N canvas 642 463 475 366 12;
#X obj 90 208 struct g1 float x float y float q;
#X obj 204 84 pointer;
#X msg 227 52 bang;
#X obj 50 256 filledpolygon 22 12 3 0 0 q 0 100 100 0 100;
#X obj 84 119 append g1 x y q;
#X msg 80 73 50 50 150;
#X text 14 3 5.2.3.1. data structures 2;
#X text 361 27 first here;
#X text 273 54 then here;
#X text 79 50 finally here;
#X msg 204 28 traverse pd-graphic;
#N canvas 0 0 462 312 graphic 0;
#X scalar g1 50 50 150 \;;
#X scalar g1 50 50 0 \;;
#X restore 274 157 pd graphic;
#X text 272 308 www.pd-tutorial.com;
#X text 269 284 Johannes Kreidler;
#X connect 1 0 4 3;
#X connect 2 0 1 0;
#X connect 5 0 4 0;
#X connect 10 0 1 0;
