#N canvas 895 606 461 418 12;
#X obj 61 132 random 400;
#X obj 61 159 + 400;
#X obj 96 81 random 300;
#X obj 61 106 metro;
#X obj 61 82 tgl 15 0 empty empty empty 0 -6 0 8 -262144 -1 -1 0 1
;
#X obj 61 192 osc~;
#X obj 61 222 *~ 0.5;
#X obj 62 251 dac~;
#X msg 151 211 \; cc pos 300 \$1;
#X obj 300 91 cnv 10 10 10 c1 cc empty 20 12 0 14 -1 -66577 0;
#X obj 151 163 / 4;
#X obj 151 186 expr 100-$f1;
#X text 80 14 5.2.2.2. Canvas Display;
#X text 257 354 www.pd-tutorial.com;
#X connect 0 0 1 0;
#X connect 0 0 10 0;
#X connect 1 0 5 0;
#X connect 2 0 3 1;
#X connect 3 0 2 0;
#X connect 3 0 0 0;
#X connect 4 0 3 0;
#X connect 5 0 6 0;
#X connect 6 0 7 0;
#X connect 6 0 7 1;
#X connect 10 0 11 0;
#X connect 11 0 8 0;
