#N struct g2 float x float y array tab g2b;
#N struct g2b float y;
#N canvas 1099 684 482 332 12;
#X obj 39 200 struct g2 float x float y array tab g2b;
#N canvas 164 625 462 312 g2b 0;
#X obj 66 204 struct g2b float y;
#X restore 306 248 pd g2b;
#X obj 53 161 append g2 x y;
#X obj 154 128 pointer;
#X msg 66 97 50 50;
#X obj 58 237 plot tab 27 2 40 40 3;
#X text 15 5 5.2.3.1. data structures 9;
#X obj 78 57 t b b b;
#X obj 86 33 bng 15 250 50 0 empty empty empty 0 -6 0 8 -262144 -1
-1;
#X text 108 33 create;
#X msg 148 94 traverse pd-graphic2 \, bang;
#N canvas 0 0 482 332 graphic2 1;
#X scalar g2 50 50 \; 0 \; \;;
#X restore 358 39 pd graphic2;
#X msg 290 158 \; pd-graphic2 clear;
#X text 296 304 www.pd-tutorial.com;
#X text 310 281 Johannes Kreidler;
#X connect 3 0 2 2;
#X connect 4 0 2 0;
#X connect 7 0 4 0;
#X connect 7 1 10 0;
#X connect 7 2 12 0;
#X connect 8 0 7 0;
#X connect 10 0 3 0;
