#N canvas 237 598 382 352 12;
#X obj 135 47 bng 15 250 50 0 empty empty empty 0 -6 0 8 -262144 -1
-1;
#X obj 82 84 random 800;
#X obj 82 118 + 200;
#X floatatom 82 144 5 0 0 0 - - -;
#X obj 82 177 osc~;
#X obj 83 248 dac~;
#X obj 173 85 random 800;
#X obj 173 119 + 200;
#X floatatom 173 145 5 0 0 0 - - -;
#X obj 173 178 osc~;
#X obj 82 211 *~ 0.5;
#X text 25 4 2.2.1.2.8. two random melodies;
#X text 179 310 www.pd-tutorial.com;
#X text 198 282 Johannes Kreidler;
#X connect 0 0 1 0;
#X connect 0 0 6 0;
#X connect 1 0 2 0;
#X connect 2 0 3 0;
#X connect 3 0 4 0;
#X connect 4 0 10 0;
#X connect 6 0 7 0;
#X connect 7 0 8 0;
#X connect 8 0 9 0;
#X connect 9 0 10 0;
#X connect 10 0 5 0;
#X connect 10 0 5 1;
