#N canvas 246 649 542 396 12;
#X text 118 13 linloggliss;
#X msg 98 79 48 \, 84 30000;
#X obj 98 134 mtof;
#X obj 98 107 line;
#X obj 98 164 osc~;
#X obj 99 195 *~ 0.7;
#X obj 98 267 dac~;
#X text 96 55 linear;
#X obj 235 108 line;
#X obj 235 165 osc~;
#X obj 236 196 *~ 0.7;
#X obj 237 261 dac~;
#X msg 235 81 261.6 \, 1046.5 30000;
#X obj 236 231 *~;
#X obj 297 210 tgl 15 0 empty empty empty 0 -6 0 8 -262144 -1 -1 0
1;
#X obj 98 238 *~;
#X obj 132 222 tgl 15 0 empty empty empty 0 -6 0 8 -262144 -1 -1 0
1;
#X text 28 12 3.1.1.2.2.;
#X text 243 13 (any duration);
#X text 235 52 logarithmic;
#X text 325 352 www.pd-tutorial.com;
#X text 337 321 Johannes Kreidler;
#X connect 1 0 3 0;
#X connect 2 0 4 0;
#X connect 3 0 2 0;
#X connect 4 0 5 0;
#X connect 5 0 15 0;
#X connect 8 0 9 0;
#X connect 9 0 10 0;
#X connect 10 0 13 0;
#X connect 12 0 8 0;
#X connect 13 0 11 0;
#X connect 13 0 11 1;
#X connect 14 0 13 1;
#X connect 15 0 6 0;
#X connect 16 0 15 1;
