#N canvas 246 649 513 436 12;
#X obj 119 153 f;
#X obj 119 184 + 0.5;
#X msg 145 123 59.5;
#X obj 145 97 loadbang;
#X obj 119 71 metro 700;
#X obj 119 223 mtof;
#X obj 119 266 osc~;
#X obj 118 298 *~ 0.7;
#X obj 117 333 *~;
#X obj 151 325 tgl 15 0 empty empty empty 0 -6 0 8 -262144 -1 -1 0
1;
#X obj 118 361 dac~;
#X obj 178 209 sel 72;
#X obj 119 46 tgl 15 0 empty empty empty 0 -6 0 8 -262144 -1 -1 0 1
;
#X msg 215 243 0;
#X text 28 12 3.1.1.2.2.;
#X text 118 13 quarter tone;
#X text 186 124 any starting point: C4;
#X text 232 211 any ending point: C5;
#X text 329 385 www.pd-tutorial.com;
#X text 346 359 Johannes Kreidler;
#X connect 0 0 1 0;
#X connect 1 0 0 1;
#X connect 1 0 5 0;
#X connect 1 0 11 0;
#X connect 2 0 0 1;
#X connect 3 0 2 0;
#X connect 4 0 0 0;
#X connect 5 0 6 0;
#X connect 6 0 7 0;
#X connect 7 0 8 0;
#X connect 8 0 10 0;
#X connect 8 0 10 1;
#X connect 9 0 8 1;
#X connect 11 0 2 0;
#X connect 11 0 13 0;
#X connect 12 0 4 0;
#X connect 13 0 12 0;
