#N canvas 31 345 639 406 12;
#N canvas 0 0 336 455 o1 0;
#X obj 29 28 inlet;
#X obj 29 228 osc~;
#X obj 29 301 outlet~;
#X obj 29 267 *~;
#X obj 83 210 random 100;
#X obj 83 236 / 100;
#X obj 29 61 t b f b;
#X obj 29 133 pack f f;
#X obj 29 109 + 50;
#X obj 29 84 random 50;
#X obj 29 162 line~;
#X obj 29 199 mtof~;
#X text 93 166 mit tilde stabiler;
#X connect 0 0 6 0;
#X connect 1 0 3 0;
#X connect 3 0 2 0;
#X connect 4 0 5 0;
#X connect 5 0 3 1;
#X connect 6 0 9 0;
#X connect 6 1 7 1;
#X connect 6 2 4 0;
#X connect 7 0 10 0;
#X connect 8 0 7 0;
#X connect 9 0 8 0;
#X connect 10 0 11 0;
#X connect 11 0 1 0;
#X restore -2 151 pd o1;
#X obj 173 273 *~;
#X obj 322 246 line~;
#X msg 322 222 \$1 20;
#X obj 325 200 hsl 128 15 0 1 0 0 empty empty empty -2 -6 0 8 -262144
-1 -1 0 1;
#X obj 173 304 dac~;
#X obj 57 63 random 1000;
#X obj 22 91 metro;
#X obj 22 63 tgl 15 0 empty empty empty 0 -6 0 8 -262144 -1 -1 0 1
;
#N canvas 0 0 336 455 o1 0;
#X obj 29 28 inlet;
#X obj 29 228 osc~;
#X obj 29 301 outlet~;
#X obj 29 267 *~;
#X obj 83 210 random 100;
#X obj 83 236 / 100;
#X obj 29 61 t b f b;
#X obj 29 133 pack f f;
#X obj 29 109 + 50;
#X obj 29 84 random 50;
#X obj 29 162 line~;
#X obj 29 199 mtof~;
#X text 93 166 mit tilde stabiler;
#X connect 0 0 6 0;
#X connect 1 0 3 0;
#X connect 3 0 2 0;
#X connect 4 0 5 0;
#X connect 5 0 3 1;
#X connect 6 0 9 0;
#X connect 6 1 7 1;
#X connect 6 2 4 0;
#X connect 7 0 10 0;
#X connect 8 0 7 0;
#X connect 9 0 8 0;
#X connect 10 0 11 0;
#X connect 11 0 1 0;
#X restore 42 151 pd o1;
#N canvas 0 0 336 455 o1 0;
#X obj 29 28 inlet;
#X obj 29 228 osc~;
#X obj 29 301 outlet~;
#X obj 29 267 *~;
#X obj 83 210 random 100;
#X obj 83 236 / 100;
#X obj 29 61 t b f b;
#X obj 29 133 pack f f;
#X obj 29 109 + 50;
#X obj 29 84 random 50;
#X obj 29 162 line~;
#X obj 29 199 mtof~;
#X text 93 166 mit tilde stabiler;
#X connect 0 0 6 0;
#X connect 1 0 3 0;
#X connect 3 0 2 0;
#X connect 4 0 5 0;
#X connect 5 0 3 1;
#X connect 6 0 9 0;
#X connect 6 1 7 1;
#X connect 6 2 4 0;
#X connect 7 0 10 0;
#X connect 8 0 7 0;
#X connect 9 0 8 0;
#X connect 10 0 11 0;
#X connect 11 0 1 0;
#X restore 87 152 pd o1;
#N canvas 0 0 336 455 o1 0;
#X obj 29 28 inlet;
#X obj 29 228 osc~;
#X obj 29 301 outlet~;
#X obj 29 267 *~;
#X obj 83 210 random 100;
#X obj 83 236 / 100;
#X obj 29 61 t b f b;
#X obj 29 133 pack f f;
#X obj 29 109 + 50;
#X obj 29 84 random 50;
#X obj 29 162 line~;
#X obj 29 199 mtof~;
#X text 93 166 mit tilde stabiler;
#X connect 0 0 6 0;
#X connect 1 0 3 0;
#X connect 3 0 2 0;
#X connect 4 0 5 0;
#X connect 5 0 3 1;
#X connect 6 0 9 0;
#X connect 6 1 7 1;
#X connect 6 2 4 0;
#X connect 7 0 10 0;
#X connect 8 0 7 0;
#X connect 9 0 8 0;
#X connect 10 0 11 0;
#X connect 11 0 1 0;
#X restore 131 152 pd o1;
#N canvas 0 0 336 455 o1 0;
#X obj 29 28 inlet;
#X obj 29 228 osc~;
#X obj 29 301 outlet~;
#X obj 29 267 *~;
#X obj 83 210 random 100;
#X obj 83 236 / 100;
#X obj 29 61 t b f b;
#X obj 29 133 pack f f;
#X obj 29 109 + 50;
#X obj 29 84 random 50;
#X obj 29 162 line~;
#X obj 29 199 mtof~;
#X text 93 166 mit tilde stabiler;
#X connect 0 0 6 0;
#X connect 1 0 3 0;
#X connect 3 0 2 0;
#X connect 4 0 5 0;
#X connect 5 0 3 1;
#X connect 6 0 9 0;
#X connect 6 1 7 1;
#X connect 6 2 4 0;
#X connect 7 0 10 0;
#X connect 8 0 7 0;
#X connect 9 0 8 0;
#X connect 10 0 11 0;
#X connect 11 0 1 0;
#X restore 175 152 pd o1;
#N canvas 0 0 336 455 o1 0;
#X obj 29 28 inlet;
#X obj 29 228 osc~;
#X obj 29 301 outlet~;
#X obj 29 267 *~;
#X obj 83 210 random 100;
#X obj 83 236 / 100;
#X obj 29 61 t b f b;
#X obj 29 133 pack f f;
#X obj 29 109 + 50;
#X obj 29 84 random 50;
#X obj 29 162 line~;
#X obj 29 199 mtof~;
#X text 93 166 mit tilde stabiler;
#X connect 0 0 6 0;
#X connect 1 0 3 0;
#X connect 3 0 2 0;
#X connect 4 0 5 0;
#X connect 5 0 3 1;
#X connect 6 0 9 0;
#X connect 6 1 7 1;
#X connect 6 2 4 0;
#X connect 7 0 10 0;
#X connect 8 0 7 0;
#X connect 9 0 8 0;
#X connect 10 0 11 0;
#X connect 11 0 1 0;
#X restore 219 152 pd o1;
#N canvas 0 0 336 455 o1 0;
#X obj 29 28 inlet;
#X obj 29 228 osc~;
#X obj 29 301 outlet~;
#X obj 29 267 *~;
#X obj 83 210 random 100;
#X obj 83 236 / 100;
#X obj 29 61 t b f b;
#X obj 29 133 pack f f;
#X obj 29 109 + 50;
#X obj 29 84 random 50;
#X obj 29 162 line~;
#X obj 29 199 mtof~;
#X text 93 166 mit tilde stabiler;
#X connect 0 0 6 0;
#X connect 1 0 3 0;
#X connect 3 0 2 0;
#X connect 4 0 5 0;
#X connect 5 0 3 1;
#X connect 6 0 9 0;
#X connect 6 1 7 1;
#X connect 6 2 4 0;
#X connect 7 0 10 0;
#X connect 8 0 7 0;
#X connect 9 0 8 0;
#X connect 10 0 11 0;
#X connect 11 0 1 0;
#X restore 264 153 pd o1;
#N canvas 0 0 336 455 o1 0;
#X obj 29 28 inlet;
#X obj 29 228 osc~;
#X obj 29 301 outlet~;
#X obj 29 267 *~;
#X obj 83 210 random 100;
#X obj 83 236 / 100;
#X obj 29 61 t b f b;
#X obj 29 133 pack f f;
#X obj 29 109 + 50;
#X obj 29 84 random 50;
#X obj 29 162 line~;
#X obj 29 199 mtof~;
#X text 93 166 mit tilde stabiler;
#X connect 0 0 6 0;
#X connect 1 0 3 0;
#X connect 3 0 2 0;
#X connect 4 0 5 0;
#X connect 5 0 3 1;
#X connect 6 0 9 0;
#X connect 6 1 7 1;
#X connect 6 2 4 0;
#X connect 7 0 10 0;
#X connect 8 0 7 0;
#X connect 9 0 8 0;
#X connect 10 0 11 0;
#X connect 11 0 1 0;
#X restore 308 153 pd o1;
#X text 11 13 3.1.2.2.5. random chord;
#X text 400 220 the more oscillators \,;
#X text 401 241 the smaller this;
#X text 402 262 value!;
#X text 405 357 www.pd-tutorial.com;
#X text 417 334 Johannes Kreidler;
#X connect 0 0 1 0;
#X connect 1 0 5 0;
#X connect 1 0 5 1;
#X connect 2 0 1 1;
#X connect 3 0 2 0;
#X connect 4 0 3 0;
#X connect 6 0 7 1;
#X connect 6 0 0 0;
#X connect 6 0 9 0;
#X connect 6 0 10 0;
#X connect 6 0 11 0;
#X connect 6 0 12 0;
#X connect 6 0 13 0;
#X connect 6 0 14 0;
#X connect 6 0 15 0;
#X connect 7 0 6 0;
#X connect 8 0 7 0;
#X connect 9 0 1 0;
#X connect 10 0 1 0;
#X connect 11 0 1 0;
#X connect 12 0 1 0;
#X connect 13 0 1 0;
#X connect 14 0 1 0;
#X connect 15 0 1 0;
