#N canvas 125 506 518 462 12;
#X obj 52 107 adc~;
#X obj 51 133 env~ 128;
#X obj 51 163 mtof;
#X obj 51 192 osc~;
#X obj 52 227 *~ 0.7;
#X obj 51 275 *~;
#X obj 105 254 tgl 15 0 empty empty empty 0 -6 0 8 -262144 -1 -1 0
1;
#X obj 50 305 dac~;
#X obj 228 107 adc~;
#X obj 227 133 env~ 128;
#X obj 227 216 mtof;
#X obj 227 248 osc~;
#X obj 227 331 *~;
#X obj 281 310 tgl 15 0 empty empty empty 0 -6 0 8 -262144 -1 -1 0
1;
#X obj 226 361 dac~;
#X obj 228 283 *~ 0.2;
#X obj 227 158 / 2;
#X obj 227 193 + 20;
#X obj 271 216 mtof;
#X obj 271 248 osc~;
#X obj 271 193 + 26;
#X obj 318 217 mtof;
#X obj 318 249 osc~;
#X obj 362 217 mtof;
#X obj 362 249 osc~;
#X obj 318 194 + 30;
#X obj 362 194 + 48;
#X text 56 71 one:;
#X text 26 21 3.1.2.2.5. adc amp control;
#X text 231 70 many:;
#X text 297 394 www.pd-tutorial.com;
#X text 313 366 Johannes Kreidler;
#X connect 0 0 1 0;
#X connect 1 0 2 0;
#X connect 2 0 3 0;
#X connect 3 0 4 0;
#X connect 4 0 5 0;
#X connect 5 0 7 0;
#X connect 5 0 7 1;
#X connect 6 0 5 1;
#X connect 8 0 9 0;
#X connect 9 0 16 0;
#X connect 10 0 11 0;
#X connect 11 0 15 0;
#X connect 12 0 14 0;
#X connect 12 0 14 1;
#X connect 13 0 12 1;
#X connect 15 0 12 0;
#X connect 16 0 17 0;
#X connect 16 0 20 0;
#X connect 16 0 25 0;
#X connect 16 0 26 0;
#X connect 17 0 10 0;
#X connect 18 0 19 0;
#X connect 19 0 15 0;
#X connect 20 0 18 0;
#X connect 21 0 22 0;
#X connect 22 0 15 0;
#X connect 23 0 24 0;
#X connect 24 0 15 0;
#X connect 25 0 21 0;
#X connect 26 0 23 0;
