#N canvas 412 226 979 688 12;
#N canvas 708 490 357 288 o1 0;
#X obj 29 28 inlet;
#X obj 29 56 tgl 15 0 empty empty empty 0 -6 0 8 -262144 -1 -1 0 1
;
#X obj 29 78 metro 80;
#X obj 29 105 random 100;
#X obj 29 163 + 20;
#X obj 29 190 mtof;
#X obj 29 219 osc~;
#X obj 30 249 outlet~;
#X obj 88 24 r tempo;
#X floatatom 88 56 5 0 0 0 - - -;
#X obj 177 37 r ambitus;
#X floatatom 177 64 5 0 0 0 - - -;
#X obj 237 94 r offset;
#X floatatom 237 119 5 0 0 0 - - -;
#X connect 0 0 1 0;
#X connect 1 0 2 0;
#X connect 2 0 3 0;
#X connect 3 0 4 0;
#X connect 4 0 5 0;
#X connect 5 0 6 0;
#X connect 6 0 7 0;
#X connect 8 0 9 0;
#X connect 9 0 2 1;
#X connect 10 0 11 0;
#X connect 11 0 3 1;
#X connect 12 0 13 0;
#X connect 13 0 4 1;
#X restore -9 140 pd o1;
#X obj -9 120 tgl 15 0 empty empty empty 0 -6 0 8 -262144 -1 -1 0 1
;
#X obj 185 272 *~;
#X obj 646 241 line~;
#X msg 646 217 \$1 20;
#X obj 649 195 hsl 128 15 0 1 0 0 empty empty empty -2 -6 0 8 -262144
-1 -1 0 1;
#X obj 384 582 dac~;
#N canvas 708 490 357 288 o1 0;
#X obj 29 28 inlet;
#X obj 29 56 tgl 15 0 empty empty empty 0 -6 0 8 -262144 -1 -1 0 1
;
#X obj 29 78 metro 80;
#X obj 29 105 random 100;
#X obj 29 163 + 20;
#X obj 29 190 mtof;
#X obj 29 219 osc~;
#X obj 30 249 outlet~;
#X obj 88 24 r tempo;
#X floatatom 88 56 5 0 0 0 - - -;
#X obj 177 37 r ambitus;
#X floatatom 177 64 5 0 0 0 - - -;
#X obj 237 94 r offset;
#X floatatom 237 119 5 0 0 0 - - -;
#X connect 0 0 1 0;
#X connect 1 0 2 0;
#X connect 2 0 3 0;
#X connect 3 0 4 0;
#X connect 4 0 5 0;
#X connect 5 0 6 0;
#X connect 6 0 7 0;
#X connect 8 0 9 0;
#X connect 9 0 2 1;
#X connect 10 0 11 0;
#X connect 11 0 3 1;
#X connect 12 0 13 0;
#X connect 13 0 4 1;
#X restore 35 140 pd o1;
#X obj 35 120 tgl 15 0 empty empty empty 0 -6 0 8 -262144 -1 -1 0 1
;
#N canvas 708 490 357 288 o1 0;
#X obj 29 28 inlet;
#X obj 29 56 tgl 15 0 empty empty empty 0 -6 0 8 -262144 -1 -1 0 1
;
#X obj 29 78 metro 80;
#X obj 29 105 random 100;
#X obj 29 163 + 20;
#X obj 29 190 mtof;
#X obj 29 219 osc~;
#X obj 30 249 outlet~;
#X obj 88 24 r tempo;
#X floatatom 88 56 5 0 0 0 - - -;
#X obj 177 37 r ambitus;
#X floatatom 177 64 5 0 0 0 - - -;
#X obj 237 94 r offset;
#X floatatom 237 119 5 0 0 0 - - -;
#X connect 0 0 1 0;
#X connect 1 0 2 0;
#X connect 2 0 3 0;
#X connect 3 0 4 0;
#X connect 4 0 5 0;
#X connect 5 0 6 0;
#X connect 6 0 7 0;
#X connect 8 0 9 0;
#X connect 9 0 2 1;
#X connect 10 0 11 0;
#X connect 11 0 3 1;
#X connect 12 0 13 0;
#X connect 13 0 4 1;
#X restore 79 140 pd o1;
#X obj 79 120 tgl 15 0 empty empty empty 0 -6 0 8 -262144 -1 -1 0 1
;
#N canvas 708 490 357 288 o1 0;
#X obj 29 28 inlet;
#X obj 29 56 tgl 15 0 empty empty empty 0 -6 0 8 -262144 -1 -1 0 1
;
#X obj 29 78 metro 80;
#X obj 29 105 random 100;
#X obj 29 163 + 20;
#X obj 29 190 mtof;
#X obj 29 219 osc~;
#X obj 30 249 outlet~;
#X obj 88 24 r tempo;
#X floatatom 88 56 5 0 0 0 - - -;
#X obj 177 37 r ambitus;
#X floatatom 177 64 5 0 0 0 - - -;
#X obj 237 94 r offset;
#X floatatom 237 119 5 0 0 0 - - -;
#X connect 0 0 1 0;
#X connect 1 0 2 0;
#X connect 2 0 3 0;
#X connect 3 0 4 0;
#X connect 4 0 5 0;
#X connect 5 0 6 0;
#X connect 6 0 7 0;
#X connect 8 0 9 0;
#X connect 9 0 2 1;
#X connect 10 0 11 0;
#X connect 11 0 3 1;
#X connect 12 0 13 0;
#X connect 13 0 4 1;
#X restore 123 140 pd o1;
#X obj 123 120 tgl 15 0 empty empty empty 0 -6 0 8 -262144 -1 -1 0
1;
#N canvas 708 490 357 288 o1 0;
#X obj 29 28 inlet;
#X obj 29 56 tgl 15 0 empty empty empty 0 -6 0 8 -262144 -1 -1 0 1
;
#X obj 29 78 metro 80;
#X obj 29 105 random 100;
#X obj 29 163 + 20;
#X obj 29 190 mtof;
#X obj 29 219 osc~;
#X obj 30 249 outlet~;
#X obj 88 24 r tempo;
#X floatatom 88 56 5 0 0 0 - - -;
#X obj 177 37 r ambitus;
#X floatatom 177 64 5 0 0 0 - - -;
#X obj 237 94 r offset;
#X floatatom 237 119 5 0 0 0 - - -;
#X connect 0 0 1 0;
#X connect 1 0 2 0;
#X connect 2 0 3 0;
#X connect 3 0 4 0;
#X connect 4 0 5 0;
#X connect 5 0 6 0;
#X connect 6 0 7 0;
#X connect 8 0 9 0;
#X connect 9 0 2 1;
#X connect 10 0 11 0;
#X connect 11 0 3 1;
#X connect 12 0 13 0;
#X connect 13 0 4 1;
#X restore 168 140 pd o1;
#X obj 168 120 tgl 15 0 empty empty empty 0 -6 0 8 -262144 -1 -1 0
1;
#N canvas 708 490 357 288 o1 0;
#X obj 29 28 inlet;
#X obj 29 56 tgl 15 0 empty empty empty 0 -6 0 8 -262144 -1 -1 0 1
;
#X obj 29 78 metro 80;
#X obj 29 105 random 100;
#X obj 29 163 + 20;
#X obj 29 190 mtof;
#X obj 29 219 osc~;
#X obj 30 249 outlet~;
#X obj 88 24 r tempo;
#X floatatom 88 56 5 0 0 0 - - -;
#X obj 177 37 r ambitus;
#X floatatom 177 64 5 0 0 0 - - -;
#X obj 237 94 r offset;
#X floatatom 237 119 5 0 0 0 - - -;
#X connect 0 0 1 0;
#X connect 1 0 2 0;
#X connect 2 0 3 0;
#X connect 3 0 4 0;
#X connect 4 0 5 0;
#X connect 5 0 6 0;
#X connect 6 0 7 0;
#X connect 8 0 9 0;
#X connect 9 0 2 1;
#X connect 10 0 11 0;
#X connect 11 0 3 1;
#X connect 12 0 13 0;
#X connect 13 0 4 1;
#X restore 212 140 pd o1;
#X obj 212 120 tgl 15 0 empty empty empty 0 -6 0 8 -262144 -1 -1 0
1;
#N canvas 708 490 357 288 o1 0;
#X obj 29 28 inlet;
#X obj 29 56 tgl 15 0 empty empty empty 0 -6 0 8 -262144 -1 -1 0 1
;
#X obj 29 78 metro 80;
#X obj 29 105 random 100;
#X obj 29 163 + 20;
#X obj 29 190 mtof;
#X obj 29 219 osc~;
#X obj 30 249 outlet~;
#X obj 88 24 r tempo;
#X floatatom 88 56 5 0 0 0 - - -;
#X obj 177 37 r ambitus;
#X floatatom 177 64 5 0 0 0 - - -;
#X obj 237 94 r offset;
#X floatatom 237 119 5 0 0 0 - - -;
#X connect 0 0 1 0;
#X connect 1 0 2 0;
#X connect 2 0 3 0;
#X connect 3 0 4 0;
#X connect 4 0 5 0;
#X connect 5 0 6 0;
#X connect 6 0 7 0;
#X connect 8 0 9 0;
#X connect 9 0 2 1;
#X connect 10 0 11 0;
#X connect 11 0 3 1;
#X connect 12 0 13 0;
#X connect 13 0 4 1;
#X restore 256 140 pd o1;
#X obj 256 120 tgl 15 0 empty empty empty 0 -6 0 8 -262144 -1 -1 0
1;
#N canvas 708 490 357 288 o1 0;
#X obj 29 28 inlet;
#X obj 29 56 tgl 15 0 empty empty empty 0 -6 0 8 -262144 -1 -1 0 1
;
#X obj 29 78 metro 80;
#X obj 29 105 random 100;
#X obj 29 163 + 20;
#X obj 29 190 mtof;
#X obj 29 219 osc~;
#X obj 30 249 outlet~;
#X obj 88 24 r tempo;
#X floatatom 88 56 5 0 0 0 - - -;
#X obj 177 37 r ambitus;
#X floatatom 177 64 5 0 0 0 - - -;
#X obj 237 94 r offset;
#X floatatom 237 119 5 0 0 0 - - -;
#X connect 0 0 1 0;
#X connect 1 0 2 0;
#X connect 2 0 3 0;
#X connect 3 0 4 0;
#X connect 4 0 5 0;
#X connect 5 0 6 0;
#X connect 6 0 7 0;
#X connect 8 0 9 0;
#X connect 9 0 2 1;
#X connect 10 0 11 0;
#X connect 11 0 3 1;
#X connect 12 0 13 0;
#X connect 13 0 4 1;
#X restore 300 140 pd o1;
#X obj 300 120 tgl 15 0 empty empty empty 0 -6 0 8 -262144 -1 -1 0
1;
#N canvas 708 490 357 288 o1 0;
#X obj 29 28 inlet;
#X obj 29 56 tgl 15 0 empty empty empty 0 -6 0 8 -262144 -1 -1 0 1
;
#X obj 29 78 metro 80;
#X obj 29 105 random 100;
#X obj 29 163 + 20;
#X obj 29 190 mtof;
#X obj 29 219 osc~;
#X obj 30 249 outlet~;
#X obj 88 24 r tempo;
#X floatatom 88 56 5 0 0 0 - - -;
#X obj 177 37 r ambitus;
#X floatatom 177 64 5 0 0 0 - - -;
#X obj 237 94 r offset;
#X floatatom 237 119 5 0 0 0 - - -;
#X connect 0 0 1 0;
#X connect 1 0 2 0;
#X connect 2 0 3 0;
#X connect 3 0 4 0;
#X connect 4 0 5 0;
#X connect 5 0 6 0;
#X connect 6 0 7 0;
#X connect 8 0 9 0;
#X connect 9 0 2 1;
#X connect 10 0 11 0;
#X connect 11 0 3 1;
#X connect 12 0 13 0;
#X connect 13 0 4 1;
#X restore 344 140 pd o1;
#X obj 344 120 tgl 15 0 empty empty empty 0 -6 0 8 -262144 -1 -1 0
1;
#N canvas 708 490 357 288 o1 0;
#X obj 29 28 inlet;
#X obj 29 56 tgl 15 0 empty empty empty 0 -6 0 8 -262144 -1 -1 0 1
;
#X obj 29 78 metro 80;
#X obj 29 105 random 100;
#X obj 29 163 + 20;
#X obj 29 190 mtof;
#X obj 29 219 osc~;
#X obj 30 249 outlet~;
#X obj 88 24 r tempo;
#X floatatom 88 56 5 0 0 0 - - -;
#X obj 177 37 r ambitus;
#X floatatom 177 64 5 0 0 0 - - -;
#X obj 237 94 r offset;
#X floatatom 237 119 5 0 0 0 - - -;
#X connect 0 0 1 0;
#X connect 1 0 2 0;
#X connect 2 0 3 0;
#X connect 3 0 4 0;
#X connect 4 0 5 0;
#X connect 5 0 6 0;
#X connect 6 0 7 0;
#X connect 8 0 9 0;
#X connect 9 0 2 1;
#X connect 10 0 11 0;
#X connect 11 0 3 1;
#X connect 12 0 13 0;
#X connect 13 0 4 1;
#X restore 388 140 pd o1;
#X obj 388 120 tgl 15 0 empty empty empty 0 -6 0 8 -262144 -1 -1 0
1;
#N canvas 708 490 357 288 o1 0;
#X obj 29 28 inlet;
#X obj 29 56 tgl 15 0 empty empty empty 0 -6 0 8 -262144 -1 -1 0 1
;
#X obj 29 78 metro 80;
#X obj 29 105 random 100;
#X obj 29 163 + 20;
#X obj 29 190 mtof;
#X obj 29 219 osc~;
#X obj 30 249 outlet~;
#X obj 88 24 r tempo;
#X floatatom 88 56 5 0 0 0 - - -;
#X obj 177 37 r ambitus;
#X floatatom 177 64 5 0 0 0 - - -;
#X obj 237 94 r offset;
#X floatatom 237 119 5 0 0 0 - - -;
#X connect 0 0 1 0;
#X connect 1 0 2 0;
#X connect 2 0 3 0;
#X connect 3 0 4 0;
#X connect 4 0 5 0;
#X connect 5 0 6 0;
#X connect 6 0 7 0;
#X connect 8 0 9 0;
#X connect 9 0 2 1;
#X connect 10 0 11 0;
#X connect 11 0 3 1;
#X connect 12 0 13 0;
#X connect 13 0 4 1;
#X restore 432 140 pd o1;
#X obj 432 120 tgl 15 0 empty empty empty 0 -6 0 8 -262144 -1 -1 0
1;
#N canvas 708 490 357 288 o1 0;
#X obj 29 28 inlet;
#X obj 29 56 tgl 15 0 empty empty empty 0 -6 0 8 -262144 -1 -1 0 1
;
#X obj 29 78 metro 80;
#X obj 29 105 random 100;
#X obj 29 163 + 20;
#X obj 29 190 mtof;
#X obj 29 219 osc~;
#X obj 30 249 outlet~;
#X obj 88 24 r tempo;
#X floatatom 88 56 5 0 0 0 - - -;
#X obj 177 37 r ambitus;
#X floatatom 177 64 5 0 0 0 - - -;
#X obj 237 94 r offset;
#X floatatom 237 119 5 0 0 0 - - -;
#X connect 0 0 1 0;
#X connect 1 0 2 0;
#X connect 2 0 3 0;
#X connect 3 0 4 0;
#X connect 4 0 5 0;
#X connect 5 0 6 0;
#X connect 6 0 7 0;
#X connect 8 0 9 0;
#X connect 9 0 2 1;
#X connect 10 0 11 0;
#X connect 11 0 3 1;
#X connect 12 0 13 0;
#X connect 13 0 4 1;
#X restore 476 140 pd o1;
#X obj 476 120 tgl 15 0 empty empty empty 0 -6 0 8 -262144 -1 -1 0
1;
#N canvas 708 490 357 288 o1 0;
#X obj 29 28 inlet;
#X obj 29 56 tgl 15 0 empty empty empty 0 -6 0 8 -262144 -1 -1 0 1
;
#X obj 29 78 metro 80;
#X obj 29 105 random 100;
#X obj 29 163 + 20;
#X obj 29 190 mtof;
#X obj 29 219 osc~;
#X obj 30 249 outlet~;
#X obj 88 24 r tempo;
#X floatatom 88 56 5 0 0 0 - - -;
#X obj 177 37 r ambitus;
#X floatatom 177 64 5 0 0 0 - - -;
#X obj 237 94 r offset;
#X floatatom 237 119 5 0 0 0 - - -;
#X connect 0 0 1 0;
#X connect 1 0 2 0;
#X connect 2 0 3 0;
#X connect 3 0 4 0;
#X connect 4 0 5 0;
#X connect 5 0 6 0;
#X connect 6 0 7 0;
#X connect 8 0 9 0;
#X connect 9 0 2 1;
#X connect 10 0 11 0;
#X connect 11 0 3 1;
#X connect 12 0 13 0;
#X connect 13 0 4 1;
#X restore 521 140 pd o1;
#X obj 521 120 tgl 15 0 empty empty empty 0 -6 0 8 -262144 -1 -1 0
1;
#N canvas 708 490 357 288 o1 0;
#X obj 29 28 inlet;
#X obj 29 56 tgl 15 0 empty empty empty 0 -6 0 8 -262144 -1 -1 0 1
;
#X obj 29 78 metro 80;
#X obj 29 105 random 100;
#X obj 29 163 + 20;
#X obj 29 190 mtof;
#X obj 29 219 osc~;
#X obj 30 249 outlet~;
#X obj 88 24 r tempo;
#X floatatom 88 56 5 0 0 0 - - -;
#X obj 177 37 r ambitus;
#X floatatom 177 64 5 0 0 0 - - -;
#X obj 237 94 r offset;
#X floatatom 237 119 5 0 0 0 - - -;
#X connect 0 0 1 0;
#X connect 1 0 2 0;
#X connect 2 0 3 0;
#X connect 3 0 4 0;
#X connect 4 0 5 0;
#X connect 5 0 6 0;
#X connect 6 0 7 0;
#X connect 8 0 9 0;
#X connect 9 0 2 1;
#X connect 10 0 11 0;
#X connect 11 0 3 1;
#X connect 12 0 13 0;
#X connect 13 0 4 1;
#X restore 565 140 pd o1;
#X obj 565 120 tgl 15 0 empty empty empty 0 -6 0 8 -262144 -1 -1 0
1;
#N canvas 708 490 357 288 o1 0;
#X obj 29 28 inlet;
#X obj 29 56 tgl 15 0 empty empty empty 0 -6 0 8 -262144 -1 -1 0 1
;
#X obj 29 78 metro 80;
#X obj 29 105 random 100;
#X obj 29 163 + 20;
#X obj 29 190 mtof;
#X obj 29 219 osc~;
#X obj 30 249 outlet~;
#X obj 88 24 r tempo;
#X floatatom 88 56 5 0 0 0 - - -;
#X obj 177 37 r ambitus;
#X floatatom 177 64 5 0 0 0 - - -;
#X obj 237 94 r offset;
#X floatatom 237 119 5 0 0 0 - - -;
#X connect 0 0 1 0;
#X connect 1 0 2 0;
#X connect 2 0 3 0;
#X connect 3 0 4 0;
#X connect 4 0 5 0;
#X connect 5 0 6 0;
#X connect 6 0 7 0;
#X connect 8 0 9 0;
#X connect 9 0 2 1;
#X connect 10 0 11 0;
#X connect 11 0 3 1;
#X connect 12 0 13 0;
#X connect 13 0 4 1;
#X restore 609 140 pd o1;
#X obj 609 120 tgl 15 0 empty empty empty 0 -6 0 8 -262144 -1 -1 0
1;
#N canvas 708 490 357 288 o1 0;
#X obj 29 28 inlet;
#X obj 29 56 tgl 15 0 empty empty empty 0 -6 0 8 -262144 -1 -1 0 1
;
#X obj 29 78 metro 80;
#X obj 29 105 random 100;
#X obj 29 163 + 20;
#X obj 29 190 mtof;
#X obj 29 219 osc~;
#X obj 30 249 outlet~;
#X obj 88 24 r tempo;
#X floatatom 88 56 5 0 0 0 - - -;
#X obj 177 37 r ambitus;
#X floatatom 177 64 5 0 0 0 - - -;
#X obj 237 94 r offset;
#X floatatom 237 119 5 0 0 0 - - -;
#X connect 0 0 1 0;
#X connect 1 0 2 0;
#X connect 2 0 3 0;
#X connect 3 0 4 0;
#X connect 4 0 5 0;
#X connect 5 0 6 0;
#X connect 6 0 7 0;
#X connect 8 0 9 0;
#X connect 9 0 2 1;
#X connect 10 0 11 0;
#X connect 11 0 3 1;
#X connect 12 0 13 0;
#X connect 13 0 4 1;
#X restore 653 140 pd o1;
#X obj 653 120 tgl 15 0 empty empty empty 0 -6 0 8 -262144 -1 -1 0
1;
#X obj 532 87 s tempo;
#X floatatom 532 64 5 0 0 0 - - -;
#X floatatom 594 64 5 0 0 0 - - -;
#X obj 594 87 s ambitus;
#X floatatom 672 64 5 0 0 0 - - -;
#X obj 672 87 s offset;
#X obj 81 421 bp~;
#X floatatom 112 391 5 0 0 0 - - -;
#X floatatom 159 392 5 0 0 0 - - -;
#X obj 82 464 *~;
#X obj 109 442 tgl 15 0 empty empty empty 0 -6 0 8 -262144 -1 -1 0
1;
#X obj 216 417 bp~;
#X floatatom 247 387 5 0 0 0 - - -;
#X floatatom 294 388 5 0 0 0 - - -;
#X obj 217 468 *~;
#X obj 249 430 tgl 15 0 empty empty empty 0 -6 0 8 -262144 -1 -1 0
1;
#X obj 325 420 bp~;
#X floatatom 356 390 5 0 0 0 - - -;
#X floatatom 403 391 5 0 0 0 - - -;
#X obj 422 422 bp~;
#X floatatom 453 392 5 0 0 0 - - -;
#X floatatom 500 393 5 0 0 0 - - -;
#X obj 531 425 bp~;
#X floatatom 562 395 5 0 0 0 - - -;
#X floatatom 609 396 5 0 0 0 - - -;
#X floatatom 688 396 5 0 0 0 - - -;
#X obj 658 469 *~;
#X obj 685 447 tgl 15 0 empty empty empty 0 -6 0 8 -262144 -1 -1 0
1;
#X obj 657 426 hip~;
#X floatatom 766 395 5 0 0 0 - - -;
#X obj 736 468 *~;
#X obj 763 446 tgl 15 0 empty empty empty 0 -6 0 8 -262144 -1 -1 0
1;
#X obj 735 422 lop~;
#X text 554 37 try out values here;
#X text -2 6 3.3.2.3. Orchestra filter;
#X text 706 216 the more oscillators \,;
#X text 709 235 the smaller this value!;
#X text 705 255 but \, depending on the filter \,;
#X text 704 276 you need a strong signal again.;
#X text 460 328 try out values here;
#X text 254 479 2nd module;
#X text 71 495 1st module;
#X text 644 520 3rd module;
#X text 736 499 4th module;
#X text 660 616 www.pd-tutorial.com;
#X text 667 593 Johannes Kreidler;
#X connect 0 0 2 0;
#X connect 1 0 0 0;
#X connect 2 0 43 0;
#X connect 2 0 48 0;
#X connect 2 0 53 0;
#X connect 2 0 56 0;
#X connect 2 0 59 0;
#X connect 2 0 65 0;
#X connect 2 0 69 0;
#X connect 3 0 2 1;
#X connect 4 0 3 0;
#X connect 5 0 4 0;
#X connect 7 0 2 0;
#X connect 8 0 7 0;
#X connect 9 0 2 0;
#X connect 10 0 9 0;
#X connect 11 0 2 0;
#X connect 12 0 11 0;
#X connect 13 0 2 0;
#X connect 14 0 13 0;
#X connect 15 0 2 0;
#X connect 16 0 15 0;
#X connect 17 0 2 0;
#X connect 18 0 17 0;
#X connect 19 0 2 0;
#X connect 20 0 19 0;
#X connect 21 0 2 0;
#X connect 22 0 21 0;
#X connect 23 0 2 0;
#X connect 24 0 23 0;
#X connect 25 0 2 0;
#X connect 26 0 25 0;
#X connect 27 0 2 0;
#X connect 28 0 27 0;
#X connect 29 0 2 0;
#X connect 30 0 29 0;
#X connect 31 0 2 0;
#X connect 32 0 31 0;
#X connect 33 0 2 0;
#X connect 34 0 33 0;
#X connect 35 0 2 0;
#X connect 36 0 35 0;
#X connect 38 0 37 0;
#X connect 39 0 40 0;
#X connect 41 0 42 0;
#X connect 43 0 46 0;
#X connect 44 0 43 1;
#X connect 45 0 43 2;
#X connect 46 0 6 0;
#X connect 46 0 6 1;
#X connect 47 0 46 1;
#X connect 48 0 51 0;
#X connect 49 0 48 1;
#X connect 50 0 48 2;
#X connect 51 0 6 0;
#X connect 51 0 6 1;
#X connect 52 0 51 1;
#X connect 53 0 51 0;
#X connect 54 0 53 1;
#X connect 55 0 53 2;
#X connect 56 0 51 0;
#X connect 57 0 56 1;
#X connect 58 0 56 2;
#X connect 59 0 51 0;
#X connect 60 0 59 1;
#X connect 61 0 59 2;
#X connect 62 0 65 1;
#X connect 63 0 6 0;
#X connect 63 0 6 1;
#X connect 64 0 63 1;
#X connect 65 0 63 0;
#X connect 66 0 69 1;
#X connect 67 0 6 0;
#X connect 67 0 6 1;
#X connect 68 0 67 1;
#X connect 69 0 67 0;
