#N canvas 138 341 1132 743 12;
#X obj 318 53 bng 15 250 50 0 empty empty empty 0 -6 0 8 -262144 -1
-1;
#X obj 9 140 noise~;
#X obj 8 218 bp~ 0 50;
#X obj 37 171 random 10000;
#X floatatom 37 197 5 0 0 0 - - -;
#X obj 84 133 bng 15 250 50 0 empty empty empty 0 -6 0 8 -262144 -1
-1;
#X obj 137 140 noise~;
#X obj 136 218 bp~ 0 50;
#X obj 165 171 random 10000;
#X floatatom 165 197 5 0 0 0 - - -;
#X obj 212 133 bng 15 250 50 0 empty empty empty 0 -6 0 8 -262144 -1
-1;
#X obj 265 138 noise~;
#X obj 264 216 bp~ 0 50;
#X obj 293 169 random 10000;
#X floatatom 293 195 5 0 0 0 - - -;
#X obj 340 131 bng 15 250 50 0 empty empty empty 0 -6 0 8 -262144 -1
-1;
#X obj 393 138 noise~;
#X obj 392 216 bp~ 0 50;
#X obj 421 169 random 10000;
#X floatatom 421 195 5 0 0 0 - - -;
#X obj 468 131 bng 15 250 50 0 empty empty empty 0 -6 0 8 -262144 -1
-1;
#X obj 521 133 noise~;
#X obj 520 211 bp~ 0 50;
#X obj 549 164 random 10000;
#X floatatom 549 190 5 0 0 0 - - -;
#X obj 596 126 bng 15 250 50 0 empty empty empty 0 -6 0 8 -262144 -1
-1;
#X obj 649 133 noise~;
#X obj 648 211 bp~ 0 50;
#X obj 677 164 random 10000;
#X floatatom 677 190 5 0 0 0 - - -;
#X obj 724 126 bng 15 250 50 0 empty empty empty 0 -6 0 8 -262144 -1
-1;
#X obj 777 131 noise~;
#X obj 776 209 bp~ 0 50;
#X obj 805 162 random 10000;
#X floatatom 805 188 5 0 0 0 - - -;
#X obj 852 124 bng 15 250 50 0 empty empty empty 0 -6 0 8 -262144 -1
-1;
#X obj 905 131 noise~;
#X obj 904 209 bp~ 0 50;
#X obj 933 162 random 10000;
#X floatatom 933 188 5 0 0 0 - - -;
#X obj 980 124 bng 15 250 50 0 empty empty empty 0 -6 0 8 -262144 -1
-1;
#X obj 393 611 *~;
#X floatatom 421 585 5 0 0 0 - - -;
#X obj 392 652 dac~;
#X obj 445 403 delwrite~ buff 1000;
#X obj 393 551 +~;
#X obj 436 526 vd~ buff;
#X obj 436 499 sig~;
#X floatatom 436 474 5 0 0 0 - - -;
#X obj 392 352 *~ 1;
#X text 2 -11 3.4.2.11. comb filter use;
#X text 346 49 new color;
#X text 433 452 delay (ms);
#X text 470 586 total volume;
#X text 862 657 www.pd-tutorial.com;
#X text 870 630 Johannes Kreidler;
#X connect 0 0 5 0;
#X connect 0 0 10 0;
#X connect 0 0 15 0;
#X connect 0 0 20 0;
#X connect 0 0 25 0;
#X connect 0 0 30 0;
#X connect 0 0 35 0;
#X connect 0 0 40 0;
#X connect 1 0 2 0;
#X connect 2 0 49 0;
#X connect 3 0 4 0;
#X connect 4 0 2 1;
#X connect 5 0 3 0;
#X connect 6 0 7 0;
#X connect 7 0 49 0;
#X connect 8 0 9 0;
#X connect 9 0 7 1;
#X connect 10 0 8 0;
#X connect 11 0 12 0;
#X connect 12 0 49 0;
#X connect 13 0 14 0;
#X connect 14 0 12 1;
#X connect 15 0 13 0;
#X connect 16 0 17 0;
#X connect 17 0 49 0;
#X connect 18 0 19 0;
#X connect 19 0 17 1;
#X connect 20 0 18 0;
#X connect 21 0 22 0;
#X connect 22 0 49 0;
#X connect 23 0 24 0;
#X connect 24 0 22 1;
#X connect 25 0 23 0;
#X connect 26 0 27 0;
#X connect 27 0 49 0;
#X connect 28 0 29 0;
#X connect 29 0 27 1;
#X connect 30 0 28 0;
#X connect 31 0 32 0;
#X connect 32 0 49 0;
#X connect 33 0 34 0;
#X connect 34 0 32 1;
#X connect 35 0 33 0;
#X connect 36 0 37 0;
#X connect 37 0 49 0;
#X connect 38 0 39 0;
#X connect 39 0 37 1;
#X connect 40 0 38 0;
#X connect 41 0 43 0;
#X connect 41 0 43 1;
#X connect 42 0 41 1;
#X connect 45 0 41 0;
#X connect 46 0 45 1;
#X connect 47 0 46 0;
#X connect 48 0 47 0;
#X connect 49 0 44 0;
#X connect 49 0 45 0;
