#N canvas 1054 151 651 627 12;
#X obj 103 365 tabwrite~ array1;
#N canvas 0 0 450 300 graph2 0;
#X array array1 100 float 0;
#X coords 0 1 99 -1 200 140 1;
#X restore 102 406 graph;
#X obj 190 304 bng 15 250 50 0 empty empty empty 0 -6 0 8 -262144 -1
-1;
#X obj 330 87 noise~;
#X obj 329 134 snapshot~;
#X obj 329 196 line~;
#X obj 422 54 tgl 15 0 empty empty empty 0 -6 0 8 -262144 -1 -1 0 1
;
#X msg 329 163 \$1 1;
#X obj 422 77 metro 1;
#X obj 349 284 cos~;
#X obj 348 255 +~;
#X obj 440 189 phasor~;
#X floatatom 440 156 5 0 0 0 - - -;
#X obj 374 372 *~ 0.7;
#X obj 375 411 dac~;
#X text 78 -16 3.5.2.4. change wave constantly;
#X text 422 32 random values;
#X text 439 129 Frequency;
#X text 187 280 graph;
#X text 442 550 www.pd-tutorial.com;
#X text 448 517 Johannes Kreidler;
#X connect 2 0 0 0;
#X connect 3 0 4 0;
#X connect 4 0 7 0;
#X connect 5 0 10 0;
#X connect 6 0 8 0;
#X connect 7 0 5 0;
#X connect 8 0 4 0;
#X connect 9 0 0 0;
#X connect 9 0 13 0;
#X connect 10 0 9 0;
#X connect 11 0 10 1;
#X connect 12 0 11 0;
#X connect 13 0 14 0;
#X connect 13 0 14 1;
