#N canvas 420 509 487 388 12;
#X obj 36 47 adc~;
#X obj 37 88 fiddle~ 1024;
#X obj 97 146 mtof;
#X obj 97 174 osc~;
#X obj 97 117 + 7;
#X obj 98 216 *~;
#X obj 145 189 tgl 15 0 empty empty empty 0 -6 0 8 -262144 -1 -1 0
1;
#X obj 232 143 mtof;
#X obj 232 171 osc~;
#X obj 232 114 + 7;
#X obj 407 185 tgl 15 0 empty empty empty 0 -6 0 8 -262144 -1 -1 0
1;
#X obj 306 141 mtof;
#X obj 306 169 osc~;
#X obj 306 114 + 11;
#X obj 351 140 mtof;
#X obj 351 168 osc~;
#X obj 351 113 + 14;
#X obj 233 213 *~ 0.4;
#X obj 233 239 *~;
#X obj 136 285 *~ 0.7;
#X obj 137 324 dac~;
#X text 14 18 3.8.3.5. followers;
#X text 401 159 chord;
#X text 148 161 fifth;
#X text 286 332 www.pd-tutorial.com;
#X text 305 304 Johannes Kreidler;
#X connect 0 0 1 0;
#X connect 0 1 1 0;
#X connect 1 2 4 0;
#X connect 1 2 9 0;
#X connect 1 2 13 0;
#X connect 1 2 16 0;
#X connect 2 0 3 0;
#X connect 3 0 5 0;
#X connect 4 0 2 0;
#X connect 5 0 19 0;
#X connect 6 0 5 1;
#X connect 7 0 8 0;
#X connect 8 0 17 0;
#X connect 9 0 7 0;
#X connect 10 0 18 1;
#X connect 11 0 12 0;
#X connect 12 0 17 0;
#X connect 13 0 11 0;
#X connect 14 0 15 0;
#X connect 15 0 17 0;
#X connect 16 0 14 0;
#X connect 17 0 18 0;
#X connect 18 0 19 0;
#X connect 19 0 20 0;
#X connect 19 0 20 1;
