#N canvas 50 323 830 714 12;
#X obj 29 94 inlet~;
#X floatatom 526 360 5 0 0 0 - - -;
#X obj 230 143 env~ 1024;
#X floatatom 526 298 5 0 0 0 - - -;
#X obj 526 445 dbtorms;
#X floatatom 526 479 12 0 0 0 - - -;
#X floatatom 526 421 5 0 0 0 - - -;
#X obj 526 394 expr 100 + $f1;
#X obj 28 640 outlet~;
#X obj 28 613 *~;
#X obj 48 586 line~;
#X msg 48 562 \$1 20;
#X obj 29 155 delwrite~ comp 100;
#X text 98 561 attack: 20 ms;
#X obj 230 201 moses;
#X floatatom 230 176 5 0 0 0 - - -;
#X msg 74 518 \$1 20;
#X text 124 518 release: 20 ms;
#X floatatom 319 138 5 0 0 0 - - -;
#X obj 29 227 delread~ comp 23.22;
#X floatatom 230 359 5 0 0 0 - - -;
#X floatatom 230 297 5 0 0 0 - - -;
#X obj 230 444 dbtorms;
#X floatatom 230 478 12 0 0 0 - - -;
#X floatatom 230 420 5 0 0 0 - - -;
#X obj 230 393 expr 100 + $f1;
#X obj 230 321 expr (($f1 - 100) / 10) - $f1 + 100;
#X obj 526 322 expr (($f1 - 20) / 10) - $f1 + 20;
#X text 32 16 3.9.1.2. amp invert;
#X text 28 69 input signal;
#X text 573 654 www.pd-tutorial.com;
#X text 583 623 Johannes Kreidler;
#X connect 0 0 12 0;
#X connect 0 0 2 0;
#X connect 1 0 7 0;
#X connect 2 0 15 0;
#X connect 3 0 27 0;
#X connect 4 0 5 0;
#X connect 5 0 11 0;
#X connect 6 0 4 0;
#X connect 7 0 6 0;
#X connect 9 0 8 0;
#X connect 10 0 9 1;
#X connect 11 0 10 0;
#X connect 14 0 21 0;
#X connect 14 1 3 0;
#X connect 15 0 14 0;
#X connect 16 0 10 0;
#X connect 18 0 14 1;
#X connect 19 0 9 0;
#X connect 20 0 25 0;
#X connect 21 0 26 0;
#X connect 22 0 23 0;
#X connect 23 0 16 0;
#X connect 24 0 22 0;
#X connect 25 0 24 0;
#X connect 26 0 20 0;
#X connect 27 0 1 0;
