#N canvas 156 187 942 866 12;
#N canvas 0 0 450 300 graph1 0;
#X array array1 62079 float 2;
#X coords 0 1 62079 -1 200 140 1;
#X restore 291 29 graph;
#X obj 293 253 soundfiler;
#X msg 293 223 read -resize voice.wav array1;
#X obj 94 492 line~;
#X msg 94 467 0 \, 62079 \$1;
#X obj 95 525 tabread4~ array1;
#X obj 302 469 pack f f;
#X obj 302 522 line~;
#X obj 293 194 loadbang;
#X obj 136 616 tabwrite~ array2;
#X obj 94 428 t b f f;
#X msg 154 564 \; array2 resize \$1;
#X obj 514 35 table array2 100000;
#X obj 82 771 dac~;
#X obj 110 328 bng 15 250 50 0 empty empty empty 0 -6 0 8 -262144 -1
-1;
#X msg 302 497 0 \, \$2 \$1;
#X obj 232 484 del;
#X obj 302 424 t b f f;
#X msg 343 597 \; array3 resize \$1;
#X obj 325 649 tabwrite~ array3;
#X obj 303 555 tabread4~ array2;
#X obj 514 61 table array3 100000;
#X obj 302 350 bng 15 250 50 0 empty empty empty 0 -6 0 8 -262144 -1
-1;
#X obj 194 430 * 44.1;
#X obj 504 464 pack f f;
#X obj 504 517 line~;
#X msg 504 492 0 \, \$2 \$1;
#X obj 504 419 t b f f;
#X obj 504 345 bng 15 250 50 0 empty empty empty 0 -6 0 8 -262144 -1
-1;
#X obj 505 550 tabread4~ array3;
#X msg 545 592 \; array2 resize \$1;
#X obj 527 644 tabwrite~ array2;
#X obj 433 474 del;
#X obj 415 418 * 44.1;
#X obj 639 493 del;
#X obj 621 431 * 44.1;
#X text 108 301 start;
#X obj 94 396 + 10;
#X obj 302 396 + 10;
#X obj 504 391 + 10;
#X obj 302 371 random 5000;
#X obj 504 366 random 5000;
#X obj 94 369 random 5000;
#X obj 82 715 *~ 0.7;
#X msg 718 425 stop;
#X text 716 396 stop;
#X text 24 37 4.1.2.3. sample false;
#X text 52 274 different each time:;
#X text 694 807 www.pd-tutorial.com;
#X text 702 778 Johannes Kreidler;
#X connect 2 0 1 0;
#X connect 3 0 5 0;
#X connect 4 0 3 0;
#X connect 5 0 9 0;
#X connect 5 0 43 0;
#X connect 6 0 15 0;
#X connect 7 0 20 0;
#X connect 8 0 2 0;
#X connect 10 0 9 0;
#X connect 10 0 16 0;
#X connect 10 1 4 0;
#X connect 10 2 16 1;
#X connect 10 2 23 0;
#X connect 14 0 42 0;
#X connect 15 0 7 0;
#X connect 16 0 22 0;
#X connect 17 0 19 0;
#X connect 17 0 32 0;
#X connect 17 1 6 0;
#X connect 17 2 33 0;
#X connect 17 2 32 1;
#X connect 20 0 19 0;
#X connect 20 0 43 0;
#X connect 22 0 40 0;
#X connect 23 0 6 1;
#X connect 23 0 11 0;
#X connect 24 0 26 0;
#X connect 25 0 29 0;
#X connect 26 0 25 0;
#X connect 27 0 31 0;
#X connect 27 0 34 0;
#X connect 27 1 24 0;
#X connect 27 2 35 0;
#X connect 27 2 34 1;
#X connect 28 0 41 0;
#X connect 29 0 31 0;
#X connect 29 0 43 0;
#X connect 32 0 28 0;
#X connect 33 0 24 1;
#X connect 33 0 18 0;
#X connect 34 0 22 0;
#X connect 35 0 6 1;
#X connect 35 0 30 0;
#X connect 37 0 10 0;
#X connect 38 0 17 0;
#X connect 39 0 27 0;
#X connect 40 0 38 0;
#X connect 41 0 39 0;
#X connect 42 0 37 0;
#X connect 43 0 13 0;
#X connect 43 0 13 1;
#X connect 44 0 34 0;
#X connect 44 0 32 0;
