#N canvas 54 284 593 736 12;
#X floatatom 105 96 5 0 0 0 - - -;
#X obj 105 121 phasor~;
#X obj 104 150 clip~ 0.2 0.5;
#X obj 104 181 cos~;
#X obj 105 210 clip~ -0.8 -0.2;
#X obj 104 239 cos~;
#X obj 105 271 cos~;
#X obj 105 297 -~ 0.4;
#X obj 104 327 cos~;
#X obj 103 365 tabwrite~ array1;
#N canvas 0 0 450 300 graph2 0;
#X array array1 100 float 0;
#X coords 0 1 99 -1 200 140 1;
#X restore 96 503 graph;
#X obj 206 334 bng 15 250 50 0 empty empty empty 0 -6 0 8 -262144 -1
-1;
#X obj 254 96 wrap~;
#X obj 253 66 +~ 0.27;
#X obj 287 469 dac~;
#X text 107 68 Freq;
#X obj 60 439 delwrite~ buff33 1000;
#X obj 288 436 *~ 0.5;
#X obj 252 38 delread~ buff33 750;
#X obj 60 413 *~ 1.1;
#X text 73 4 4.1.2.3. Waveshape-Feedback;
#X text 206 309 graph;
#X text 365 666 www.pd-tutorial.com;
#X text 377 640 Johannes Kreidler;
#X connect 0 0 1 0;
#X connect 1 0 2 0;
#X connect 2 0 3 0;
#X connect 3 0 4 0;
#X connect 4 0 5 0;
#X connect 5 0 6 0;
#X connect 6 0 7 0;
#X connect 7 0 8 0;
#X connect 8 0 9 0;
#X connect 8 0 17 0;
#X connect 8 0 19 0;
#X connect 11 0 9 0;
#X connect 12 0 2 0;
#X connect 13 0 12 0;
#X connect 17 0 14 0;
#X connect 17 0 14 1;
#X connect 18 0 13 0;
#X connect 19 0 16 0;
