#N canvas 608 352 1218 686 12;
#X obj 252 526 textfile;
#X msg 96 308 symbol p1togg;
#X msg 49 308 add;
#X obj 31 396 route list;
#X obj 54 249 random 2;
#X obj 31 367 pack s f s f;
#X obj 54 275 t b b b f;
#X obj 59 344 random 300;
#X msg 218 309 add;
#X obj 200 397 route list;
#X obj 200 368 pack s f s f;
#X obj 223 276 t b b b f;
#X obj 228 345 random 300;
#X msg 265 309 symbol p1off;
#X obj 223 249 + 300;
#X obj 223 221 random 2000;
#X msg 378 309 add;
#X obj 360 397 route list;
#X obj 360 368 pack s f s f;
#X obj 383 276 t b b b f;
#X obj 388 345 random 300;
#X obj 383 221 random 100;
#X obj 383 249 / 100;
#X msg 534 307 add;
#X obj 516 395 route list;
#X obj 539 248 random 2;
#X obj 516 366 pack s f s f;
#X obj 539 274 t b b b f;
#X obj 544 343 random 300;
#X msg 703 308 add;
#X obj 685 396 route list;
#X obj 685 367 pack s f s f;
#X obj 708 275 t b b b f;
#X obj 713 344 random 300;
#X obj 708 248 + 300;
#X obj 708 220 random 2000;
#X msg 863 308 add;
#X obj 845 396 route list;
#X obj 845 367 pack s f s f;
#X obj 868 275 t b b b f;
#X obj 873 344 random 300;
#X obj 868 220 random 100;
#X obj 868 248 / 100;
#X msg 581 307 symbol p2togg;
#X msg 750 308 symbol p2off;
#X msg 910 308 symbol p2amp;
#X msg 425 309 symbol p1amp;
#X obj 205 122 Uzi 100;
#X obj 205 172 route 0 1 2 3 4 5 6;
#X msg 1017 308 add;
#X obj 999 396 route list;
#X obj 999 367 pack s f s f;
#X obj 1022 275 t b b b f;
#X obj 1027 344 random 300;
#X msg 1064 308 symbol amp;
#X obj 205 75 bng 15 250 50 0 empty empty empty 0 -6 0 8 -262144 -1
-1;
#X text 231 71 create!;
#X obj 203 93 t b b b;
#X msg 631 478 clear \, rewind;
#X msg 106 478 write p1.txt;
#X obj 205 147 random 7;
#X obj 1022 203 random 50;
#X obj 1022 227 / 50;
#X obj 1022 251 + 0.5;
#X text 76 13 4.2.2.2. textcreate;
#X text 262 587 then load "p1.txt" in the patch 4-3-3-1-score.pd;
#X text 57 46 in a simpler version:;
#X text 969 648 www.pd-tutorial.com;
#X text 971 624 Johannes Kreidler;
#X connect 1 0 5 2;
#X connect 2 0 5 0;
#X connect 3 0 0 0;
#X connect 4 0 6 0;
#X connect 5 0 3 0;
#X connect 6 0 2 0;
#X connect 6 1 7 0;
#X connect 6 2 1 0;
#X connect 6 3 5 3;
#X connect 7 0 5 1;
#X connect 8 0 10 0;
#X connect 9 0 0 0;
#X connect 10 0 9 0;
#X connect 11 0 8 0;
#X connect 11 1 12 0;
#X connect 11 2 13 0;
#X connect 11 3 10 3;
#X connect 12 0 10 1;
#X connect 13 0 10 2;
#X connect 14 0 11 0;
#X connect 15 0 14 0;
#X connect 16 0 18 0;
#X connect 17 0 0 0;
#X connect 18 0 17 0;
#X connect 19 0 16 0;
#X connect 19 1 20 0;
#X connect 19 2 46 0;
#X connect 19 3 18 3;
#X connect 20 0 18 1;
#X connect 21 0 22 0;
#X connect 22 0 19 0;
#X connect 23 0 26 0;
#X connect 24 0 0 0;
#X connect 25 0 27 0;
#X connect 26 0 24 0;
#X connect 27 0 23 0;
#X connect 27 1 28 0;
#X connect 27 2 43 0;
#X connect 27 3 26 3;
#X connect 28 0 26 1;
#X connect 29 0 31 0;
#X connect 30 0 0 0;
#X connect 31 0 30 0;
#X connect 32 0 29 0;
#X connect 32 1 33 0;
#X connect 32 2 44 0;
#X connect 32 3 31 3;
#X connect 33 0 31 1;
#X connect 34 0 32 0;
#X connect 35 0 34 0;
#X connect 36 0 38 0;
#X connect 37 0 0 0;
#X connect 38 0 37 0;
#X connect 39 0 36 0;
#X connect 39 1 40 0;
#X connect 39 2 45 0;
#X connect 39 3 38 3;
#X connect 40 0 38 1;
#X connect 41 0 42 0;
#X connect 42 0 39 0;
#X connect 43 0 26 2;
#X connect 44 0 31 2;
#X connect 45 0 38 2;
#X connect 46 0 18 2;
#X connect 47 0 60 0;
#X connect 48 0 4 0;
#X connect 48 1 15 0;
#X connect 48 2 21 0;
#X connect 48 3 25 0;
#X connect 48 4 35 0;
#X connect 48 5 41 0;
#X connect 48 6 61 0;
#X connect 49 0 51 0;
#X connect 50 0 0 0;
#X connect 51 0 50 0;
#X connect 52 0 49 0;
#X connect 52 1 53 0;
#X connect 52 2 54 0;
#X connect 52 3 51 3;
#X connect 53 0 51 1;
#X connect 54 0 51 2;
#X connect 55 0 57 0;
#X connect 57 0 59 0;
#X connect 57 1 47 0;
#X connect 57 2 58 0;
#X connect 58 0 0 0;
#X connect 59 0 0 0;
#X connect 60 0 48 0;
#X connect 61 0 62 0;
#X connect 62 0 63 0;
#X connect 63 0 52 0;
