#N canvas 11 488 632 524 12;
#X obj 28 255 rfft~;
#X obj 28 288 *~;
#X obj 59 288 *~;
#X obj 28 318 sqrt~;
#X obj 39 166 block~ 4096 1;
#X obj 28 344 biquad~ 0 0 0 0 1;
#X obj 28 368 /~ 4096;
#N canvas 0 0 450 300 graph1 0;
#X array \$0-t 2050 float 0;
#X coords 0 0.51 2049 -0.008 259 100 1;
#X restore 12 41 graph;
#X obj 42 460 tabwrite~ \$0-t;
#X obj 49 399 ii 1;
#X obj 49 422 metro 200;
#X obj 36 229 *~;
#X obj 274 13 vsl 12 128 0 20 0 0 empty empty ranges -38 4 1 8 -262144
-1 -1 635 1;
#X floatatom 257 163 5 0 0 0 - - -;
#X obj 27 194 inlet~;
#X obj 326 43 ii 1;
#X obj 290 13 vsl 12 128 0 2050 0 0 empty empty empty -34 4 1 8 -262144
-1 -1 12700 0;
#X obj 315 16 ii 2050;
#X obj 278 288 s \$0-t;
#X msg 276 260 resize \$1;
#X text 417 10 5.1.2.2.spectrum;
#X text 355 443 www.pd-tutorial.com;
#X text 362 417 Johannes Kreidler;
#X connect 0 0 1 0;
#X connect 0 0 1 1;
#X connect 0 1 2 0;
#X connect 0 1 2 1;
#X connect 1 0 3 0;
#X connect 2 0 3 0;
#X connect 3 0 5 0;
#X connect 5 0 6 0;
#X connect 6 0 8 0;
#X connect 9 0 10 0;
#X connect 10 0 8 0;
#X connect 11 0 0 0;
#X connect 12 0 13 0;
#X connect 13 0 11 1;
#X connect 14 0 11 0;
#X connect 15 0 12 0;
#X connect 16 0 19 0;
#X connect 17 0 16 0;
#X connect 19 0 18 0;
#X coords 0 -1 1 1 293 135 1 10 10;
