#N canvas 444 405 278 201 12;
#X obj 9 8 cnv 15 240 150 empty empty empty 20 12 0 14 -225280 -66577
0;
#X obj 19 109 cnv 15 15 15 empty time >0.01 20 12 1 55 -262144 -66577
0;
#X obj 38 29 tgl 55 0 stort empty start/stop 0 -6 0 8 -262131 -1 -1
0 1;
#N canvas 841 225 497 625 stop 0;
#X obj 183 66 tgl 15 0 empty empty empty 0 -6 0 8 -262144 -1 -1 0 1
;
#X floatatom 106 212 0 0 0 0 - - -;
#X msg 49 163 bang;
#X obj 106 187 + 1;
#X obj 49 188 float;
#X obj 136 114 sel 0;
#N canvas 0 0 454 304 runden 0;
#X msg 159 115 10;
#X obj 159 92 loadbang;
#X obj 159 137 pow \$1;
#X obj 79 120 * 1;
#X obj 79 90 inlet;
#X obj 120 167 / 1;
#X msg 120 145 1;
#X obj 79 145 + 0.5;
#X obj 79 170 div;
#X obj 79 217 outlet;
#X obj 79 193 * 1;
#X connect 0 0 2 0;
#X connect 1 0 0 0;
#X connect 2 0 3 1;
#X connect 2 0 5 1;
#X connect 2 0 6 0;
#X connect 3 0 7 0;
#X connect 4 0 3 0;
#X connect 5 0 10 1;
#X connect 6 0 5 0;
#X connect 7 0 8 0;
#X connect 8 0 10 0;
#X connect 10 0 9 0;
#X restore 162 295 pd runden;
#X floatatom 170 318 0 0 0 0 - - -;
#X obj 163 264 / 60;
#X obj 163 238 - 30;
#X floatatom 280 253 0 0 0 0 - - -;
#X msg 223 204 bang;
#X obj 280 228 + 1;
#X obj 223 229 float;
#X obj 310 155 sel 0;
#X obj 49 138 metro 1000;
#X obj 223 179 metro 1000;
#X obj 341 296 bng 15 250 50 0 empty empty empty 0 -6 0 8 -262144 -1
-1;
#X obj 341 317 del 500;
#X obj 341 273 sel 59;
#X msg 315 197 -1;
#X floatatom 276 282 0 0 0 0 - - -;
#X msg 136 139 -1;
#X obj 380 157 loadbang;
#X obj 45 10 r stort;
#X floatatom 273 367 5 0 0 0 - - -;
#X obj 272 316 * 0.01;
#X obj 200 421 +;
#X msg 207 503 \; time label \$1;
#X obj 213 464 makesymbol >%s;
#X obj 260 401 f;
#X obj 177 350 t f b;
#X obj 41 68 tgl 15 0 empty empty empty 0 -6 0 8 -262144 -1 -1 0 1
;
#X obj 70 42 t f f;
#X obj 127 12 tgl 15 0 empty empty empty 0 -6 0 8 -262144 -1 -1 0 1
;
#X text 268 572 www.pd-tutorial.com;
#X text 281 552 Johannes Kreidler;
#X connect 0 0 14 0;
#X connect 0 0 16 0;
#X connect 1 0 9 0;
#X connect 2 0 4 0;
#X connect 3 0 1 0;
#X connect 3 0 4 1;
#X connect 4 0 3 0;
#X connect 5 0 22 0;
#X connect 6 0 7 0;
#X connect 7 0 31 0;
#X connect 8 0 6 0;
#X connect 9 0 8 0;
#X connect 10 0 19 0;
#X connect 10 0 21 0;
#X connect 11 0 13 0;
#X connect 12 0 10 0;
#X connect 12 0 13 1;
#X connect 13 0 12 0;
#X connect 14 0 20 0;
#X connect 15 0 2 0;
#X connect 16 0 11 0;
#X connect 17 0 18 0;
#X connect 18 0 20 0;
#X connect 19 0 17 0;
#X connect 20 0 13 1;
#X connect 21 0 26 0;
#X connect 22 0 4 1;
#X connect 23 0 20 0;
#X connect 23 0 22 0;
#X connect 24 0 33 0;
#X connect 25 0 30 1;
#X connect 26 0 25 0;
#X connect 27 0 29 0;
#X connect 29 0 28 0;
#X connect 30 0 27 1;
#X connect 31 0 27 0;
#X connect 31 1 30 0;
#X connect 32 0 5 0;
#X connect 32 0 15 0;
#X connect 33 0 32 0;
#X connect 33 1 0 0;
#X connect 34 0 33 0;
#X restore 112 33 pd stop;
