#N canvas 237 598 579 272 12;
#X obj 26 103 expr pow($f1 \, 2);
#X floatatom 26 133 5 0 0 0 - - -;
#X floatatom 26 76 5 0 0 0 - - -;
#X text 27 45 y=x^2;
#X floatatom 168 133 5 0 0 0 - - -;
#X floatatom 168 76 5 0 0 0 - - -;
#X obj 168 103 expr pow($f1 \, (2+$f1));
#X text 166 48 y=x^(2+x);
#X floatatom 352 133 5 0 0 0 - - -;
#X floatatom 352 76 5 0 0 0 - - -;
#X obj 352 103 expr 1-(pow(2 \, $f1));
#X text 351 50 y=1-(2^x);
#X text 25 4 2.2.1.2.8. exponential functions;
#X text 236 196 www.pd-tutorial.com;
#X text 255 174 Johannes Kreidler;
#X connect 0 0 1 0;
#X connect 2 0 0 0;
#X connect 5 0 6 0;
#X connect 6 0 4 0;
#X connect 9 0 10 0;
#X connect 10 0 8 0;
