#N canvas 201 420 550 501 12;
#X obj 126 234 unpack f f;
#X floatatom 126 261 5 0 0 0 - - -;
#X floatatom 202 260 5 0 0 0 - - -;
#X obj 126 90 f;
#X msg 148 60 0;
#X obj 126 116 + 1;
#X obj 126 38 bng 15 250 50 0 empty empty empty 0 -6 0 8 -262144 -1
-1;
#X obj 126 158 route 1 2 3 4 5 6;
#X msg 126 204 440 0.5;
#X msg 194 204 500 0.9;
#X msg 259 204 573 0.2;
#X msg 325 204 540 0.6;
#X msg 393 204 600 0.4;
#X msg 458 204 643 1;
#X obj 126 289 osc~;
#X obj 126 343 *~;
#X obj 127 401 *~;
#X obj 152 377 tgl 15 0 empty empty empty 0 -6 0 8 -262144 -1 -1 0
1;
#X obj 127 432 dac~;
#X floatatom 182 135 5 0 0 0 - - -;
#X text 25 4 2.2.2.2.6. sequence of lists;
#X text 206 34 then click bang 6x;
#X text 188 60 first click the starting value here;
#X text 187 366 on/off switch;
#X text 346 449 www.pd-tutorial.com;
#X text 362 420 Johannes Kreidler;
#X connect 0 0 1 0;
#X connect 0 1 2 0;
#X connect 1 0 14 0;
#X connect 2 0 15 1;
#X connect 3 0 5 0;
#X connect 4 0 3 1;
#X connect 5 0 3 1;
#X connect 5 0 7 0;
#X connect 5 0 19 0;
#X connect 6 0 3 0;
#X connect 7 0 8 0;
#X connect 7 1 9 0;
#X connect 7 2 10 0;
#X connect 7 3 11 0;
#X connect 7 4 12 0;
#X connect 7 5 13 0;
#X connect 8 0 0 0;
#X connect 9 0 0 0;
#X connect 10 0 0 0;
#X connect 11 0 0 0;
#X connect 12 0 0 0;
#X connect 13 0 0 0;
#X connect 14 0 15 0;
#X connect 15 0 16 0;
#X connect 16 0 18 0;
#X connect 16 0 18 1;
#X connect 17 0 16 1;
