#N canvas 201 420 584 518 12;
#X obj 63 429 expr pow(3 \, $f1);
#X text 205 431 y=3^x;
#X obj 78 212 f;
#X obj 73 71 unpack f f;
#X obj 78 238 + 1;
#X obj 78 280 spigot;
#X msg 122 249 1;
#X msg 157 249 0;
#X obj 78 308 t b f;
#X obj 30 265 bng 15 250 50 0 empty empty empty 0 -6 0 8 -262144 -1
-1;
#X obj 113 360 sel;
#X floatatom 113 336 5 0 0 0 - - -;
#X obj 113 387 bng 15 250 50 0 empty empty empty 0 -6 0 8 -262144 -1
-1;
#X obj 73 105 t b b f;
#X obj 63 458 print y;
#X msg 74 38 -3 3;
#X msg 253 34 4 9;
#X text 25 4 2.2.2.2.6. part of function;
#X text 123 35 from -3 to 3;
#X text 314 40 some other values...;
#X text 337 465 www.pd-tutorial.com;
#X text 357 436 Johannes Kreidler;
#X connect 0 0 14 0;
#X connect 2 0 4 0;
#X connect 3 0 13 0;
#X connect 3 1 10 1;
#X connect 4 0 5 0;
#X connect 5 0 8 0;
#X connect 6 0 5 1;
#X connect 7 0 5 1;
#X connect 8 0 9 0;
#X connect 8 1 2 1;
#X connect 8 1 11 0;
#X connect 9 0 2 0;
#X connect 10 0 12 0;
#X connect 11 0 10 0;
#X connect 11 0 0 0;
#X connect 12 0 7 0;
#X connect 13 0 9 0;
#X connect 13 1 6 0;
#X connect 13 2 2 1;
#X connect 15 0 3 0;
#X connect 16 0 3 0;
