#N canvas 201 420 580 514 12;
#X obj 120 57 tgl 15 0 empty empty empty 0 -6 0 8 -262144 -1 -1 0 1
;
#X obj 120 84 metro 500;
#X obj 120 114 random 1000;
#X obj 120 170 osc~;
#X floatatom 120 143 5 0 0 0 - - -;
#X obj 120 229 *~;
#X obj 144 207 tgl 15 0 empty empty empty 0 -6 0 8 -262144 -1 -1 0
1;
#X obj 120 265 dac~;
#X obj 302 54 tgl 15 0 empty empty empty 0 -6 0 8 -262144 -1 -1 0 1
;
#X obj 302 81 metro 500;
#X obj 302 111 random 1000;
#X obj 302 258 osc~;
#X floatatom 302 139 5 0 0 0 - - -;
#X obj 302 317 *~;
#X obj 326 295 tgl 15 0 empty empty empty 0 -6 0 8 -262144 -1 -1 0
1;
#X obj 302 353 dac~;
#X obj 302 208 line;
#X floatatom 302 235 5 0 0 0 - - -;
#X msg 302 167 \$1 500;
#X text 25 4 2.2.3.2.9. random melody 500;
#X text 302 30 with Glissando;
#X text 325 470 www.pd-tutorial.com;
#X text 342 438 Johannes Kreidler;
#X connect 0 0 1 0;
#X connect 1 0 2 0;
#X connect 2 0 4 0;
#X connect 3 0 5 0;
#X connect 4 0 3 0;
#X connect 5 0 7 0;
#X connect 5 0 7 1;
#X connect 6 0 5 1;
#X connect 8 0 9 0;
#X connect 9 0 10 0;
#X connect 10 0 12 0;
#X connect 11 0 13 0;
#X connect 12 0 18 0;
#X connect 13 0 15 0;
#X connect 13 0 15 1;
#X connect 14 0 13 1;
#X connect 16 0 17 0;
#X connect 17 0 11 0;
#X connect 18 0 16 0;
