#N canvas 164 424 664 405 12;
#X obj 163 167 tgl 15 0 empty empty empty 0 -6 0 8 -262144 -1 -1 0
1;
#X obj 163 195 metro;
#X obj 198 168 +;
#X obj 198 126 random 1000;
#X obj 312 141 - 500;
#X floatatom 312 116 5 0 0 0 - - -;
#X obj 163 222 bng 15 250 50 0 empty empty empty 0 -6 0 8 -262144 -1
-1;
#X obj 312 92 expr 1000/($f1/60);
#X floatatom 312 67 5 0 0 0 - - -;
#X text 27 6 2.2.3.2.9. irregular metro;
#X text 311 32 average tempo \, max. 120;
#X text 390 329 www.pd-tutorial.com;
#X text 402 299 Johannes Kreidler;
#X connect 0 0 1 0;
#X connect 1 0 3 0;
#X connect 1 0 6 0;
#X connect 2 0 1 1;
#X connect 3 0 2 0;
#X connect 4 0 2 1;
#X connect 5 0 4 0;
#X connect 7 0 5 0;
#X connect 8 0 7 0;
