#N canvas 164 424 467 442 12;
#X obj 203 90 expr 1000/($f1/60);
#X msg 203 60 60;
#X msg 238 60 100;
#X obj 168 122 metro;
#X obj 168 37 tgl 15 0 empty empty empty 0 -6 0 8 -262144 -1 -1 0 1
;
#X obj 65 166 osc~ 3000;
#X obj 136 222 del 50;
#X msg 136 251 0;
#X msg 173 251 1;
#X obj 144 199 bng 15 250 50 0 empty empty empty 0 -6 0 8 -262144 -1
-1;
#X obj 65 282 *~;
#X obj 64 311 dac~;
#X obj 213 170 f;
#X msg 268 135 0;
#X obj 213 195 + 1;
#X obj 250 241 route 5 10;
#X text 27 6 2.2.3.2.9. two metro;
#X text 258 375 www.pd-tutorial.com;
#X text 276 347 Johannes Kreidler;
#X connect 0 0 3 1;
#X connect 1 0 0 0;
#X connect 2 0 0 0;
#X connect 3 0 9 0;
#X connect 3 0 12 0;
#X connect 4 0 3 0;
#X connect 4 0 1 0;
#X connect 4 0 13 0;
#X connect 5 0 10 0;
#X connect 6 0 7 0;
#X connect 7 0 10 1;
#X connect 8 0 10 1;
#X connect 9 0 6 0;
#X connect 9 0 8 0;
#X connect 10 0 11 0;
#X connect 10 0 11 1;
#X connect 12 0 14 0;
#X connect 13 0 12 1;
#X connect 14 0 12 1;
#X connect 14 0 15 0;
#X connect 15 0 2 0;
#X connect 15 1 1 0;
#X connect 15 1 13 0;
