#N canvas 164 424 472 508 12;
#X obj 157 114 random 200;
#X obj 157 277 +;
#X msg 207 239 100;
#X msg 244 239 1000;
#X obj 157 80 metro 250;
#X obj 260 80 metro 2000;
#X obj 260 142 f;
#X obj 260 168 + 1;
#X msg 279 115 0;
#X obj 260 194 route 1 2;
#X obj 157 328 osc~;
#X floatatom 157 302 5 0 0 0 - - -;
#X obj 217 35 tgl 15 0 empty empty empty 0 -6 0 8 -262144 -1 -1 0 1
;
#X obj 156 398 dac~;
#X obj 157 368 *~ 0.7;
#X text 27 6 2.2.3.2.9. high / low melody;
#X text 254 447 www.pd-tutorial.com;
#X text 270 417 Johannes Kreidler;
#X connect 0 0 1 0;
#X connect 1 0 11 0;
#X connect 2 0 1 1;
#X connect 3 0 1 1;
#X connect 4 0 0 0;
#X connect 5 0 6 0;
#X connect 6 0 7 0;
#X connect 7 0 6 1;
#X connect 7 0 9 0;
#X connect 8 0 6 1;
#X connect 9 0 2 0;
#X connect 9 1 3 0;
#X connect 9 1 8 0;
#X connect 10 0 14 0;
#X connect 11 0 10 0;
#X connect 12 0 4 0;
#X connect 12 0 5 0;
#X connect 12 0 8 0;
#X connect 14 0 13 0;
#X connect 14 0 13 1;
