#N canvas 0 0 802 407 12;
#X obj 78 230 dac~;
#X obj 77 202 hip~ 5;
#X obj 108 297 loadbang;
#X obj 77 168 *~;
#X obj 95 144 *~;
#X obj 77 97 inlet~;
#X obj 145 127 line~;
#X msg 145 103 \$1 20;
#X obj 148 68 hsl 130 13 0 1 0 0 empty empty empty -2 -6 0 8 -262144
-1 -1 0 0;
#X msg 108 323 \; pd dsp 1;
#X obj 209 266 f;
#X msg 244 123 0;
#X obj 171 49 mute;
#X obj 209 94 sel 0;
#X obj 246 279 bng 15 250 50 0 empty empty empty 0 -6 0 8 -262144 -1
-1;
#X text 498 163 Honk Abstractions -- Kreidler 2007;
#X text 540 196 www.kreidler-net.de;
#X obj 218 49 e-dsp;
#X text 402 50 dac: comfortable control of audio output;
#X obj 245 236 spigot;
#X obj 245 168 t f f;
#X obj 280 207 > 0;
#X connect 1 0 0 0;
#X connect 1 0 0 1;
#X connect 2 0 9 0;
#X connect 3 0 1 0;
#X connect 4 0 3 1;
#X connect 5 0 3 0;
#X connect 6 0 4 0;
#X connect 6 0 4 1;
#X connect 7 0 6 0;
#X connect 8 0 7 0;
#X connect 8 0 20 0;
#X connect 10 0 8 0;
#X connect 11 0 8 0;
#X connect 12 0 13 0;
#X connect 13 0 10 0;
#X connect 13 1 11 0;
#X connect 14 0 12 0;
#X connect 19 0 14 0;
#X connect 19 0 10 1;
#X connect 20 0 19 0;
#X connect 20 1 21 0;
#X connect 21 0 19 1;
#X coords 0 -1 1 1 138 33 1 144 48;
