#N canvas 45 321 852 725 12;
#X text 490 59 ntables [number of tables] [table size];
#X obj 160 207 f;
#X obj 160 235 + 1;
#X obj 241 290 sel \$1;
#X obj 160 262 t f f;
#X obj 160 346 spigot;
#X msg 205 316 1;
#X msg 243 316 0;
#X obj 160 80 bng 15 250 50 0 empty empty empty 0 -6 0 8 -262144 -1
-1;
#X obj 160 105 t b b;
#X obj 160 29 loadbang;
#X obj 160 54 t b b;
#X obj 298 290 sel 200;
#X floatatom 160 372 5 0 0 0 - - -;
#X obj 250 539 \$2;
#X msg 185 177 -1;
#X obj 175 569 pack f s f;
#X msg 175 597 obj 300 \$1 table \$2 \$3;
#X obj 175 650 s pd-tables;
#X msg 391 517 clear;
#X obj 175 529 * 30;
#X obj 226 492 makefilename n%d;
#X obj 171 396 t b f f b;
#N canvas 0 0 454 304 tables 0;
#X restore 432 165 pd tables;
#X text 369 286 upper limit for safety;
#X text 624 656 www.pd-tutorial.com;
#X text 636 616 Johannes Kreidler;
#X connect 1 0 2 0;
#X connect 2 0 1 1;
#X connect 2 0 4 0;
#X connect 3 0 7 0;
#X connect 4 0 5 0;
#X connect 4 1 3 0;
#X connect 4 1 12 0;
#X connect 5 0 13 0;
#X connect 6 0 5 1;
#X connect 7 0 5 1;
#X connect 8 0 9 0;
#X connect 9 0 1 0;
#X connect 9 1 6 0;
#X connect 10 0 11 0;
#X connect 11 0 8 0;
#X connect 11 1 15 0;
#X connect 11 1 19 0;
#X connect 12 0 7 0;
#X connect 13 0 22 0;
#X connect 14 0 16 2;
#X connect 15 0 1 1;
#X connect 16 0 17 0;
#X connect 17 0 18 0;
#X connect 19 0 18 0;
#X connect 20 0 16 0;
#X connect 21 0 16 1;
#X connect 22 0 9 0;
#X connect 22 1 20 0;
#X connect 22 2 21 0;
#X connect 22 3 14 0;
